<?xml version="1.0" encoding="UTF-8"?>
<svg width="135px" height="108px" viewBox="0 0 135 108" version="1.1" xmlns="http://www.w3.org/2000/svg" xmlns:xlink="http://www.w3.org/1999/xlink">
    <g id="bmp00144" stroke="none" stroke-width="1" fill="none" fill-rule="evenodd">
        <rect id="Rectangle" stroke="#979797" fill="#D8D8D8" x="0.5" y="0.5" width="134" height="26" rx="5"></rect>
        <rect id="Rectangle" stroke="#979797" fill="#D8D8D8" x="0.5" y="27.5" width="134" height="26" rx="5"></rect>
        <rect id="Rectangle" stroke="#979797" fill="#D8D8D8" x="0.5" y="54.5" width="134" height="26" rx="5"></rect>
        <rect id="Rectangle" stroke="#979797" fill="#D8D8D8" x="0.5" y="81.5" width="134" height="26" rx="5"></rect>
        <rect id="Rectangle" stroke="#979797" fill="#D8D8D8" x="34.5" y="29.5" width="1" height="22"></rect>
        <rect id="Rectangle" stroke="#979797" fill="#D8D8D8" x="67.5" y="29.5" width="1" height="22"></rect>
        <rect id="Rectangle" stroke="#979797" fill="#D8D8D8" x="100.5" y="29.5" width="1" height="22"></rect>
        <rect id="Rectangle" stroke="#979797" fill="#D8D8D8" x="34.5" y="56.5" width="1" height="22"></rect>
        <rect id="Rectangle" stroke="#979797" fill="#D8D8D8" x="67.5" y="56.5" width="1" height="22"></rect>
        <rect id="Rectangle" stroke="#979797" fill="#D8D8D8" x="100.5" y="56.5" width="1" height="22"></rect>
        <rect id="Rectangle" stroke="#979797" fill="#D8D8D8" x="34.5" y="83.5" width="1" height="22"></rect>
        <rect id="Rectangle" stroke="#979797" fill="#D8D8D8" x="67.5" y="83.5" width="1" height="22"></rect>
        <rect id="Rectangle" stroke="#979797" fill="#D8D8D8" x="100.5" y="83.5" width="1" height="22"></rect>
        <rect id="Rectangle" stroke="#979797" fill="#D8D8D8" x="34.5" y="2.5" width="1" height="22"></rect>
        <rect id="Rectangle" stroke="#979797" fill="#D8D8D8" x="67.5" y="2.5" width="1" height="22"></rect>
        <rect id="Rectangle" stroke="#979797" fill="#D8D8D8" x="100.5" y="2.5" width="1" height="22"></rect>
        <rect id="Rectangle" fill="#FF9A10" x="4" y="4" width="27" height="19" rx="2"></rect>
        <rect id="Rectangle" fill="#FF9A10" x="38" y="31" width="27" height="19" rx="2"></rect>
        <rect id="Rectangle" fill="#FF9A10" x="71" y="59" width="27" height="19" rx="2"></rect>
        <path d="M10.4350586,40.8623047 C10.4350586,39.7929634 10.7221651,38.9558136 11.2963867,38.3508301 C11.8706083,37.7458466 12.6118119,37.4433594 13.5200195,37.4433594 C14.1147491,37.4433594 14.6508765,37.5854478 15.128418,37.8696289 C15.6059594,38.15381 15.9699695,38.5500463 16.220459,39.0583496 C16.4709485,39.5666529 16.5961914,40.1430632 16.5961914,40.7875977 C16.5961914,41.4409212 16.4643568,42.025388 16.2006836,42.5410156 C15.9370104,43.0566432 15.563479,43.4470202 15.0800781,43.7121582 C14.5966773,43.9772962 14.0751981,44.1098633 13.515625,44.1098633 C12.9091767,44.1098633 12.3671899,43.9633804 11.8896484,43.6704102 C11.412107,43.3774399 11.0502942,42.9775416 10.8041992,42.4707031 C10.5581042,41.9638647 10.4350586,41.4277372 10.4350586,40.8623047 Z M11.3139648,40.8754883 C11.3139648,41.6518594 11.522703,42.2634255 11.9401855,42.7102051 C12.3576681,43.1569847 12.8813445,43.3803711 13.5112305,43.3803711 C14.1528352,43.3803711 14.6809061,43.1547874 15.095459,42.7036133 C15.5100118,42.2524392 15.7172852,41.6123088 15.7172852,40.7832031 C15.7172852,40.2587864 15.628663,39.8010273 15.451416,39.4099121 C15.274169,39.0187969 15.0148943,38.7155772 14.673584,38.5002441 C14.3322737,38.284911 13.9492209,38.1772461 13.5244141,38.1772461 C12.9208954,38.1772461 12.4016135,38.3845194 11.9665527,38.7990723 C11.531492,39.2136251 11.3139648,39.9057569 11.3139648,40.8754883 Z M18.3427147,44 L18.3427147,39.9482422 L17.6439843,39.9482422 L17.6439843,39.3330078 L18.3427147,39.3330078 L18.3427147,38.8364258 C18.3427147,38.5229477 18.3705465,38.2900398 18.4262108,38.1376953 C18.5023831,37.9326162 18.636415,37.7663581 18.8283104,37.638916 C19.0202059,37.511474 19.2890021,37.4477539 19.6347069,37.4477539 C19.8573643,37.4477539 20.1034556,37.4741208 20.3729882,37.5268555 L20.2543358,38.2167969 C20.0902725,38.1874999 19.9350006,38.1728516 19.7885155,38.1728516 C19.5482799,38.1728516 19.3783598,38.2241206 19.2787499,38.3266602 C19.17914,38.4291997 19.1293358,38.6210923 19.1293358,38.9023438 L19.1293358,39.3330078 L20.0390038,39.3330078 L20.0390038,39.9482422 L19.1293358,39.9482422 L19.1293358,44 L18.3427147,44 Z M21.2406053,44 L21.2406053,39.9482422 L20.5418748,39.9482422 L20.5418748,39.3330078 L21.2406053,39.3330078 L21.2406053,38.8364258 C21.2406053,38.5229477 21.268437,38.2900398 21.3241014,38.1376953 C21.4002736,37.9326162 21.5343055,37.7663581 21.726201,37.638916 C21.9180965,37.511474 22.1868926,37.4477539 22.5325975,37.4477539 C22.7552548,37.4477539 23.0013461,37.4741208 23.2708787,37.5268555 L23.1522264,38.2167969 C22.988163,38.1874999 22.8328912,38.1728516 22.6864061,38.1728516 C22.4461705,38.1728516 22.2762503,38.2241206 22.1766404,38.3266602 C22.0770306,38.4291997 22.0272264,38.6210923 22.0272264,38.9023438 L22.0272264,39.3330078 L22.9368943,39.3330078 L22.9368943,39.9482422 L22.0272264,39.9482422 L22.0272264,44 L21.2406053,44 Z" id="Off" fill="#000000"></path>
        <path d="M40.4042969,41.9301758 L41.2084961,41.8598633 C41.2465822,42.1821305 41.3352044,42.4465322 41.4743652,42.6530762 C41.6135261,42.8596202 41.8295884,43.0266107 42.1225586,43.1540527 C42.4155288,43.2814948 42.7451154,43.3452148 43.1113281,43.3452148 C43.4365251,43.3452148 43.7236316,43.2968755 43.9726562,43.2001953 C44.2216809,43.1035151 44.4069818,42.9709481 44.5285645,42.8024902 C44.6501471,42.6340324 44.7109375,42.4501963 44.7109375,42.2509766 C44.7109375,42.0488271 44.6523443,41.8723152 44.5351562,41.7214355 C44.4179682,41.5705559 44.2246107,41.4438482 43.9550781,41.3413086 C43.7822257,41.2739254 43.3999053,41.1691902 42.8081055,41.0270996 C42.2163056,40.8850091 41.801759,40.7509772 41.5644531,40.625 C41.2568344,40.4638664 41.0275886,40.2639172 40.876709,40.0251465 C40.7258293,39.7863758 40.6503906,39.5190444 40.6503906,39.2231445 C40.6503906,38.8979476 40.7426749,38.5939956 40.9272461,38.3112793 C41.1118173,38.028563 41.3813459,37.8139656 41.7358398,37.6674805 C42.0903338,37.5209954 42.4843728,37.4477539 42.9179688,37.4477539 C43.3955102,37.4477539 43.8166486,37.5246574 44.1813965,37.6784668 C44.5461444,37.8322762 44.8266592,38.0585923 45.0229492,38.3574219 C45.2192393,38.6562515 45.324707,38.994627 45.3393555,39.3725586 L44.5219727,39.434082 C44.4780271,39.0268534 44.329347,38.7192393 44.0759277,38.5112305 C43.8225085,38.3032216 43.4482447,38.1992188 42.953125,38.1992188 C42.4374974,38.1992188 42.0617688,38.2937002 41.8259277,38.482666 C41.5900867,38.6716318 41.472168,38.8994127 41.472168,39.1660156 C41.472168,39.3974621 41.5556632,39.5878899 41.7226562,39.7373047 C41.8867196,39.8867195 42.3151821,40.0397941 43.0080566,40.1965332 C43.7009312,40.3532723 44.1762682,40.4902338 44.434082,40.6074219 C44.8090839,40.7802743 45.0859366,40.9992663 45.2646484,41.2644043 C45.4433603,41.5295423 45.5327148,41.8349592 45.5327148,42.1806641 C45.5327148,42.5234392 45.4345713,42.846434 45.2382812,43.1496582 C45.0419912,43.4528824 44.7600116,43.6887199 44.392334,43.8571777 C44.0246564,44.0256356 43.6108421,44.1098633 43.1508789,44.1098633 C42.5678682,44.1098633 42.0793477,44.0249032 41.6853027,43.8549805 C41.2912578,43.6850577 40.9821789,43.4294451 40.7580566,43.0881348 C40.5339344,42.7468245 40.4160157,42.360842 40.4042969,41.9301758 Z M50.3510155,42.4970703 L51.1683983,42.5981445 C51.0394914,43.075686 50.8007243,43.4462877 50.4520897,43.7099609 C50.1034552,43.9736341 49.6581471,44.1054688 49.1161522,44.1054688 C48.4335316,44.1054688 47.8922773,43.8952658 47.4923729,43.4748535 C47.0924686,43.0544413 46.8925194,42.4648475 46.8925194,41.7060547 C46.8925194,40.9208945 47.0946658,40.3115256 47.4989647,39.8779297 C47.9032636,39.4443338 48.4276725,39.2275391 49.0722069,39.2275391 C49.6962335,39.2275391 50.205994,39.4399393 50.6015038,39.8647461 C50.9970136,40.2895529 51.1947655,40.8872032 51.1947655,41.6577148 C51.1947655,41.7045901 51.1933007,41.7749019 51.190371,41.8686523 L47.7099022,41.8686523 C47.7391993,42.3813502 47.8842173,42.7739244 48.1449608,43.0463867 C48.4057043,43.318849 48.7308964,43.4550781 49.1205468,43.4550781 C49.4105873,43.4550781 49.6581434,43.378907 49.8632226,43.2265625 C50.0683017,43.074218 50.2308977,42.8310564 50.3510155,42.4970703 Z M47.7538476,41.2182617 L50.3598046,41.2182617 C50.3246482,40.8256816 50.2250398,40.531251 50.0609765,40.3349609 C49.8090221,40.0302719 49.4823652,39.8779297 49.080996,39.8779297 C48.7177129,39.8779297 48.4122961,39.9995105 48.1647362,40.2426758 C47.9171764,40.4858411 47.7802149,40.8110331 47.7538476,41.2182617 Z M52.7215623,44 L52.7215623,39.3330078 L53.4334764,39.3330078 L53.4334764,39.996582 C53.7762515,39.4838842 54.2713638,39.2275391 54.9188279,39.2275391 C55.2000793,39.2275391 55.4586217,39.2780757 55.6944627,39.3791504 C55.9303037,39.4802251 56.1068156,39.6127921 56.2240037,39.7768555 C56.3411918,39.9409188 56.4232222,40.1357411 56.4700975,40.3613281 C56.4993945,40.5078132 56.5140428,40.7641583 56.5140428,41.1303711 L56.5140428,44 L55.7230271,44 L55.7230271,41.1611328 C55.7230271,40.8388656 55.6922657,40.5979012 55.630742,40.4382324 C55.5692182,40.2785637 55.4600885,40.1511235 55.3033494,40.0559082 C55.1466103,39.9606929 54.9627743,39.9130859 54.7518357,39.9130859 C54.41492,39.9130859 54.1241514,40.0200185 53.8795213,40.2338867 C53.6348912,40.447755 53.5125779,40.8535126 53.5125779,41.4511719 L53.5125779,44 L52.7215623,44 Z M61.3147653,44 L61.3147653,43.4111328 C61.0188654,43.8740258 60.5838112,44.1054688 60.0095895,44.1054688 C59.6375174,44.1054688 59.2954798,44.0029307 58.9834665,43.7978516 C58.6714532,43.5927724 58.4297564,43.3063983 58.2583688,42.9387207 C58.0869813,42.5710431 58.0012888,42.1484399 58.0012888,41.6708984 C58.0012888,41.2050758 58.0789247,40.7824726 58.2341989,40.4030762 C58.3894731,40.0236797 58.622381,39.7329112 58.9329294,39.5307617 C59.2434778,39.3286123 59.5906423,39.2275391 59.9744333,39.2275391 C60.2556847,39.2275391 60.5061705,39.2868646 60.7258981,39.4055176 C60.9456258,39.5241705 61.1243349,39.67871 61.2620309,39.8691406 L61.2620309,37.5576172 L62.048652,37.5576172 L62.048652,44 L61.3147653,44 Z M58.814277,41.6708984 C58.814277,42.2685577 58.9402523,42.7153306 59.1922067,43.0112305 C59.4441611,43.3071304 59.7415214,43.4550781 60.0842966,43.4550781 C60.4300014,43.4550781 60.7236997,43.3137221 60.9654001,43.0310059 C61.2071005,42.7482896 61.3279489,42.3168974 61.3279489,41.7368164 C61.3279489,41.0981413 61.2049033,40.629396 60.9588083,40.3305664 C60.7127133,40.0317368 60.4094937,39.8823242 60.0491403,39.8823242 C59.6975761,39.8823242 59.4038778,40.0258775 59.1680368,40.3129883 C58.9321958,40.6000991 58.814277,41.0527313 58.814277,41.6708984 Z" id="Send" fill="#000000"></path>
        <path d="M71.4042969,36.9301758 L72.2084961,36.8598633 C72.2465822,37.1821305 72.3352044,37.4465322 72.4743652,37.6530762 C72.6135261,37.8596202 72.8295884,38.0266107 73.1225586,38.1540527 C73.4155288,38.2814948 73.7451154,38.3452148 74.1113281,38.3452148 C74.4365251,38.3452148 74.7236316,38.2968755 74.9726562,38.2001953 C75.2216809,38.1035151 75.4069818,37.9709481 75.5285645,37.8024902 C75.6501471,37.6340324 75.7109375,37.4501963 75.7109375,37.2509766 C75.7109375,37.0488271 75.6523443,36.8723152 75.5351562,36.7214355 C75.4179682,36.5705559 75.2246107,36.4438482 74.9550781,36.3413086 C74.7822257,36.2739254 74.3999053,36.1691902 73.8081055,36.0270996 C73.2163056,35.8850091 72.801759,35.7509772 72.5644531,35.625 C72.2568344,35.4638664 72.0275886,35.2639172 71.876709,35.0251465 C71.7258293,34.7863758 71.6503906,34.5190444 71.6503906,34.2231445 C71.6503906,33.8979476 71.7426749,33.5939956 71.9272461,33.3112793 C72.1118173,33.028563 72.3813459,32.8139656 72.7358398,32.6674805 C73.0903338,32.5209954 73.4843728,32.4477539 73.9179688,32.4477539 C74.3955102,32.4477539 74.8166486,32.5246574 75.1813965,32.6784668 C75.5461444,32.8322762 75.8266592,33.0585923 76.0229492,33.3574219 C76.2192393,33.6562515 76.324707,33.994627 76.3393555,34.3725586 L75.5219727,34.434082 C75.4780271,34.0268534 75.329347,33.7192393 75.0759277,33.5112305 C74.8225085,33.3032216 74.4482447,33.1992188 73.953125,33.1992188 C73.4374974,33.1992188 73.0617688,33.2937002 72.8259277,33.482666 C72.5900867,33.6716318 72.472168,33.8994127 72.472168,34.1660156 C72.472168,34.3974621 72.5556632,34.5878899 72.7226562,34.7373047 C72.8867196,34.8867195 73.3151821,35.0397941 74.0080566,35.1965332 C74.7009312,35.3532723 75.1762682,35.4902338 75.434082,35.6074219 C75.8090839,35.7802743 76.0859366,35.9992663 76.2646484,36.2644043 C76.4433603,36.5295423 76.5327148,36.8349592 76.5327148,37.1806641 C76.5327148,37.5234392 76.4345713,37.846434 76.2382812,38.1496582 C76.0419912,38.4528824 75.7600116,38.6887199 75.392334,38.8571777 C75.0246564,39.0256356 74.6108421,39.1098633 74.1508789,39.1098633 C73.5678682,39.1098633 73.0793477,39.0249032 72.6853027,38.8549805 C72.2912578,38.6850577 71.9821789,38.4294451 71.7580566,38.0881348 C71.5339344,37.7468245 71.4160157,37.360842 71.4042969,36.9301758 Z M80.7510156,37.4970703 L81.5683984,37.5981445 C81.4394915,38.075686 81.2007244,38.4462877 80.8520898,38.7099609 C80.5034553,38.9736341 80.0581472,39.1054688 79.5161523,39.1054688 C78.8335317,39.1054688 78.2922774,38.8952658 77.892373,38.4748535 C77.4924687,38.0544413 77.2925195,37.4648475 77.2925195,36.7060547 C77.2925195,35.9208945 77.4946659,35.3115256 77.8989648,34.8779297 C78.3032637,34.4443338 78.8276726,34.2275391 79.472207,34.2275391 C80.0962336,34.2275391 80.6059941,34.4399393 81.0015039,34.8647461 C81.3970137,35.2895529 81.5947656,35.8872032 81.5947656,36.6577148 C81.5947656,36.7045901 81.5933008,36.7749019 81.5903711,36.8686523 L78.1099023,36.8686523 C78.1391994,37.3813502 78.2842174,37.7739244 78.5449609,38.0463867 C78.8057044,38.318849 79.1308965,38.4550781 79.5205469,38.4550781 C79.8105874,38.4550781 80.0581435,38.378907 80.2632227,38.2265625 C80.4683018,38.074218 80.6308978,37.8310564 80.7510156,37.4970703 Z M78.1538477,36.2182617 L80.7598047,36.2182617 C80.7246483,35.8256816 80.6250399,35.531251 80.4609766,35.3349609 C80.2090222,35.0302719 79.8823653,34.8779297 79.4809961,34.8779297 C79.117713,34.8779297 78.8122962,34.9995105 78.5647363,35.2426758 C78.3171765,35.4858411 78.180215,35.8110331 78.1538477,36.2182617 Z M82.5215625,39 L82.5215625,34.3330078 L83.2334766,34.3330078 L83.2334766,34.996582 C83.5762517,34.4838842 84.071364,34.2275391 84.7188281,34.2275391 C85.0000795,34.2275391 85.2586219,34.2780757 85.4944629,34.3791504 C85.7303039,34.4802251 85.9068158,34.6127921 86.0240039,34.7768555 C86.141192,34.9409188 86.2232224,35.1357411 86.2700977,35.3613281 C86.2993947,35.5078132 86.314043,35.7641583 86.314043,36.1303711 L86.314043,39 L85.5230273,39 L85.5230273,36.1611328 C85.5230273,35.8388656 85.4922659,35.5979012 85.4307422,35.4382324 C85.3692184,35.2785637 85.2600887,35.1511235 85.1033496,35.0559082 C84.9466105,34.9606929 84.7627745,34.9130859 84.5518359,34.9130859 C84.2149202,34.9130859 83.9241516,35.0200185 83.6795215,35.2338867 C83.4348914,35.447755 83.3125781,35.8535126 83.3125781,36.4511719 L83.3125781,39 L82.5215625,39 Z M90.5147656,39 L90.5147656,38.4111328 C90.2188657,38.8740258 89.7838115,39.1054688 89.2095898,39.1054688 C88.8375177,39.1054688 88.4954801,39.0029307 88.1834668,38.7978516 C87.8714535,38.5927724 87.6297567,38.3063983 87.4583691,37.9387207 C87.2869816,37.5710431 87.2012891,37.1484399 87.2012891,36.6708984 C87.2012891,36.2050758 87.278925,35.7824726 87.4341992,35.4030762 C87.5894734,35.0236797 87.8223813,34.7329112 88.1329297,34.5307617 C88.4434781,34.3286123 88.7906426,34.2275391 89.1744336,34.2275391 C89.455685,34.2275391 89.7061708,34.2868646 89.9258984,34.4055176 C90.1456261,34.5241705 90.3243353,34.67871 90.4620313,34.8691406 L90.4620313,32.5576172 L91.2486523,32.5576172 L91.2486523,39 L90.5147656,39 Z M88.0142773,36.6708984 C88.0142773,37.2685577 88.1402526,37.7153306 88.392207,38.0112305 C88.6441614,38.3071304 88.9415217,38.4550781 89.2842969,38.4550781 C89.6300017,38.4550781 89.9237,38.3137221 90.1654004,38.0310059 C90.4071008,37.7482896 90.5279492,37.3168974 90.5279492,36.7368164 C90.5279492,36.0981413 90.4049036,35.629396 90.1588086,35.3305664 C89.9127136,35.0317368 89.609494,34.8823242 89.2491406,34.8823242 C88.8975764,34.8823242 88.6038781,35.0258775 88.3680371,35.3129883 C88.1321961,35.6000991 88.0142773,36.0527313 88.0142773,36.6708984 Z M94.1134375,37.9584961 L94.1134375,36.1918945 L92.3600195,36.1918945 L92.3600195,35.4536133 L94.1134375,35.4536133 L94.1134375,33.7001953 L94.8605078,33.7001953 L94.8605078,35.4536133 L96.6139258,35.4536133 L96.6139258,36.1918945 L94.8605078,36.1918945 L94.8605078,37.9584961 L94.1134375,37.9584961 Z M71.6679688,50.3 L71.6679688,43.8576171 L72.9511719,43.8576171 L74.4760742,48.4191406 C74.6166999,48.8439474 74.719238,49.1618153 74.7836914,49.3727539 C74.856934,49.1383777 74.9711906,48.7941428 75.1264648,48.340039 L76.6689453,43.8576171 L77.815918,43.8576171 L77.815918,50.3 L76.9941406,50.3 L76.9941406,44.9079101 L75.1220703,50.3 L74.3530273,50.3 L72.4897461,44.815625 L72.4897461,50.3 L71.6679688,50.3 Z M81.8957422,49.7243164 C81.602772,49.973341 81.3207924,50.1491205 81.0497949,50.2516601 C80.7787975,50.3541997 80.4880289,50.4054687 80.1774805,50.4054687 C79.6647826,50.4054687 79.2707436,50.2802258 78.9953516,50.0297363 C78.7199596,49.7792467 78.5822656,49.4591816 78.5822656,49.0695312 C78.5822656,48.8410144 78.6342671,48.6322763 78.7382715,48.4433105 C78.8422759,48.2543447 78.978505,48.1027349 79.1469629,47.9884765 C79.3154208,47.8742181 79.5051161,47.7877932 79.7160547,47.7291992 C79.8713289,47.6881833 80.1057016,47.648633 80.4191797,47.6105468 C81.0578548,47.5343746 81.5280649,47.4435552 81.8298242,47.3380859 C81.8327539,47.2296869 81.8342188,47.1608399 81.8342188,47.1315429 C81.8342188,46.8092757 81.7595125,46.5822272 81.6100977,46.4503906 C81.4079482,46.2716787 81.1076582,46.1823242 80.7092188,46.1823242 C80.3371466,46.1823242 80.0624911,46.2475091 79.8852441,46.3778808 C79.7079972,46.5082526 79.576895,46.7389631 79.4919336,47.0700195 L78.7184961,46.9645507 C78.7888089,46.6334944 78.9045304,46.3661631 79.0656641,46.1625488 C79.2267977,45.9589345 79.4597055,45.8021978 79.7643945,45.6923339 C80.0690836,45.5824701 80.4221074,45.527539 80.8234766,45.527539 C81.2219161,45.527539 81.5456433,45.5744135 81.794668,45.668164 C82.0436927,45.7619145 82.2267963,45.8798332 82.3439844,46.0219238 C82.4611725,46.1640143 82.5432029,46.3434559 82.5900781,46.5602539 C82.6164454,46.6950202 82.6296289,46.9381818 82.6296289,47.289746 L82.6296289,48.3444335 C82.6296289,49.0797888 82.6464744,49.544872 82.680166,49.7396972 C82.7138576,49.9345224 82.7805073,50.1212881 82.8801172,50.3 L82.0539453,50.3 C81.9719137,50.1359366 81.9191798,49.944044 81.8957422,49.7243164 Z M81.8298242,47.9577148 C81.5427134,48.0749029 81.1120537,48.1745113 80.537832,48.2565429 C80.2126351,48.3034182 79.9826569,48.356152 79.8478906,48.414746 C79.7131243,48.4733401 79.6091215,48.5590326 79.5358789,48.6718261 C79.4626364,48.7846197 79.4260156,48.9098625 79.4260156,49.0475585 C79.4260156,49.2584971 79.5058488,49.4342766 79.6655176,49.5749023 C79.8251863,49.715528 80.0588266,49.7858398 80.3664453,49.7858398 C80.6711343,49.7858398 80.9421277,49.7191901 81.1794336,49.5858886 C81.4167395,49.4525872 81.5910541,49.270216 81.7023828,49.0387695 C81.7873442,48.8600577 81.8298242,48.5963884 81.8298242,48.2477539 L81.8298242,47.9577148 Z M83.2992969,48.9069335 L84.0815234,48.7838867 C84.125469,49.0973648 84.2477822,49.3375968 84.4484668,49.5045898 C84.6491514,49.6715828 84.9296662,49.7550781 85.2900195,49.7550781 C85.6533026,49.7550781 85.9228312,49.6811042 86.0986133,49.5331542 C86.2743954,49.3852043 86.3622852,49.211622 86.3622852,49.0124023 C86.3622852,48.8336905 86.2846492,48.6930669 86.129375,48.5905273 C86.020976,48.5202144 85.7514475,48.4308599 85.3207812,48.3224609 C84.7407002,48.1759758 84.3386046,48.0492681 84.1144824,47.9423339 C83.8903602,47.8353998 83.72044,47.6874521 83.6047168,47.4984863 C83.4889936,47.3095205 83.4311328,47.1007823 83.4311328,46.8722656 C83.4311328,46.6642567 83.4787398,46.4716317 83.5739551,46.2943847 C83.6691704,46.1171377 83.7988078,45.9699224 83.9628711,45.8527343 C84.0859186,45.7619136 84.2536415,45.68501 84.4660449,45.6220214 C84.6784483,45.5590328 84.9062293,45.527539 85.1493945,45.527539 C85.5156073,45.527539 85.8371373,45.5802729 86.1139941,45.6857421 C86.390851,45.7912114 86.5951947,45.9340323 86.7270312,46.1142089 C86.8588678,46.2943856 86.9496873,46.53535 86.9994922,46.8371093 L86.2260547,46.9425781 C86.1908983,46.7023425 86.0890926,46.5148444 85.9206348,46.3800781 C85.7521769,46.2453118 85.5141422,46.1779296 85.2065234,46.1779296 C84.8432404,46.1779296 84.5839656,46.2379876 84.4286914,46.3581054 C84.2734172,46.4782232 84.1957812,46.6188468 84.1957812,46.7799804 C84.1957812,46.88252 84.2280075,46.9748042 84.2924609,47.0568359 C84.3569144,47.1417973 84.4579876,47.212109 84.5956836,47.2677734 C84.6747856,47.2970704 84.9076934,47.3644525 85.2944141,47.4699218 C85.8539872,47.6193366 86.2443641,47.7416499 86.4655566,47.8368652 C86.6867492,47.9320805 86.8603314,48.0705069 86.9863086,48.2521484 C87.1122858,48.4337899 87.1752734,48.6593736 87.1752734,48.9289062 C87.1752734,49.1925794 87.0983699,49.4408679 86.9445605,49.6737792 C86.7907512,49.9066906 86.5688296,50.0868645 86.2787891,50.2143066 C85.9887485,50.3417486 85.6606268,50.4054687 85.2944141,50.4054687 C84.6879657,50.4054687 84.2258121,50.2794934 83.9079395,50.027539 C83.5900668,49.7755846 83.3871879,49.4020532 83.2992969,48.9069335 Z M89.6027539,49.5924804 L89.7170117,50.2912109 C89.4943544,50.3380861 89.2951376,50.3615234 89.1193555,50.3615234 C88.8322447,50.3615234 88.6095906,50.3161137 88.4513867,50.2252929 C88.2931828,50.1344722 88.1818558,50.0150886 88.1174023,49.8671386 C88.0529489,49.7191887 88.0207227,49.4079125 88.0207227,48.9333007 L88.0207227,46.2482421 L87.4406445,46.2482421 L87.4406445,45.6330078 L88.0207227,45.6330078 L88.0207227,44.477246 L88.8073438,44.0026367 L88.8073438,45.6330078 L89.6027539,45.6330078 L89.6027539,46.2482421 L88.8073438,46.2482421 L88.8073438,48.977246 C88.8073438,49.2028331 88.8212596,49.3478512 88.8490918,49.4123046 C88.876924,49.4767581 88.9223337,49.5280271 88.9853223,49.5661132 C89.0483109,49.6041994 89.1383979,49.6232421 89.2555859,49.6232421 C89.343477,49.6232421 89.4591985,49.6129883 89.6027539,49.5924804 Z M93.3310156,48.7970703 L94.1483984,48.8981445 C94.0194915,49.3756859 93.7807244,49.7462877 93.4320898,50.0099609 C93.0834553,50.2736341 92.6381472,50.4054687 92.0961523,50.4054687 C91.4135317,50.4054687 90.8722774,50.1952657 90.472373,49.7748535 C90.0724687,49.3544412 89.8725195,48.7648475 89.8725195,48.0060546 C89.8725195,47.2208945 90.0746659,46.6115256 90.4789648,46.1779296 C90.8832637,45.7443337 91.4076726,45.527539 92.052207,45.527539 C92.6762336,45.527539 93.1859941,45.7399392 93.5815039,46.164746 C93.9770137,46.5895529 94.1747656,47.1872031 94.1747656,47.9577148 C94.1747656,48.00459 94.1733008,48.0749018 94.1703711,48.1686523 L90.6899023,48.1686523 C90.7191994,48.6813502 90.8642174,49.0739244 91.1249609,49.3463867 C91.3857044,49.618849 91.7108965,49.7550781 92.1005469,49.7550781 C92.3905874,49.7550781 92.6381435,49.678907 92.8432227,49.5265625 C93.0483018,49.3742179 93.2108978,49.1310563 93.3310156,48.7970703 Z M90.7338477,47.5182617 L93.3398047,47.5182617 C93.3046483,47.1256816 93.2050399,46.8312509 93.0409766,46.6349609 C92.7890222,46.3302719 92.4623653,46.1779296 92.0609961,46.1779296 C91.697713,46.1779296 91.3922962,46.2995105 91.1447363,46.5426757 C90.8971765,46.785841 90.760215,47.1110331 90.7338477,47.5182617 Z M94.8927734,50.3 L94.8927734,45.6330078 L95.6046875,45.6330078 L95.6046875,46.3405273 C95.786329,46.009471 95.954052,45.7912114 96.1078613,45.6857421 C96.2616707,45.5802729 96.4308585,45.527539 96.6154297,45.527539 C96.8820326,45.527539 97.153026,45.6124991 97.428418,45.7824218 L97.155957,46.5163085 C96.9625967,46.4020502 96.7692392,46.3449218 96.5758789,46.3449218 C96.4030265,46.3449218 96.2477546,46.3969233 96.1100586,46.5009277 C95.9723626,46.6049321 95.874219,46.7492178 95.815625,46.933789 C95.7277339,47.2150404 95.6837891,47.5226545 95.6837891,47.8566406 L95.6837891,50.3 L94.8927734,50.3 Z" id="Send+-Master" fill="#000000"></path>
        <path d="M71.4042969,89.9301758 L72.2084961,89.8598633 C72.2465822,90.1821305 72.3352044,90.4465322 72.4743652,90.6530762 C72.6135261,90.8596202 72.8295884,91.0266107 73.1225586,91.1540527 C73.4155288,91.2814948 73.7451154,91.3452148 74.1113281,91.3452148 C74.4365251,91.3452148 74.7236316,91.2968755 74.9726562,91.2001953 C75.2216809,91.1035151 75.4069818,90.9709481 75.5285645,90.8024902 C75.6501471,90.6340324 75.7109375,90.4501963 75.7109375,90.2509766 C75.7109375,90.0488271 75.6523443,89.8723152 75.5351562,89.7214355 C75.4179682,89.5705559 75.2246107,89.4438482 74.9550781,89.3413086 C74.7822257,89.2739254 74.3999053,89.1691902 73.8081055,89.0270996 C73.2163056,88.8850091 72.801759,88.7509772 72.5644531,88.625 C72.2568344,88.4638664 72.0275886,88.2639172 71.876709,88.0251465 C71.7258293,87.7863758 71.6503906,87.5190444 71.6503906,87.2231445 C71.6503906,86.8979476 71.7426749,86.5939956 71.9272461,86.3112793 C72.1118173,86.028563 72.3813459,85.8139656 72.7358398,85.6674805 C73.0903338,85.5209954 73.4843728,85.4477539 73.9179688,85.4477539 C74.3955102,85.4477539 74.8166486,85.5246574 75.1813965,85.6784668 C75.5461444,85.8322762 75.8266592,86.0585923 76.0229492,86.3574219 C76.2192393,86.6562515 76.324707,86.994627 76.3393555,87.3725586 L75.5219727,87.434082 C75.4780271,87.0268534 75.329347,86.7192393 75.0759277,86.5112305 C74.8225085,86.3032216 74.4482447,86.1992188 73.953125,86.1992188 C73.4374974,86.1992188 73.0617688,86.2937002 72.8259277,86.482666 C72.5900867,86.6716318 72.472168,86.8994127 72.472168,87.1660156 C72.472168,87.3974621 72.5556632,87.5878899 72.7226562,87.7373047 C72.8867196,87.8867195 73.3151821,88.0397941 74.0080566,88.1965332 C74.7009312,88.3532723 75.1762682,88.4902338 75.434082,88.6074219 C75.8090839,88.7802743 76.0859366,88.9992663 76.2646484,89.2644043 C76.4433603,89.5295423 76.5327148,89.8349592 76.5327148,90.1806641 C76.5327148,90.5234392 76.4345713,90.846434 76.2382812,91.1496582 C76.0419912,91.4528824 75.7600116,91.6887199 75.392334,91.8571777 C75.0246564,92.0256356 74.6108421,92.1098633 74.1508789,92.1098633 C73.5678682,92.1098633 73.0793477,92.0249032 72.6853027,91.8549805 C72.2912578,91.6850577 71.9821789,91.4294451 71.7580566,91.0881348 C71.5339344,90.7468245 71.4160157,90.360842 71.4042969,89.9301758 Z M80.7510156,90.4970703 L81.5683984,90.5981445 C81.4394915,91.075686 81.2007244,91.4462877 80.8520898,91.7099609 C80.5034553,91.9736341 80.0581472,92.1054688 79.5161523,92.1054688 C78.8335317,92.1054688 78.2922774,91.8952658 77.892373,91.4748535 C77.4924687,91.0544413 77.2925195,90.4648475 77.2925195,89.7060547 C77.2925195,88.9208945 77.4946659,88.3115256 77.8989648,87.8779297 C78.3032637,87.4443338 78.8276726,87.2275391 79.472207,87.2275391 C80.0962336,87.2275391 80.6059941,87.4399393 81.0015039,87.8647461 C81.3970137,88.2895529 81.5947656,88.8872032 81.5947656,89.6577148 C81.5947656,89.7045901 81.5933008,89.7749019 81.5903711,89.8686523 L78.1099023,89.8686523 C78.1391994,90.3813502 78.2842174,90.7739244 78.5449609,91.0463867 C78.8057044,91.318849 79.1308965,91.4550781 79.5205469,91.4550781 C79.8105874,91.4550781 80.0581435,91.378907 80.2632227,91.2265625 C80.4683018,91.074218 80.6308978,90.8310564 80.7510156,90.4970703 Z M78.1538477,89.2182617 L80.7598047,89.2182617 C80.7246483,88.8256816 80.6250399,88.531251 80.4609766,88.3349609 C80.2090222,88.0302719 79.8823653,87.8779297 79.4809961,87.8779297 C79.117713,87.8779297 78.8122962,87.9995105 78.5647363,88.2426758 C78.3171765,88.4858411 78.180215,88.8110331 78.1538477,89.2182617 Z M82.5215625,92 L82.5215625,87.3330078 L83.2334766,87.3330078 L83.2334766,87.996582 C83.5762517,87.4838842 84.071364,87.2275391 84.7188281,87.2275391 C85.0000795,87.2275391 85.2586219,87.2780757 85.4944629,87.3791504 C85.7303039,87.4802251 85.9068158,87.6127921 86.0240039,87.7768555 C86.141192,87.9409188 86.2232224,88.1357411 86.2700977,88.3613281 C86.2993947,88.5078132 86.314043,88.7641583 86.314043,89.1303711 L86.314043,92 L85.5230273,92 L85.5230273,89.1611328 C85.5230273,88.8388656 85.4922659,88.5979012 85.4307422,88.4382324 C85.3692184,88.2785637 85.2600887,88.1511235 85.1033496,88.0559082 C84.9466105,87.9606929 84.7627745,87.9130859 84.5518359,87.9130859 C84.2149202,87.9130859 83.9241516,88.0200185 83.6795215,88.2338867 C83.4348914,88.447755 83.3125781,88.8535126 83.3125781,89.4511719 L83.3125781,92 L82.5215625,92 Z M90.5147656,92 L90.5147656,91.4111328 C90.2188657,91.8740258 89.7838115,92.1054688 89.2095898,92.1054688 C88.8375177,92.1054688 88.4954801,92.0029307 88.1834668,91.7978516 C87.8714535,91.5927724 87.6297567,91.3063983 87.4583691,90.9387207 C87.2869816,90.5710431 87.2012891,90.1484399 87.2012891,89.6708984 C87.2012891,89.2050758 87.278925,88.7824726 87.4341992,88.4030762 C87.5894734,88.0236797 87.8223813,87.7329112 88.1329297,87.5307617 C88.4434781,87.3286123 88.7906426,87.2275391 89.1744336,87.2275391 C89.455685,87.2275391 89.7061708,87.2868646 89.9258984,87.4055176 C90.1456261,87.5241705 90.3243353,87.67871 90.4620313,87.8691406 L90.4620313,85.5576172 L91.2486523,85.5576172 L91.2486523,92 L90.5147656,92 Z M88.0142773,89.6708984 C88.0142773,90.2685577 88.1402526,90.7153306 88.392207,91.0112305 C88.6441614,91.3071304 88.9415217,91.4550781 89.2842969,91.4550781 C89.6300017,91.4550781 89.9237,91.3137221 90.1654004,91.0310059 C90.4071008,90.7482896 90.5279492,90.3168974 90.5279492,89.7368164 C90.5279492,89.0981413 90.4049036,88.629396 90.1588086,88.3305664 C89.9127136,88.0317368 89.609494,87.8823242 89.2491406,87.8823242 C88.8975764,87.8823242 88.6038781,88.0258775 88.3680371,88.3129883 C88.1321961,88.6000991 88.0142773,89.0527313 88.0142773,89.6708984 Z M94.1134375,90.9584961 L94.1134375,89.1918945 L92.3600195,89.1918945 L92.3600195,88.4536133 L94.1134375,88.4536133 L94.1134375,86.7001953 L94.8605078,86.7001953 L94.8605078,88.4536133 L96.6139258,88.4536133 L96.6139258,89.1918945 L94.8605078,89.1918945 L94.8605078,90.9584961 L94.1134375,90.9584961 Z M71.6679688,103.3 L71.6679688,96.8576171 L72.9511719,96.8576171 L74.4760742,101.419141 C74.6166999,101.843947 74.719238,102.161815 74.7836914,102.372754 C74.856934,102.138378 74.9711906,101.794143 75.1264648,101.340039 L76.6689453,96.8576171 L77.815918,96.8576171 L77.815918,103.3 L76.9941406,103.3 L76.9941406,97.9079101 L75.1220703,103.3 L74.3530273,103.3 L72.4897461,97.815625 L72.4897461,103.3 L71.6679688,103.3 Z M81.8957422,102.724316 C81.602772,102.973341 81.3207924,103.149121 81.0497949,103.25166 C80.7787975,103.3542 80.4880289,103.405469 80.1774805,103.405469 C79.6647826,103.405469 79.2707436,103.280226 78.9953516,103.029736 C78.7199596,102.779247 78.5822656,102.459182 78.5822656,102.069531 C78.5822656,101.841014 78.6342671,101.632276 78.7382715,101.44331 C78.8422759,101.254345 78.978505,101.102735 79.1469629,100.988477 C79.3154208,100.874218 79.5051161,100.787793 79.7160547,100.729199 C79.8713289,100.688183 80.1057016,100.648633 80.4191797,100.610547 C81.0578548,100.534375 81.5280649,100.443555 81.8298242,100.338086 C81.8327539,100.229687 81.8342188,100.16084 81.8342188,100.131543 C81.8342188,99.8092757 81.7595125,99.5822272 81.6100977,99.4503906 C81.4079482,99.2716787 81.1076582,99.1823242 80.7092188,99.1823242 C80.3371466,99.1823242 80.0624911,99.2475091 79.8852441,99.3778808 C79.7079972,99.5082526 79.576895,99.7389631 79.4919336,100.070019 L78.7184961,99.9645507 C78.7888089,99.6334944 78.9045304,99.3661631 79.0656641,99.1625488 C79.2267977,98.9589345 79.4597055,98.8021978 79.7643945,98.6923339 C80.0690836,98.5824701 80.4221074,98.527539 80.8234766,98.527539 C81.2219161,98.527539 81.5456433,98.5744135 81.794668,98.668164 C82.0436927,98.7619145 82.2267963,98.8798332 82.3439844,99.0219238 C82.4611725,99.1640143 82.5432029,99.3434559 82.5900781,99.5602539 C82.6164454,99.6950202 82.6296289,99.9381818 82.6296289,100.289746 L82.6296289,101.344434 C82.6296289,102.079789 82.6464744,102.544872 82.680166,102.739697 C82.7138576,102.934522 82.7805073,103.121288 82.8801172,103.3 L82.0539453,103.3 C81.9719137,103.135937 81.9191798,102.944044 81.8957422,102.724316 Z M81.8298242,100.957715 C81.5427134,101.074903 81.1120537,101.174511 80.537832,101.256543 C80.2126351,101.303418 79.9826569,101.356152 79.8478906,101.414746 C79.7131243,101.47334 79.6091215,101.559033 79.5358789,101.671826 C79.4626364,101.78462 79.4260156,101.909863 79.4260156,102.047559 C79.4260156,102.258497 79.5058488,102.434277 79.6655176,102.574902 C79.8251863,102.715528 80.0588266,102.78584 80.3664453,102.78584 C80.6711343,102.78584 80.9421277,102.71919 81.1794336,102.585889 C81.4167395,102.452587 81.5910541,102.270216 81.7023828,102.038769 C81.7873442,101.860058 81.8298242,101.596388 81.8298242,101.247754 L81.8298242,100.957715 Z M83.2992969,101.906934 L84.0815234,101.783887 C84.125469,102.097365 84.2477822,102.337597 84.4484668,102.50459 C84.6491514,102.671583 84.9296662,102.755078 85.2900195,102.755078 C85.6533026,102.755078 85.9228312,102.681104 86.0986133,102.533154 C86.2743954,102.385204 86.3622852,102.211622 86.3622852,102.012402 C86.3622852,101.83369 86.2846492,101.693067 86.129375,101.590527 C86.020976,101.520214 85.7514475,101.43086 85.3207812,101.322461 C84.7407002,101.175976 84.3386046,101.049268 84.1144824,100.942334 C83.8903602,100.8354 83.72044,100.687452 83.6047168,100.498486 C83.4889936,100.30952 83.4311328,100.100782 83.4311328,99.8722656 C83.4311328,99.6642567 83.4787398,99.4716317 83.5739551,99.2943847 C83.6691704,99.1171377 83.7988078,98.9699224 83.9628711,98.8527343 C84.0859186,98.7619136 84.2536415,98.68501 84.4660449,98.6220214 C84.6784483,98.5590328 84.9062293,98.527539 85.1493945,98.527539 C85.5156073,98.527539 85.8371373,98.5802729 86.1139941,98.6857421 C86.390851,98.7912114 86.5951947,98.9340323 86.7270312,99.1142089 C86.8588678,99.2943856 86.9496873,99.53535 86.9994922,99.8371093 L86.2260547,99.9425781 C86.1908983,99.7023425 86.0890926,99.5148444 85.9206348,99.3800781 C85.7521769,99.2453118 85.5141422,99.1779296 85.2065234,99.1779296 C84.8432404,99.1779296 84.5839656,99.2379876 84.4286914,99.3581054 C84.2734172,99.4782232 84.1957812,99.6188468 84.1957812,99.7799804 C84.1957812,99.88252 84.2280075,99.9748042 84.2924609,100.056836 C84.3569144,100.141797 84.4579876,100.212109 84.5956836,100.267773 C84.6747856,100.29707 84.9076934,100.364453 85.2944141,100.469922 C85.8539872,100.619337 86.2443641,100.74165 86.4655566,100.836865 C86.6867492,100.932081 86.8603314,101.070507 86.9863086,101.252148 C87.1122858,101.43379 87.1752734,101.659374 87.1752734,101.928906 C87.1752734,102.192579 87.0983699,102.440868 86.9445605,102.673779 C86.7907512,102.906691 86.5688296,103.086865 86.2787891,103.214307 C85.9887485,103.341749 85.6606268,103.405469 85.2944141,103.405469 C84.6879657,103.405469 84.2258121,103.279493 83.9079395,103.027539 C83.5900668,102.775585 83.3871879,102.402053 83.2992969,101.906934 Z M89.6027539,102.59248 L89.7170117,103.291211 C89.4943544,103.338086 89.2951376,103.361523 89.1193555,103.361523 C88.8322447,103.361523 88.6095906,103.316114 88.4513867,103.225293 C88.2931828,103.134472 88.1818558,103.015089 88.1174023,102.867139 C88.0529489,102.719189 88.0207227,102.407912 88.0207227,101.933301 L88.0207227,99.2482421 L87.4406445,99.2482421 L87.4406445,98.6330078 L88.0207227,98.6330078 L88.0207227,97.477246 L88.8073438,97.0026367 L88.8073438,98.6330078 L89.6027539,98.6330078 L89.6027539,99.2482421 L88.8073438,99.2482421 L88.8073438,101.977246 C88.8073438,102.202833 88.8212596,102.347851 88.8490918,102.412305 C88.876924,102.476758 88.9223337,102.528027 88.9853223,102.566113 C89.0483109,102.604199 89.1383979,102.623242 89.2555859,102.623242 C89.343477,102.623242 89.4591985,102.612988 89.6027539,102.59248 Z M93.3310156,101.79707 L94.1483984,101.898144 C94.0194915,102.375686 93.7807244,102.746288 93.4320898,103.009961 C93.0834553,103.273634 92.6381472,103.405469 92.0961523,103.405469 C91.4135317,103.405469 90.8722774,103.195266 90.472373,102.774853 C90.0724687,102.354441 89.8725195,101.764847 89.8725195,101.006055 C89.8725195,100.220894 90.0746659,99.6115256 90.4789648,99.1779296 C90.8832637,98.7443337 91.4076726,98.527539 92.052207,98.527539 C92.6762336,98.527539 93.1859941,98.7399392 93.5815039,99.164746 C93.9770137,99.5895529 94.1747656,100.187203 94.1747656,100.957715 C94.1747656,101.00459 94.1733008,101.074902 94.1703711,101.168652 L90.6899023,101.168652 C90.7191994,101.68135 90.8642174,102.073924 91.1249609,102.346387 C91.3857044,102.618849 91.7108965,102.755078 92.1005469,102.755078 C92.3905874,102.755078 92.6381435,102.678907 92.8432227,102.526562 C93.0483018,102.374218 93.2108978,102.131056 93.3310156,101.79707 Z M90.7338477,100.518262 L93.3398047,100.518262 C93.3046483,100.125682 93.2050399,99.8312509 93.0409766,99.6349609 C92.7890222,99.3302719 92.4623653,99.1779296 92.0609961,99.1779296 C91.697713,99.1779296 91.3922962,99.2995105 91.1447363,99.5426757 C90.8971765,99.785841 90.760215,100.111033 90.7338477,100.518262 Z M94.8927734,103.3 L94.8927734,98.6330078 L95.6046875,98.6330078 L95.6046875,99.3405273 C95.786329,99.009471 95.954052,98.7912114 96.1078613,98.6857421 C96.2616707,98.5802729 96.4308585,98.527539 96.6154297,98.527539 C96.8820326,98.527539 97.153026,98.6124991 97.428418,98.7824218 L97.155957,99.5163085 C96.9625967,99.4020502 96.7692392,99.3449218 96.5758789,99.3449218 C96.4030265,99.3449218 96.2477546,99.3969233 96.1100586,99.5009277 C95.9723626,99.6049321 95.874219,99.7492178 95.815625,99.933789 C95.7277339,100.21504 95.6837891,100.522655 95.6837891,100.856641 L95.6837891,103.3 L94.8927734,103.3 Z" id="Send+-Master" fill="#000000"></path>
        <path d="M71.4042969,63.9301758 L72.2084961,63.8598633 C72.2465822,64.1821305 72.3352044,64.4465322 72.4743652,64.6530762 C72.6135261,64.8596202 72.8295884,65.0266107 73.1225586,65.1540527 C73.4155288,65.2814948 73.7451154,65.3452148 74.1113281,65.3452148 C74.4365251,65.3452148 74.7236316,65.2968755 74.9726562,65.2001953 C75.2216809,65.1035151 75.4069818,64.9709481 75.5285645,64.8024902 C75.6501471,64.6340324 75.7109375,64.4501963 75.7109375,64.2509766 C75.7109375,64.0488271 75.6523443,63.8723152 75.5351562,63.7214355 C75.4179682,63.5705559 75.2246107,63.4438482 74.9550781,63.3413086 C74.7822257,63.2739254 74.3999053,63.1691902 73.8081055,63.0270996 C73.2163056,62.8850091 72.801759,62.7509772 72.5644531,62.625 C72.2568344,62.4638664 72.0275886,62.2639172 71.876709,62.0251465 C71.7258293,61.7863758 71.6503906,61.5190444 71.6503906,61.2231445 C71.6503906,60.8979476 71.7426749,60.5939956 71.9272461,60.3112793 C72.1118173,60.028563 72.3813459,59.8139656 72.7358398,59.6674805 C73.0903338,59.5209954 73.4843728,59.4477539 73.9179688,59.4477539 C74.3955102,59.4477539 74.8166486,59.5246574 75.1813965,59.6784668 C75.5461444,59.8322762 75.8266592,60.0585923 76.0229492,60.3574219 C76.2192393,60.6562515 76.324707,60.994627 76.3393555,61.3725586 L75.5219727,61.434082 C75.4780271,61.0268534 75.329347,60.7192393 75.0759277,60.5112305 C74.8225085,60.3032216 74.4482447,60.1992188 73.953125,60.1992188 C73.4374974,60.1992188 73.0617688,60.2937002 72.8259277,60.482666 C72.5900867,60.6716318 72.472168,60.8994127 72.472168,61.1660156 C72.472168,61.3974621 72.5556632,61.5878899 72.7226562,61.7373047 C72.8867196,61.8867195 73.3151821,62.0397941 74.0080566,62.1965332 C74.7009312,62.3532723 75.1762682,62.4902338 75.434082,62.6074219 C75.8090839,62.7802743 76.0859366,62.9992663 76.2646484,63.2644043 C76.4433603,63.5295423 76.5327148,63.8349592 76.5327148,64.1806641 C76.5327148,64.5234392 76.4345713,64.846434 76.2382812,65.1496582 C76.0419912,65.4528824 75.7600116,65.6887199 75.392334,65.8571777 C75.0246564,66.0256356 74.6108421,66.1098633 74.1508789,66.1098633 C73.5678682,66.1098633 73.0793477,66.0249032 72.6853027,65.8549805 C72.2912578,65.6850577 71.9821789,65.4294451 71.7580566,65.0881348 C71.5339344,64.7468245 71.4160157,64.360842 71.4042969,63.9301758 Z M80.7510156,64.4970703 L81.5683984,64.5981445 C81.4394915,65.075686 81.2007244,65.4462877 80.8520898,65.7099609 C80.5034553,65.9736341 80.0581472,66.1054688 79.5161523,66.1054688 C78.8335317,66.1054688 78.2922774,65.8952658 77.892373,65.4748535 C77.4924687,65.0544413 77.2925195,64.4648475 77.2925195,63.7060547 C77.2925195,62.9208945 77.4946659,62.3115256 77.8989648,61.8779297 C78.3032637,61.4443338 78.8276726,61.2275391 79.472207,61.2275391 C80.0962336,61.2275391 80.6059941,61.4399393 81.0015039,61.8647461 C81.3970137,62.2895529 81.5947656,62.8872032 81.5947656,63.6577148 C81.5947656,63.7045901 81.5933008,63.7749019 81.5903711,63.8686523 L78.1099023,63.8686523 C78.1391994,64.3813502 78.2842174,64.7739244 78.5449609,65.0463867 C78.8057044,65.318849 79.1308965,65.4550781 79.5205469,65.4550781 C79.8105874,65.4550781 80.0581435,65.378907 80.2632227,65.2265625 C80.4683018,65.074218 80.6308978,64.8310564 80.7510156,64.4970703 Z M78.1538477,63.2182617 L80.7598047,63.2182617 C80.7246483,62.8256816 80.6250399,62.531251 80.4609766,62.3349609 C80.2090222,62.0302719 79.8823653,61.8779297 79.4809961,61.8779297 C79.117713,61.8779297 78.8122962,61.9995105 78.5647363,62.2426758 C78.3171765,62.4858411 78.180215,62.8110331 78.1538477,63.2182617 Z M82.5215625,66 L82.5215625,61.3330078 L83.2334766,61.3330078 L83.2334766,61.996582 C83.5762517,61.4838842 84.071364,61.2275391 84.7188281,61.2275391 C85.0000795,61.2275391 85.2586219,61.2780757 85.4944629,61.3791504 C85.7303039,61.4802251 85.9068158,61.6127921 86.0240039,61.7768555 C86.141192,61.9409188 86.2232224,62.1357411 86.2700977,62.3613281 C86.2993947,62.5078132 86.314043,62.7641583 86.314043,63.1303711 L86.314043,66 L85.5230273,66 L85.5230273,63.1611328 C85.5230273,62.8388656 85.4922659,62.5979012 85.4307422,62.4382324 C85.3692184,62.2785637 85.2600887,62.1511235 85.1033496,62.0559082 C84.9466105,61.9606929 84.7627745,61.9130859 84.5518359,61.9130859 C84.2149202,61.9130859 83.9241516,62.0200185 83.6795215,62.2338867 C83.4348914,62.447755 83.3125781,62.8535126 83.3125781,63.4511719 L83.3125781,66 L82.5215625,66 Z M90.5147656,66 L90.5147656,65.4111328 C90.2188657,65.8740258 89.7838115,66.1054688 89.2095898,66.1054688 C88.8375177,66.1054688 88.4954801,66.0029307 88.1834668,65.7978516 C87.8714535,65.5927724 87.6297567,65.3063983 87.4583691,64.9387207 C87.2869816,64.5710431 87.2012891,64.1484399 87.2012891,63.6708984 C87.2012891,63.2050758 87.278925,62.7824726 87.4341992,62.4030762 C87.5894734,62.0236797 87.8223813,61.7329112 88.1329297,61.5307617 C88.4434781,61.3286123 88.7906426,61.2275391 89.1744336,61.2275391 C89.455685,61.2275391 89.7061708,61.2868646 89.9258984,61.4055176 C90.1456261,61.5241705 90.3243353,61.67871 90.4620313,61.8691406 L90.4620313,59.5576172 L91.2486523,59.5576172 L91.2486523,66 L90.5147656,66 Z M88.0142773,63.6708984 C88.0142773,64.2685577 88.1402526,64.7153306 88.392207,65.0112305 C88.6441614,65.3071304 88.9415217,65.4550781 89.2842969,65.4550781 C89.6300017,65.4550781 89.9237,65.3137221 90.1654004,65.0310059 C90.4071008,64.7482896 90.5279492,64.3168974 90.5279492,63.7368164 C90.5279492,63.0981413 90.4049036,62.629396 90.1588086,62.3305664 C89.9127136,62.0317368 89.609494,61.8823242 89.2491406,61.8823242 C88.8975764,61.8823242 88.6038781,62.0258775 88.3680371,62.3129883 C88.1321961,62.6000991 88.0142773,63.0527313 88.0142773,63.6708984 Z M94.1134375,64.9584961 L94.1134375,63.1918945 L92.3600195,63.1918945 L92.3600195,62.4536133 L94.1134375,62.4536133 L94.1134375,60.7001953 L94.8605078,60.7001953 L94.8605078,62.4536133 L96.6139258,62.4536133 L96.6139258,63.1918945 L94.8605078,63.1918945 L94.8605078,64.9584961 L94.1134375,64.9584961 Z M71.6679688,77.3 L71.6679688,70.8576171 L72.9511719,70.8576171 L74.4760742,75.4191406 C74.6166999,75.8439474 74.719238,76.1618153 74.7836914,76.3727539 C74.856934,76.1383777 74.9711906,75.7941428 75.1264648,75.340039 L76.6689453,70.8576171 L77.815918,70.8576171 L77.815918,77.3 L76.9941406,77.3 L76.9941406,71.9079101 L75.1220703,77.3 L74.3530273,77.3 L72.4897461,71.815625 L72.4897461,77.3 L71.6679688,77.3 Z M81.8957422,76.7243164 C81.602772,76.973341 81.3207924,77.1491205 81.0497949,77.2516601 C80.7787975,77.3541997 80.4880289,77.4054687 80.1774805,77.4054687 C79.6647826,77.4054687 79.2707436,77.2802258 78.9953516,77.0297363 C78.7199596,76.7792467 78.5822656,76.4591816 78.5822656,76.0695312 C78.5822656,75.8410144 78.6342671,75.6322763 78.7382715,75.4433105 C78.8422759,75.2543447 78.978505,75.1027349 79.1469629,74.9884765 C79.3154208,74.8742181 79.5051161,74.7877932 79.7160547,74.7291992 C79.8713289,74.6881833 80.1057016,74.648633 80.4191797,74.6105468 C81.0578548,74.5343746 81.5280649,74.4435552 81.8298242,74.3380859 C81.8327539,74.2296869 81.8342188,74.1608399 81.8342188,74.1315429 C81.8342188,73.8092757 81.7595125,73.5822272 81.6100977,73.4503906 C81.4079482,73.2716787 81.1076582,73.1823242 80.7092188,73.1823242 C80.3371466,73.1823242 80.0624911,73.2475091 79.8852441,73.3778808 C79.7079972,73.5082526 79.576895,73.7389631 79.4919336,74.0700195 L78.7184961,73.9645507 C78.7888089,73.6334944 78.9045304,73.3661631 79.0656641,73.1625488 C79.2267977,72.9589345 79.4597055,72.8021978 79.7643945,72.6923339 C80.0690836,72.5824701 80.4221074,72.527539 80.8234766,72.527539 C81.2219161,72.527539 81.5456433,72.5744135 81.794668,72.668164 C82.0436927,72.7619145 82.2267963,72.8798332 82.3439844,73.0219238 C82.4611725,73.1640143 82.5432029,73.3434559 82.5900781,73.5602539 C82.6164454,73.6950202 82.6296289,73.9381818 82.6296289,74.289746 L82.6296289,75.3444335 C82.6296289,76.0797888 82.6464744,76.544872 82.680166,76.7396972 C82.7138576,76.9345224 82.7805073,77.1212881 82.8801172,77.3 L82.0539453,77.3 C81.9719137,77.1359366 81.9191798,76.944044 81.8957422,76.7243164 Z M81.8298242,74.9577148 C81.5427134,75.0749029 81.1120537,75.1745113 80.537832,75.2565429 C80.2126351,75.3034182 79.9826569,75.356152 79.8478906,75.414746 C79.7131243,75.4733401 79.6091215,75.5590326 79.5358789,75.6718261 C79.4626364,75.7846197 79.4260156,75.9098625 79.4260156,76.0475585 C79.4260156,76.2584971 79.5058488,76.4342766 79.6655176,76.5749023 C79.8251863,76.715528 80.0588266,76.7858398 80.3664453,76.7858398 C80.6711343,76.7858398 80.9421277,76.7191901 81.1794336,76.5858886 C81.4167395,76.4525872 81.5910541,76.270216 81.7023828,76.0387695 C81.7873442,75.8600577 81.8298242,75.5963884 81.8298242,75.2477539 L81.8298242,74.9577148 Z M83.2992969,75.9069335 L84.0815234,75.7838867 C84.125469,76.0973648 84.2477822,76.3375968 84.4484668,76.5045898 C84.6491514,76.6715828 84.9296662,76.7550781 85.2900195,76.7550781 C85.6533026,76.7550781 85.9228312,76.6811042 86.0986133,76.5331542 C86.2743954,76.3852043 86.3622852,76.211622 86.3622852,76.0124023 C86.3622852,75.8336905 86.2846492,75.6930669 86.129375,75.5905273 C86.020976,75.5202144 85.7514475,75.4308599 85.3207812,75.3224609 C84.7407002,75.1759758 84.3386046,75.0492681 84.1144824,74.9423339 C83.8903602,74.8353998 83.72044,74.6874521 83.6047168,74.4984863 C83.4889936,74.3095205 83.4311328,74.1007823 83.4311328,73.8722656 C83.4311328,73.6642567 83.4787398,73.4716317 83.5739551,73.2943847 C83.6691704,73.1171377 83.7988078,72.9699224 83.9628711,72.8527343 C84.0859186,72.7619136 84.2536415,72.68501 84.4660449,72.6220214 C84.6784483,72.5590328 84.9062293,72.527539 85.1493945,72.527539 C85.5156073,72.527539 85.8371373,72.5802729 86.1139941,72.6857421 C86.390851,72.7912114 86.5951947,72.9340323 86.7270312,73.1142089 C86.8588678,73.2943856 86.9496873,73.53535 86.9994922,73.8371093 L86.2260547,73.9425781 C86.1908983,73.7023425 86.0890926,73.5148444 85.9206348,73.3800781 C85.7521769,73.2453118 85.5141422,73.1779296 85.2065234,73.1779296 C84.8432404,73.1779296 84.5839656,73.2379876 84.4286914,73.3581054 C84.2734172,73.4782232 84.1957812,73.6188468 84.1957812,73.7799804 C84.1957812,73.88252 84.2280075,73.9748042 84.2924609,74.0568359 C84.3569144,74.1417973 84.4579876,74.212109 84.5956836,74.2677734 C84.6747856,74.2970704 84.9076934,74.3644525 85.2944141,74.4699218 C85.8539872,74.6193366 86.2443641,74.7416499 86.4655566,74.8368652 C86.6867492,74.9320805 86.8603314,75.0705069 86.9863086,75.2521484 C87.1122858,75.4337899 87.1752734,75.6593736 87.1752734,75.9289062 C87.1752734,76.1925794 87.0983699,76.4408679 86.9445605,76.6737792 C86.7907512,76.9066906 86.5688296,77.0868645 86.2787891,77.2143066 C85.9887485,77.3417486 85.6606268,77.4054687 85.2944141,77.4054687 C84.6879657,77.4054687 84.2258121,77.2794934 83.9079395,77.027539 C83.5900668,76.7755846 83.3871879,76.4020532 83.2992969,75.9069335 Z M89.6027539,76.5924804 L89.7170117,77.2912109 C89.4943544,77.3380861 89.2951376,77.3615234 89.1193555,77.3615234 C88.8322447,77.3615234 88.6095906,77.3161137 88.4513867,77.2252929 C88.2931828,77.1344722 88.1818558,77.0150886 88.1174023,76.8671386 C88.0529489,76.7191887 88.0207227,76.4079125 88.0207227,75.9333007 L88.0207227,73.2482421 L87.4406445,73.2482421 L87.4406445,72.6330078 L88.0207227,72.6330078 L88.0207227,71.477246 L88.8073438,71.0026367 L88.8073438,72.6330078 L89.6027539,72.6330078 L89.6027539,73.2482421 L88.8073438,73.2482421 L88.8073438,75.977246 C88.8073438,76.2028331 88.8212596,76.3478512 88.8490918,76.4123046 C88.876924,76.4767581 88.9223337,76.5280271 88.9853223,76.5661132 C89.0483109,76.6041994 89.1383979,76.6232421 89.2555859,76.6232421 C89.343477,76.6232421 89.4591985,76.6129883 89.6027539,76.5924804 Z M93.3310156,75.7970703 L94.1483984,75.8981445 C94.0194915,76.3756859 93.7807244,76.7462877 93.4320898,77.0099609 C93.0834553,77.2736341 92.6381472,77.4054687 92.0961523,77.4054687 C91.4135317,77.4054687 90.8722774,77.1952657 90.472373,76.7748535 C90.0724687,76.3544412 89.8725195,75.7648475 89.8725195,75.0060546 C89.8725195,74.2208945 90.0746659,73.6115256 90.4789648,73.1779296 C90.8832637,72.7443337 91.4076726,72.527539 92.052207,72.527539 C92.6762336,72.527539 93.1859941,72.7399392 93.5815039,73.164746 C93.9770137,73.5895529 94.1747656,74.1872031 94.1747656,74.9577148 C94.1747656,75.00459 94.1733008,75.0749018 94.1703711,75.1686523 L90.6899023,75.1686523 C90.7191994,75.6813502 90.8642174,76.0739244 91.1249609,76.3463867 C91.3857044,76.618849 91.7108965,76.7550781 92.1005469,76.7550781 C92.3905874,76.7550781 92.6381435,76.678907 92.8432227,76.5265625 C93.0483018,76.3742179 93.2108978,76.1310563 93.3310156,75.7970703 Z M90.7338477,74.5182617 L93.3398047,74.5182617 C93.3046483,74.1256816 93.2050399,73.8312509 93.0409766,73.6349609 C92.7890222,73.3302719 92.4623653,73.1779296 92.0609961,73.1779296 C91.697713,73.1779296 91.3922962,73.2995105 91.1447363,73.5426757 C90.8971765,73.785841 90.760215,74.1110331 90.7338477,74.5182617 Z M94.8927734,77.3 L94.8927734,72.6330078 L95.6046875,72.6330078 L95.6046875,73.3405273 C95.786329,73.009471 95.954052,72.7912114 96.1078613,72.6857421 C96.2616707,72.5802729 96.4308585,72.527539 96.6154297,72.527539 C96.8820326,72.527539 97.153026,72.6124991 97.428418,72.7824218 L97.155957,73.5163085 C96.9625967,73.4020502 96.7692392,73.3449218 96.5758789,73.3449218 C96.4030265,73.3449218 96.2477546,73.3969233 96.1100586,73.5009277 C95.9723626,73.6049321 95.874219,73.7492178 95.815625,73.933789 C95.7277339,74.2150404 95.6837891,74.5226545 95.6837891,74.8566406 L95.6837891,77.3 L94.8927734,77.3 Z" id="Send+-Master" fill="#000000"></path>
        <path d="M71.4042969,9.93017578 L72.2084961,9.85986328 C72.2465822,10.1821305 72.3352044,10.4465322 72.4743652,10.6530762 C72.6135261,10.8596202 72.8295884,11.0266107 73.1225586,11.1540527 C73.4155288,11.2814948 73.7451154,11.3452148 74.1113281,11.3452148 C74.4365251,11.3452148 74.7236316,11.2968755 74.9726562,11.2001953 C75.2216809,11.1035151 75.4069818,10.9709481 75.5285645,10.8024902 C75.6501471,10.6340324 75.7109375,10.4501963 75.7109375,10.2509766 C75.7109375,10.0488271 75.6523443,9.87231521 75.5351562,9.72143555 C75.4179682,9.57055589 75.2246107,9.44384817 74.9550781,9.34130859 C74.7822257,9.27392544 74.3999053,9.16919016 73.8081055,9.02709961 C73.2163056,8.88500906 72.801759,8.75097719 72.5644531,8.625 C72.2568344,8.46386638 72.0275886,8.26391721 71.876709,8.02514648 C71.7258293,7.78637576 71.6503906,7.51904445 71.6503906,7.22314453 C71.6503906,6.89794759 71.7426749,6.59399555 71.9272461,6.3112793 C72.1118173,6.02856304 72.3813459,5.81396558 72.7358398,5.66748047 C73.0903338,5.52099536 73.4843728,5.44775391 73.9179688,5.44775391 C74.3955102,5.44775391 74.8166486,5.52465743 75.1813965,5.6784668 C75.5461444,5.83227616 75.8266592,6.05859226 76.0229492,6.35742188 C76.2192393,6.65625149 76.324707,6.99462702 76.3393555,7.37255859 L75.5219727,7.43408203 C75.4780271,7.02685343 75.329347,6.71923932 75.0759277,6.51123047 C74.8225085,6.30322162 74.4482447,6.19921875 73.953125,6.19921875 C73.4374974,6.19921875 73.0617688,6.29370023 72.8259277,6.48266602 C72.5900867,6.6716318 72.472168,6.89941273 72.472168,7.16601562 C72.472168,7.39746209 72.5556632,7.58788988 72.7226562,7.73730469 C72.8867196,7.8867195 73.3151821,8.03979414 74.0080566,8.1965332 C74.7009312,8.35327227 75.1762682,8.49023379 75.434082,8.60742188 C75.8090839,8.7802743 76.0859366,8.99926625 76.2646484,9.2644043 C76.4433603,9.52954234 76.5327148,9.83495921 76.5327148,10.1806641 C76.5327148,10.5234392 76.4345713,10.846434 76.2382812,11.1496582 C76.0419912,11.4528824 75.7600116,11.6887199 75.392334,11.8571777 C75.0246564,12.0256356 74.6108421,12.1098633 74.1508789,12.1098633 C73.5678682,12.1098633 73.0793477,12.0249032 72.6853027,11.8549805 C72.2912578,11.6850577 71.9821789,11.4294451 71.7580566,11.0881348 C71.5339344,10.7468245 71.4160157,10.360842 71.4042969,9.93017578 Z M80.7510156,10.4970703 L81.5683984,10.5981445 C81.4394915,11.075686 81.2007244,11.4462877 80.8520898,11.7099609 C80.5034553,11.9736341 80.0581472,12.1054688 79.5161523,12.1054688 C78.8335317,12.1054688 78.2922774,11.8952658 77.892373,11.4748535 C77.4924687,11.0544413 77.2925195,10.4648475 77.2925195,9.70605469 C77.2925195,8.92089451 77.4946659,8.31152561 77.8989648,7.87792969 C78.3032637,7.44433377 78.8276726,7.22753906 79.472207,7.22753906 C80.0962336,7.22753906 80.6059941,7.43993928 81.0015039,7.86474609 C81.3970137,8.28955291 81.5947656,8.88720318 81.5947656,9.65771484 C81.5947656,9.70459008 81.5933008,9.77490188 81.5903711,9.86865234 L78.1099023,9.86865234 C78.1391994,10.3813502 78.2842174,10.7739244 78.5449609,11.0463867 C78.8057044,11.318849 79.1308965,11.4550781 79.5205469,11.4550781 C79.8105874,11.4550781 80.0581435,11.378907 80.2632227,11.2265625 C80.4683018,11.074218 80.6308978,10.8310564 80.7510156,10.4970703 Z M78.1538477,9.21826172 L80.7598047,9.21826172 C80.7246483,8.82568163 80.6250399,8.53125098 80.4609766,8.33496094 C80.2090222,8.03027191 79.8823653,7.87792969 79.4809961,7.87792969 C79.117713,7.87792969 78.8122962,7.9995105 78.5647363,8.24267578 C78.3171765,8.48584106 78.180215,8.81103312 78.1538477,9.21826172 Z M82.5215625,12 L82.5215625,7.33300781 L83.2334766,7.33300781 L83.2334766,7.99658203 C83.5762517,7.48388416 84.071364,7.22753906 84.7188281,7.22753906 C85.0000795,7.22753906 85.2586219,7.27807567 85.4944629,7.37915039 C85.7303039,7.48022511 85.9068158,7.61279215 86.0240039,7.77685547 C86.141192,7.94091879 86.2232224,8.13574106 86.2700977,8.36132812 C86.2993947,8.50781323 86.314043,8.76415833 86.314043,9.13037109 L86.314043,12 L85.5230273,12 L85.5230273,9.16113281 C85.5230273,8.83886558 85.4922659,8.59790119 85.4307422,8.43823242 C85.3692184,8.27856365 85.2600887,8.15112352 85.1033496,8.0559082 C84.9466105,7.96069288 84.7627745,7.91308594 84.5518359,7.91308594 C84.2149202,7.91308594 83.9241516,8.02001846 83.6795215,8.23388672 C83.4348914,8.44775498 83.3125781,8.85351264 83.3125781,9.45117188 L83.3125781,12 L82.5215625,12 Z M90.5147656,12 L90.5147656,11.4111328 C90.2188657,11.8740258 89.7838115,12.1054688 89.2095898,12.1054688 C88.8375177,12.1054688 88.4954801,12.0029307 88.1834668,11.7978516 C87.8714535,11.5927724 87.6297567,11.3063983 87.4583691,10.9387207 C87.2869816,10.5710431 87.2012891,10.1484399 87.2012891,9.67089844 C87.2012891,9.2050758 87.278925,8.7824726 87.4341992,8.40307617 C87.5894734,8.02367974 87.8223813,7.73291117 88.1329297,7.53076172 C88.4434781,7.32861227 88.7906426,7.22753906 89.1744336,7.22753906 C89.455685,7.22753906 89.7061708,7.28686464 89.9258984,7.40551758 C90.1456261,7.52417052 90.3243353,7.67870999 90.4620313,7.86914062 L90.4620313,5.55761719 L91.2486523,5.55761719 L91.2486523,12 L90.5147656,12 Z M88.0142773,9.67089844 C88.0142773,10.2685577 88.1402526,10.7153306 88.392207,11.0112305 C88.6441614,11.3071304 88.9415217,11.4550781 89.2842969,11.4550781 C89.6300017,11.4550781 89.9237,11.3137221 90.1654004,11.0310059 C90.4071008,10.7482896 90.5279492,10.3168974 90.5279492,9.73681641 C90.5279492,9.09814134 90.4049036,8.62939603 90.1588086,8.33056641 C89.9127136,8.03173679 89.609494,7.88232422 89.2491406,7.88232422 C88.8975764,7.88232422 88.6038781,8.02587747 88.3680371,8.31298828 C88.1321961,8.60009909 88.0142773,9.05273128 88.0142773,9.67089844 Z M94.1134375,10.9584961 L94.1134375,9.19189453 L92.3600195,9.19189453 L92.3600195,8.45361328 L94.1134375,8.45361328 L94.1134375,6.70019531 L94.8605078,6.70019531 L94.8605078,8.45361328 L96.6139258,8.45361328 L96.6139258,9.19189453 L94.8605078,9.19189453 L94.8605078,10.9584961 L94.1134375,10.9584961 Z M71.6679688,23.3 L71.6679688,16.8576171 L72.9511719,16.8576171 L74.4760742,21.4191406 C74.6166999,21.8439474 74.719238,22.1618153 74.7836914,22.3727539 C74.856934,22.1383777 74.9711906,21.7941428 75.1264648,21.340039 L76.6689453,16.8576171 L77.815918,16.8576171 L77.815918,23.3 L76.9941406,23.3 L76.9941406,17.9079101 L75.1220703,23.3 L74.3530273,23.3 L72.4897461,17.815625 L72.4897461,23.3 L71.6679688,23.3 Z M81.8957422,22.7243164 C81.602772,22.973341 81.3207924,23.1491205 81.0497949,23.2516601 C80.7787975,23.3541997 80.4880289,23.4054687 80.1774805,23.4054687 C79.6647826,23.4054687 79.2707436,23.2802258 78.9953516,23.0297363 C78.7199596,22.7792467 78.5822656,22.4591816 78.5822656,22.0695312 C78.5822656,21.8410144 78.6342671,21.6322763 78.7382715,21.4433105 C78.8422759,21.2543447 78.978505,21.1027349 79.1469629,20.9884765 C79.3154208,20.8742181 79.5051161,20.7877932 79.7160547,20.7291992 C79.8713289,20.6881833 80.1057016,20.648633 80.4191797,20.6105468 C81.0578548,20.5343746 81.5280649,20.4435552 81.8298242,20.3380859 C81.8327539,20.2296869 81.8342188,20.1608399 81.8342188,20.1315429 C81.8342188,19.8092757 81.7595125,19.5822272 81.6100977,19.4503906 C81.4079482,19.2716787 81.1076582,19.1823242 80.7092188,19.1823242 C80.3371466,19.1823242 80.0624911,19.2475091 79.8852441,19.3778808 C79.7079972,19.5082526 79.576895,19.7389631 79.4919336,20.0700195 L78.7184961,19.9645507 C78.7888089,19.6334944 78.9045304,19.3661631 79.0656641,19.1625488 C79.2267977,18.9589345 79.4597055,18.8021978 79.7643945,18.6923339 C80.0690836,18.5824701 80.4221074,18.527539 80.8234766,18.527539 C81.2219161,18.527539 81.5456433,18.5744135 81.794668,18.668164 C82.0436927,18.7619145 82.2267963,18.8798332 82.3439844,19.0219238 C82.4611725,19.1640143 82.5432029,19.3434559 82.5900781,19.5602539 C82.6164454,19.6950202 82.6296289,19.9381818 82.6296289,20.289746 L82.6296289,21.3444335 C82.6296289,22.0797888 82.6464744,22.544872 82.680166,22.7396972 C82.7138576,22.9345224 82.7805073,23.1212881 82.8801172,23.3 L82.0539453,23.3 C81.9719137,23.1359366 81.9191798,22.944044 81.8957422,22.7243164 Z M81.8298242,20.9577148 C81.5427134,21.0749029 81.1120537,21.1745113 80.537832,21.2565429 C80.2126351,21.3034182 79.9826569,21.356152 79.8478906,21.414746 C79.7131243,21.4733401 79.6091215,21.5590326 79.5358789,21.6718261 C79.4626364,21.7846197 79.4260156,21.9098625 79.4260156,22.0475585 C79.4260156,22.2584971 79.5058488,22.4342766 79.6655176,22.5749023 C79.8251863,22.715528 80.0588266,22.7858398 80.3664453,22.7858398 C80.6711343,22.7858398 80.9421277,22.7191901 81.1794336,22.5858886 C81.4167395,22.4525872 81.5910541,22.270216 81.7023828,22.0387695 C81.7873442,21.8600577 81.8298242,21.5963884 81.8298242,21.2477539 L81.8298242,20.9577148 Z M83.2992969,21.9069335 L84.0815234,21.7838867 C84.125469,22.0973648 84.2477822,22.3375968 84.4484668,22.5045898 C84.6491514,22.6715828 84.9296662,22.7550781 85.2900195,22.7550781 C85.6533026,22.7550781 85.9228312,22.6811042 86.0986133,22.5331542 C86.2743954,22.3852043 86.3622852,22.211622 86.3622852,22.0124023 C86.3622852,21.8336905 86.2846492,21.6930669 86.129375,21.5905273 C86.020976,21.5202144 85.7514475,21.4308599 85.3207812,21.3224609 C84.7407002,21.1759758 84.3386046,21.0492681 84.1144824,20.9423339 C83.8903602,20.8353998 83.72044,20.6874521 83.6047168,20.4984863 C83.4889936,20.3095205 83.4311328,20.1007823 83.4311328,19.8722656 C83.4311328,19.6642567 83.4787398,19.4716317 83.5739551,19.2943847 C83.6691704,19.1171377 83.7988078,18.9699224 83.9628711,18.8527343 C84.0859186,18.7619136 84.2536415,18.68501 84.4660449,18.6220214 C84.6784483,18.5590328 84.9062293,18.527539 85.1493945,18.527539 C85.5156073,18.527539 85.8371373,18.5802729 86.1139941,18.6857421 C86.390851,18.7912114 86.5951947,18.9340323 86.7270312,19.1142089 C86.8588678,19.2943856 86.9496873,19.53535 86.9994922,19.8371093 L86.2260547,19.9425781 C86.1908983,19.7023425 86.0890926,19.5148444 85.9206348,19.3800781 C85.7521769,19.2453118 85.5141422,19.1779296 85.2065234,19.1779296 C84.8432404,19.1779296 84.5839656,19.2379876 84.4286914,19.3581054 C84.2734172,19.4782232 84.1957812,19.6188468 84.1957812,19.7799804 C84.1957812,19.88252 84.2280075,19.9748042 84.2924609,20.0568359 C84.3569144,20.1417973 84.4579876,20.212109 84.5956836,20.2677734 C84.6747856,20.2970704 84.9076934,20.3644525 85.2944141,20.4699218 C85.8539872,20.6193366 86.2443641,20.7416499 86.4655566,20.8368652 C86.6867492,20.9320805 86.8603314,21.0705069 86.9863086,21.2521484 C87.1122858,21.4337899 87.1752734,21.6593736 87.1752734,21.9289062 C87.1752734,22.1925794 87.0983699,22.4408679 86.9445605,22.6737792 C86.7907512,22.9066906 86.5688296,23.0868645 86.2787891,23.2143066 C85.9887485,23.3417486 85.6606268,23.4054687 85.2944141,23.4054687 C84.6879657,23.4054687 84.2258121,23.2794934 83.9079395,23.027539 C83.5900668,22.7755846 83.3871879,22.4020532 83.2992969,21.9069335 Z M89.6027539,22.5924804 L89.7170117,23.2912109 C89.4943544,23.3380861 89.2951376,23.3615234 89.1193555,23.3615234 C88.8322447,23.3615234 88.6095906,23.3161137 88.4513867,23.2252929 C88.2931828,23.1344722 88.1818558,23.0150886 88.1174023,22.8671386 C88.0529489,22.7191887 88.0207227,22.4079125 88.0207227,21.9333007 L88.0207227,19.2482421 L87.4406445,19.2482421 L87.4406445,18.6330078 L88.0207227,18.6330078 L88.0207227,17.477246 L88.8073438,17.0026367 L88.8073438,18.6330078 L89.6027539,18.6330078 L89.6027539,19.2482421 L88.8073438,19.2482421 L88.8073438,21.977246 C88.8073438,22.2028331 88.8212596,22.3478512 88.8490918,22.4123046 C88.876924,22.4767581 88.9223337,22.5280271 88.9853223,22.5661132 C89.0483109,22.6041994 89.1383979,22.6232421 89.2555859,22.6232421 C89.343477,22.6232421 89.4591985,22.6129883 89.6027539,22.5924804 Z M93.3310156,21.7970703 L94.1483984,21.8981445 C94.0194915,22.3756859 93.7807244,22.7462877 93.4320898,23.0099609 C93.0834553,23.2736341 92.6381472,23.4054687 92.0961523,23.4054687 C91.4135317,23.4054687 90.8722774,23.1952657 90.472373,22.7748535 C90.0724687,22.3544412 89.8725195,21.7648475 89.8725195,21.0060546 C89.8725195,20.2208945 90.0746659,19.6115256 90.4789648,19.1779296 C90.8832637,18.7443337 91.4076726,18.527539 92.052207,18.527539 C92.6762336,18.527539 93.1859941,18.7399392 93.5815039,19.164746 C93.9770137,19.5895529 94.1747656,20.1872031 94.1747656,20.9577148 C94.1747656,21.00459 94.1733008,21.0749018 94.1703711,21.1686523 L90.6899023,21.1686523 C90.7191994,21.6813502 90.8642174,22.0739244 91.1249609,22.3463867 C91.3857044,22.618849 91.7108965,22.7550781 92.1005469,22.7550781 C92.3905874,22.7550781 92.6381435,22.678907 92.8432227,22.5265625 C93.0483018,22.3742179 93.2108978,22.1310563 93.3310156,21.7970703 Z M90.7338477,20.5182617 L93.3398047,20.5182617 C93.3046483,20.1256816 93.2050399,19.8312509 93.0409766,19.6349609 C92.7890222,19.3302719 92.4623653,19.1779296 92.0609961,19.1779296 C91.697713,19.1779296 91.3922962,19.2995105 91.1447363,19.5426757 C90.8971765,19.785841 90.760215,20.1110331 90.7338477,20.5182617 Z M94.8927734,23.3 L94.8927734,18.6330078 L95.6046875,18.6330078 L95.6046875,19.3405273 C95.786329,19.009471 95.954052,18.7912114 96.1078613,18.6857421 C96.2616707,18.5802729 96.4308585,18.527539 96.6154297,18.527539 C96.8820326,18.527539 97.153026,18.6124991 97.428418,18.7824218 L97.155957,19.5163085 C96.9625967,19.4020502 96.7692392,19.3449218 96.5758789,19.3449218 C96.4030265,19.3449218 96.2477546,19.3969233 96.1100586,19.5009277 C95.9723626,19.6049321 95.874219,19.7492178 95.815625,19.933789 C95.7277339,20.2150404 95.6837891,20.5226545 95.6837891,20.8566406 L95.6837891,23.3 L94.8927734,23.3 Z" id="Send+-Master" fill="#000000"></path>
        <path d="M40.4042969,14.9301758 L41.2084961,14.8598633 C41.2465822,15.1821305 41.3352044,15.4465322 41.4743652,15.6530762 C41.6135261,15.8596202 41.8295884,16.0266107 42.1225586,16.1540527 C42.4155288,16.2814948 42.7451154,16.3452148 43.1113281,16.3452148 C43.4365251,16.3452148 43.7236316,16.2968755 43.9726562,16.2001953 C44.2216809,16.1035151 44.4069818,15.9709481 44.5285645,15.8024902 C44.6501471,15.6340324 44.7109375,15.4501963 44.7109375,15.2509766 C44.7109375,15.0488271 44.6523443,14.8723152 44.5351562,14.7214355 C44.4179682,14.5705559 44.2246107,14.4438482 43.9550781,14.3413086 C43.7822257,14.2739254 43.3999053,14.1691902 42.8081055,14.0270996 C42.2163056,13.8850091 41.801759,13.7509772 41.5644531,13.625 C41.2568344,13.4638664 41.0275886,13.2639172 40.876709,13.0251465 C40.7258293,12.7863758 40.6503906,12.5190444 40.6503906,12.2231445 C40.6503906,11.8979476 40.7426749,11.5939956 40.9272461,11.3112793 C41.1118173,11.028563 41.3813459,10.8139656 41.7358398,10.6674805 C42.0903338,10.5209954 42.4843728,10.4477539 42.9179688,10.4477539 C43.3955102,10.4477539 43.8166486,10.5246574 44.1813965,10.6784668 C44.5461444,10.8322762 44.8266592,11.0585923 45.0229492,11.3574219 C45.2192393,11.6562515 45.324707,11.994627 45.3393555,12.3725586 L44.5219727,12.434082 C44.4780271,12.0268534 44.329347,11.7192393 44.0759277,11.5112305 C43.8225085,11.3032216 43.4482447,11.1992188 42.953125,11.1992188 C42.4374974,11.1992188 42.0617688,11.2937002 41.8259277,11.482666 C41.5900867,11.6716318 41.472168,11.8994127 41.472168,12.1660156 C41.472168,12.3974621 41.5556632,12.5878899 41.7226562,12.7373047 C41.8867196,12.8867195 42.3151821,13.0397941 43.0080566,13.1965332 C43.7009312,13.3532723 44.1762682,13.4902338 44.434082,13.6074219 C44.8090839,13.7802743 45.0859366,13.9992663 45.2646484,14.2644043 C45.4433603,14.5295423 45.5327148,14.8349592 45.5327148,15.1806641 C45.5327148,15.5234392 45.4345713,15.846434 45.2382812,16.1496582 C45.0419912,16.4528824 44.7600116,16.6887199 44.392334,16.8571777 C44.0246564,17.0256356 43.6108421,17.1098633 43.1508789,17.1098633 C42.5678682,17.1098633 42.0793477,17.0249032 41.6853027,16.8549805 C41.2912578,16.6850577 40.9821789,16.4294451 40.7580566,16.0881348 C40.5339344,15.7468245 40.4160157,15.360842 40.4042969,14.9301758 Z M50.3510155,15.4970703 L51.1683983,15.5981445 C51.0394914,16.075686 50.8007243,16.4462877 50.4520897,16.7099609 C50.1034552,16.9736341 49.6581471,17.1054688 49.1161522,17.1054688 C48.4335316,17.1054688 47.8922773,16.8952658 47.4923729,16.4748535 C47.0924686,16.0544413 46.8925194,15.4648475 46.8925194,14.7060547 C46.8925194,13.9208945 47.0946658,13.3115256 47.4989647,12.8779297 C47.9032636,12.4443338 48.4276725,12.2275391 49.0722069,12.2275391 C49.6962335,12.2275391 50.205994,12.4399393 50.6015038,12.8647461 C50.9970136,13.2895529 51.1947655,13.8872032 51.1947655,14.6577148 C51.1947655,14.7045901 51.1933007,14.7749019 51.190371,14.8686523 L47.7099022,14.8686523 C47.7391993,15.3813502 47.8842173,15.7739244 48.1449608,16.0463867 C48.4057043,16.318849 48.7308964,16.4550781 49.1205468,16.4550781 C49.4105873,16.4550781 49.6581434,16.378907 49.8632226,16.2265625 C50.0683017,16.074218 50.2308977,15.8310564 50.3510155,15.4970703 Z M47.7538476,14.2182617 L50.3598046,14.2182617 C50.3246482,13.8256816 50.2250398,13.531251 50.0609765,13.3349609 C49.8090221,13.0302719 49.4823652,12.8779297 49.080996,12.8779297 C48.7177129,12.8779297 48.4122961,12.9995105 48.1647362,13.2426758 C47.9171764,13.4858411 47.7802149,13.8110331 47.7538476,14.2182617 Z M52.7215623,17 L52.7215623,12.3330078 L53.4334764,12.3330078 L53.4334764,12.996582 C53.7762515,12.4838842 54.2713638,12.2275391 54.9188279,12.2275391 C55.2000793,12.2275391 55.4586217,12.2780757 55.6944627,12.3791504 C55.9303037,12.4802251 56.1068156,12.6127921 56.2240037,12.7768555 C56.3411918,12.9409188 56.4232222,13.1357411 56.4700975,13.3613281 C56.4993945,13.5078132 56.5140428,13.7641583 56.5140428,14.1303711 L56.5140428,17 L55.7230271,17 L55.7230271,14.1611328 C55.7230271,13.8388656 55.6922657,13.5979012 55.630742,13.4382324 C55.5692182,13.2785637 55.4600885,13.1511235 55.3033494,13.0559082 C55.1466103,12.9606929 54.9627743,12.9130859 54.7518357,12.9130859 C54.41492,12.9130859 54.1241514,13.0200185 53.8795213,13.2338867 C53.6348912,13.447755 53.5125779,13.8535126 53.5125779,14.4511719 L53.5125779,17 L52.7215623,17 Z M61.3147653,17 L61.3147653,16.4111328 C61.0188654,16.8740258 60.5838112,17.1054688 60.0095895,17.1054688 C59.6375174,17.1054688 59.2954798,17.0029307 58.9834665,16.7978516 C58.6714532,16.5927724 58.4297564,16.3063983 58.2583688,15.9387207 C58.0869813,15.5710431 58.0012888,15.1484399 58.0012888,14.6708984 C58.0012888,14.2050758 58.0789247,13.7824726 58.2341989,13.4030762 C58.3894731,13.0236797 58.622381,12.7329112 58.9329294,12.5307617 C59.2434778,12.3286123 59.5906423,12.2275391 59.9744333,12.2275391 C60.2556847,12.2275391 60.5061705,12.2868646 60.7258981,12.4055176 C60.9456258,12.5241705 61.1243349,12.67871 61.2620309,12.8691406 L61.2620309,10.5576172 L62.048652,10.5576172 L62.048652,17 L61.3147653,17 Z M58.814277,14.6708984 C58.814277,15.2685577 58.9402523,15.7153306 59.1922067,16.0112305 C59.4441611,16.3071304 59.7415214,16.4550781 60.0842966,16.4550781 C60.4300014,16.4550781 60.7236997,16.3137221 60.9654001,16.0310059 C61.2071005,15.7482896 61.3279489,15.3168974 61.3279489,14.7368164 C61.3279489,14.0981413 61.2049033,13.629396 60.9588083,13.3305664 C60.7127133,13.0317368 60.4094937,12.8823242 60.0491403,12.8823242 C59.6975761,12.8823242 59.4038778,13.0258775 59.1680368,13.3129883 C58.9321958,13.6000991 58.814277,14.0527313 58.814277,14.6708984 Z" id="Send" fill="#000000"></path>
        <path d="M40.4042969,68.9301758 L41.2084961,68.8598633 C41.2465822,69.1821305 41.3352044,69.4465322 41.4743652,69.6530762 C41.6135261,69.8596202 41.8295884,70.0266107 42.1225586,70.1540527 C42.4155288,70.2814948 42.7451154,70.3452148 43.1113281,70.3452148 C43.4365251,70.3452148 43.7236316,70.2968755 43.9726562,70.2001953 C44.2216809,70.1035151 44.4069818,69.9709481 44.5285645,69.8024902 C44.6501471,69.6340324 44.7109375,69.4501963 44.7109375,69.2509766 C44.7109375,69.0488271 44.6523443,68.8723152 44.5351562,68.7214355 C44.4179682,68.5705559 44.2246107,68.4438482 43.9550781,68.3413086 C43.7822257,68.2739254 43.3999053,68.1691902 42.8081055,68.0270996 C42.2163056,67.8850091 41.801759,67.7509772 41.5644531,67.625 C41.2568344,67.4638664 41.0275886,67.2639172 40.876709,67.0251465 C40.7258293,66.7863758 40.6503906,66.5190444 40.6503906,66.2231445 C40.6503906,65.8979476 40.7426749,65.5939956 40.9272461,65.3112793 C41.1118173,65.028563 41.3813459,64.8139656 41.7358398,64.6674805 C42.0903338,64.5209954 42.4843728,64.4477539 42.9179688,64.4477539 C43.3955102,64.4477539 43.8166486,64.5246574 44.1813965,64.6784668 C44.5461444,64.8322762 44.8266592,65.0585923 45.0229492,65.3574219 C45.2192393,65.6562515 45.324707,65.994627 45.3393555,66.3725586 L44.5219727,66.434082 C44.4780271,66.0268534 44.329347,65.7192393 44.0759277,65.5112305 C43.8225085,65.3032216 43.4482447,65.1992188 42.953125,65.1992188 C42.4374974,65.1992188 42.0617688,65.2937002 41.8259277,65.482666 C41.5900867,65.6716318 41.472168,65.8994127 41.472168,66.1660156 C41.472168,66.3974621 41.5556632,66.5878899 41.7226562,66.7373047 C41.8867196,66.8867195 42.3151821,67.0397941 43.0080566,67.1965332 C43.7009312,67.3532723 44.1762682,67.4902338 44.434082,67.6074219 C44.8090839,67.7802743 45.0859366,67.9992663 45.2646484,68.2644043 C45.4433603,68.5295423 45.5327148,68.8349592 45.5327148,69.1806641 C45.5327148,69.5234392 45.4345713,69.846434 45.2382812,70.1496582 C45.0419912,70.4528824 44.7600116,70.6887199 44.392334,70.8571777 C44.0246564,71.0256356 43.6108421,71.1098633 43.1508789,71.1098633 C42.5678682,71.1098633 42.0793477,71.0249032 41.6853027,70.8549805 C41.2912578,70.6850577 40.9821789,70.4294451 40.7580566,70.0881348 C40.5339344,69.7468245 40.4160157,69.360842 40.4042969,68.9301758 Z M50.3510155,69.4970703 L51.1683983,69.5981445 C51.0394914,70.075686 50.8007243,70.4462877 50.4520897,70.7099609 C50.1034552,70.9736341 49.6581471,71.1054688 49.1161522,71.1054688 C48.4335316,71.1054688 47.8922773,70.8952658 47.4923729,70.4748535 C47.0924686,70.0544413 46.8925194,69.4648475 46.8925194,68.7060547 C46.8925194,67.9208945 47.0946658,67.3115256 47.4989647,66.8779297 C47.9032636,66.4443338 48.4276725,66.2275391 49.0722069,66.2275391 C49.6962335,66.2275391 50.205994,66.4399393 50.6015038,66.8647461 C50.9970136,67.2895529 51.1947655,67.8872032 51.1947655,68.6577148 C51.1947655,68.7045901 51.1933007,68.7749019 51.190371,68.8686523 L47.7099022,68.8686523 C47.7391993,69.3813502 47.8842173,69.7739244 48.1449608,70.0463867 C48.4057043,70.318849 48.7308964,70.4550781 49.1205468,70.4550781 C49.4105873,70.4550781 49.6581434,70.378907 49.8632226,70.2265625 C50.0683017,70.074218 50.2308977,69.8310564 50.3510155,69.4970703 Z M47.7538476,68.2182617 L50.3598046,68.2182617 C50.3246482,67.8256816 50.2250398,67.531251 50.0609765,67.3349609 C49.8090221,67.0302719 49.4823652,66.8779297 49.080996,66.8779297 C48.7177129,66.8779297 48.4122961,66.9995105 48.1647362,67.2426758 C47.9171764,67.4858411 47.7802149,67.8110331 47.7538476,68.2182617 Z M52.7215623,71 L52.7215623,66.3330078 L53.4334764,66.3330078 L53.4334764,66.996582 C53.7762515,66.4838842 54.2713638,66.2275391 54.9188279,66.2275391 C55.2000793,66.2275391 55.4586217,66.2780757 55.6944627,66.3791504 C55.9303037,66.4802251 56.1068156,66.6127921 56.2240037,66.7768555 C56.3411918,66.9409188 56.4232222,67.1357411 56.4700975,67.3613281 C56.4993945,67.5078132 56.5140428,67.7641583 56.5140428,68.1303711 L56.5140428,71 L55.7230271,71 L55.7230271,68.1611328 C55.7230271,67.8388656 55.6922657,67.5979012 55.630742,67.4382324 C55.5692182,67.2785637 55.4600885,67.1511235 55.3033494,67.0559082 C55.1466103,66.9606929 54.9627743,66.9130859 54.7518357,66.9130859 C54.41492,66.9130859 54.1241514,67.0200185 53.8795213,67.2338867 C53.6348912,67.447755 53.5125779,67.8535126 53.5125779,68.4511719 L53.5125779,71 L52.7215623,71 Z M61.3147653,71 L61.3147653,70.4111328 C61.0188654,70.8740258 60.5838112,71.1054688 60.0095895,71.1054688 C59.6375174,71.1054688 59.2954798,71.0029307 58.9834665,70.7978516 C58.6714532,70.5927724 58.4297564,70.3063983 58.2583688,69.9387207 C58.0869813,69.5710431 58.0012888,69.1484399 58.0012888,68.6708984 C58.0012888,68.2050758 58.0789247,67.7824726 58.2341989,67.4030762 C58.3894731,67.0236797 58.622381,66.7329112 58.9329294,66.5307617 C59.2434778,66.3286123 59.5906423,66.2275391 59.9744333,66.2275391 C60.2556847,66.2275391 60.5061705,66.2868646 60.7258981,66.4055176 C60.9456258,66.5241705 61.1243349,66.67871 61.2620309,66.8691406 L61.2620309,64.5576172 L62.048652,64.5576172 L62.048652,71 L61.3147653,71 Z M58.814277,68.6708984 C58.814277,69.2685577 58.9402523,69.7153306 59.1922067,70.0112305 C59.4441611,70.3071304 59.7415214,70.4550781 60.0842966,70.4550781 C60.4300014,70.4550781 60.7236997,70.3137221 60.9654001,70.0310059 C61.2071005,69.7482896 61.3279489,69.3168974 61.3279489,68.7368164 C61.3279489,68.0981413 61.2049033,67.629396 60.9588083,67.3305664 C60.7127133,67.0317368 60.4094937,66.8823242 60.0491403,66.8823242 C59.6975761,66.8823242 59.4038778,67.0258775 59.1680368,67.3129883 C58.9321958,67.6000991 58.814277,68.0527313 58.814277,68.6708984 Z" id="Send" fill="#000000"></path>
        <path d="M40.4042969,95.9301758 L41.2084961,95.8598633 C41.2465822,96.1821305 41.3352044,96.4465322 41.4743652,96.6530762 C41.6135261,96.8596202 41.8295884,97.0266107 42.1225586,97.1540527 C42.4155288,97.2814948 42.7451154,97.3452148 43.1113281,97.3452148 C43.4365251,97.3452148 43.7236316,97.2968755 43.9726562,97.2001953 C44.2216809,97.1035151 44.4069818,96.9709481 44.5285645,96.8024902 C44.6501471,96.6340324 44.7109375,96.4501963 44.7109375,96.2509766 C44.7109375,96.0488271 44.6523443,95.8723152 44.5351562,95.7214355 C44.4179682,95.5705559 44.2246107,95.4438482 43.9550781,95.3413086 C43.7822257,95.2739254 43.3999053,95.1691902 42.8081055,95.0270996 C42.2163056,94.8850091 41.801759,94.7509772 41.5644531,94.625 C41.2568344,94.4638664 41.0275886,94.2639172 40.876709,94.0251465 C40.7258293,93.7863758 40.6503906,93.5190444 40.6503906,93.2231445 C40.6503906,92.8979476 40.7426749,92.5939956 40.9272461,92.3112793 C41.1118173,92.028563 41.3813459,91.8139656 41.7358398,91.6674805 C42.0903338,91.5209954 42.4843728,91.4477539 42.9179688,91.4477539 C43.3955102,91.4477539 43.8166486,91.5246574 44.1813965,91.6784668 C44.5461444,91.8322762 44.8266592,92.0585923 45.0229492,92.3574219 C45.2192393,92.6562515 45.324707,92.994627 45.3393555,93.3725586 L44.5219727,93.434082 C44.4780271,93.0268534 44.329347,92.7192393 44.0759277,92.5112305 C43.8225085,92.3032216 43.4482447,92.1992188 42.953125,92.1992188 C42.4374974,92.1992188 42.0617688,92.2937002 41.8259277,92.482666 C41.5900867,92.6716318 41.472168,92.8994127 41.472168,93.1660156 C41.472168,93.3974621 41.5556632,93.5878899 41.7226562,93.7373047 C41.8867196,93.8867195 42.3151821,94.0397941 43.0080566,94.1965332 C43.7009312,94.3532723 44.1762682,94.4902338 44.434082,94.6074219 C44.8090839,94.7802743 45.0859366,94.9992663 45.2646484,95.2644043 C45.4433603,95.5295423 45.5327148,95.8349592 45.5327148,96.1806641 C45.5327148,96.5234392 45.4345713,96.846434 45.2382812,97.1496582 C45.0419912,97.4528824 44.7600116,97.6887199 44.392334,97.8571777 C44.0246564,98.0256356 43.6108421,98.1098633 43.1508789,98.1098633 C42.5678682,98.1098633 42.0793477,98.0249032 41.6853027,97.8549805 C41.2912578,97.6850577 40.9821789,97.4294451 40.7580566,97.0881348 C40.5339344,96.7468245 40.4160157,96.360842 40.4042969,95.9301758 Z M50.3510155,96.4970703 L51.1683983,96.5981445 C51.0394914,97.075686 50.8007243,97.4462877 50.4520897,97.7099609 C50.1034552,97.9736341 49.6581471,98.1054688 49.1161522,98.1054688 C48.4335316,98.1054688 47.8922773,97.8952658 47.4923729,97.4748535 C47.0924686,97.0544413 46.8925194,96.4648475 46.8925194,95.7060547 C46.8925194,94.9208945 47.0946658,94.3115256 47.4989647,93.8779297 C47.9032636,93.4443338 48.4276725,93.2275391 49.0722069,93.2275391 C49.6962335,93.2275391 50.205994,93.4399393 50.6015038,93.8647461 C50.9970136,94.2895529 51.1947655,94.8872032 51.1947655,95.6577148 C51.1947655,95.7045901 51.1933007,95.7749019 51.190371,95.8686523 L47.7099022,95.8686523 C47.7391993,96.3813502 47.8842173,96.7739244 48.1449608,97.0463867 C48.4057043,97.318849 48.7308964,97.4550781 49.1205468,97.4550781 C49.4105873,97.4550781 49.6581434,97.378907 49.8632226,97.2265625 C50.0683017,97.074218 50.2308977,96.8310564 50.3510155,96.4970703 Z M47.7538476,95.2182617 L50.3598046,95.2182617 C50.3246482,94.8256816 50.2250398,94.531251 50.0609765,94.3349609 C49.8090221,94.0302719 49.4823652,93.8779297 49.080996,93.8779297 C48.7177129,93.8779297 48.4122961,93.9995105 48.1647362,94.2426758 C47.9171764,94.4858411 47.7802149,94.8110331 47.7538476,95.2182617 Z M52.7215623,98 L52.7215623,93.3330078 L53.4334764,93.3330078 L53.4334764,93.996582 C53.7762515,93.4838842 54.2713638,93.2275391 54.9188279,93.2275391 C55.2000793,93.2275391 55.4586217,93.2780757 55.6944627,93.3791504 C55.9303037,93.4802251 56.1068156,93.6127921 56.2240037,93.7768555 C56.3411918,93.9409188 56.4232222,94.1357411 56.4700975,94.3613281 C56.4993945,94.5078132 56.5140428,94.7641583 56.5140428,95.1303711 L56.5140428,98 L55.7230271,98 L55.7230271,95.1611328 C55.7230271,94.8388656 55.6922657,94.5979012 55.630742,94.4382324 C55.5692182,94.2785637 55.4600885,94.1511235 55.3033494,94.0559082 C55.1466103,93.9606929 54.9627743,93.9130859 54.7518357,93.9130859 C54.41492,93.9130859 54.1241514,94.0200185 53.8795213,94.2338867 C53.6348912,94.447755 53.5125779,94.8535126 53.5125779,95.4511719 L53.5125779,98 L52.7215623,98 Z M61.3147653,98 L61.3147653,97.4111328 C61.0188654,97.8740258 60.5838112,98.1054688 60.0095895,98.1054688 C59.6375174,98.1054688 59.2954798,98.0029307 58.9834665,97.7978516 C58.6714532,97.5927724 58.4297564,97.3063983 58.2583688,96.9387207 C58.0869813,96.5710431 58.0012888,96.1484399 58.0012888,95.6708984 C58.0012888,95.2050758 58.0789247,94.7824726 58.2341989,94.4030762 C58.3894731,94.0236797 58.622381,93.7329112 58.9329294,93.5307617 C59.2434778,93.3286123 59.5906423,93.2275391 59.9744333,93.2275391 C60.2556847,93.2275391 60.5061705,93.2868646 60.7258981,93.4055176 C60.9456258,93.5241705 61.1243349,93.67871 61.2620309,93.8691406 L61.2620309,91.5576172 L62.048652,91.5576172 L62.048652,98 L61.3147653,98 Z M58.814277,95.6708984 C58.814277,96.2685577 58.9402523,96.7153306 59.1922067,97.0112305 C59.4441611,97.3071304 59.7415214,97.4550781 60.0842966,97.4550781 C60.4300014,97.4550781 60.7236997,97.3137221 60.9654001,97.0310059 C61.2071005,96.7482896 61.3279489,96.3168974 61.3279489,95.7368164 C61.3279489,95.0981413 61.2049033,94.629396 60.9588083,94.3305664 C60.7127133,94.0317368 60.4094937,93.8823242 60.0491403,93.8823242 C59.6975761,93.8823242 59.4038778,94.0258775 59.1680368,94.3129883 C58.9321958,94.6000991 58.814277,95.0527313 58.814277,95.6708984 Z" id="Send" fill="#000000"></path>
        <path d="M10.4350586,13.8623047 C10.4350586,12.7929634 10.7221651,11.9558136 11.2963867,11.3508301 C11.8706083,10.7458466 12.6118119,10.4433594 13.5200195,10.4433594 C14.1147491,10.4433594 14.6508765,10.5854478 15.128418,10.8696289 C15.6059594,11.15381 15.9699695,11.5500463 16.220459,12.0583496 C16.4709485,12.5666529 16.5961914,13.1430632 16.5961914,13.7875977 C16.5961914,14.4409212 16.4643568,15.025388 16.2006836,15.5410156 C15.9370104,16.0566432 15.563479,16.4470202 15.0800781,16.7121582 C14.5966773,16.9772962 14.0751981,17.1098633 13.515625,17.1098633 C12.9091767,17.1098633 12.3671899,16.9633804 11.8896484,16.6704102 C11.412107,16.3774399 11.0502942,15.9775416 10.8041992,15.4707031 C10.5581042,14.9638647 10.4350586,14.4277372 10.4350586,13.8623047 Z M11.3139648,13.8754883 C11.3139648,14.6518594 11.522703,15.2634255 11.9401855,15.7102051 C12.3576681,16.1569847 12.8813445,16.3803711 13.5112305,16.3803711 C14.1528352,16.3803711 14.6809061,16.1547874 15.095459,15.7036133 C15.5100118,15.2524392 15.7172852,14.6123088 15.7172852,13.7832031 C15.7172852,13.2587864 15.628663,12.8010273 15.451416,12.4099121 C15.274169,12.0187969 15.0148943,11.7155772 14.673584,11.5002441 C14.3322737,11.284911 13.9492209,11.1772461 13.5244141,11.1772461 C12.9208954,11.1772461 12.4016135,11.3845194 11.9665527,11.7990723 C11.531492,12.2136251 11.3139648,12.9057569 11.3139648,13.8754883 Z M18.3427147,17 L18.3427147,12.9482422 L17.6439843,12.9482422 L17.6439843,12.3330078 L18.3427147,12.3330078 L18.3427147,11.8364258 C18.3427147,11.5229477 18.3705465,11.2900398 18.4262108,11.1376953 C18.5023831,10.9326162 18.636415,10.7663581 18.8283104,10.638916 C19.0202059,10.511474 19.2890021,10.4477539 19.6347069,10.4477539 C19.8573643,10.4477539 20.1034556,10.4741208 20.3729882,10.5268555 L20.2543358,11.2167969 C20.0902725,11.1874999 19.9350006,11.1728516 19.7885155,11.1728516 C19.5482799,11.1728516 19.3783598,11.2241206 19.2787499,11.3266602 C19.17914,11.4291997 19.1293358,11.6210923 19.1293358,11.9023438 L19.1293358,12.3330078 L20.0390038,12.3330078 L20.0390038,12.9482422 L19.1293358,12.9482422 L19.1293358,17 L18.3427147,17 Z M21.2406053,17 L21.2406053,12.9482422 L20.5418748,12.9482422 L20.5418748,12.3330078 L21.2406053,12.3330078 L21.2406053,11.8364258 C21.2406053,11.5229477 21.268437,11.2900398 21.3241014,11.1376953 C21.4002736,10.9326162 21.5343055,10.7663581 21.726201,10.638916 C21.9180965,10.511474 22.1868926,10.4477539 22.5325975,10.4477539 C22.7552548,10.4477539 23.0013461,10.4741208 23.2708787,10.5268555 L23.1522264,11.2167969 C22.988163,11.1874999 22.8328912,11.1728516 22.6864061,11.1728516 C22.4461705,11.1728516 22.2762503,11.2241206 22.1766404,11.3266602 C22.0770306,11.4291997 22.0272264,11.6210923 22.0272264,11.9023438 L22.0272264,12.3330078 L22.9368943,12.3330078 L22.9368943,12.9482422 L22.0272264,12.9482422 L22.0272264,17 L21.2406053,17 Z" id="Off" fill="#000000"></path>
        <path d="M110.986816,17 L113.460938,10.5576172 L114.379395,10.5576172 L117.016113,17 L116.044922,17 L115.293457,15.0488281 L112.599609,15.0488281 L111.89209,17 L110.986816,17 Z M112.845703,14.3544922 L115.029785,14.3544922 L114.357422,12.5703125 C114.152343,12.0283176 114,11.5830096 113.900391,11.234375 C113.818359,11.647463 113.702637,12.0576152 113.553223,12.4648438 L112.845703,14.3544922 Z M118.138613,17 L118.138613,10.5576172 L118.929629,10.5576172 L118.929629,17 L118.138613,17 Z M120.698125,17 L120.698125,10.5576172 L121.48914,10.5576172 L121.48914,17 L120.698125,17 Z" id="All" fill="#000000"></path>
        <path d="M110.986816,44 L113.460938,37.5576172 L114.379395,37.5576172 L117.016113,44 L116.044922,44 L115.293457,42.0488281 L112.599609,42.0488281 L111.89209,44 L110.986816,44 Z M112.845703,41.3544922 L115.029785,41.3544922 L114.357422,39.5703125 C114.152343,39.0283176 114,38.5830096 113.900391,38.234375 C113.818359,38.647463 113.702637,39.0576152 113.553223,39.4648438 L112.845703,41.3544922 Z M118.138613,44 L118.138613,37.5576172 L118.929629,37.5576172 L118.929629,44 L118.138613,44 Z M120.698125,44 L120.698125,37.5576172 L121.48914,37.5576172 L121.48914,44 L120.698125,44 Z" id="All" fill="#000000"></path>
        <path d="M110.986816,71 L113.460938,64.5576172 L114.379395,64.5576172 L117.016113,71 L116.044922,71 L115.293457,69.0488281 L112.599609,69.0488281 L111.89209,71 L110.986816,71 Z M112.845703,68.3544922 L115.029785,68.3544922 L114.357422,66.5703125 C114.152343,66.0283176 114,65.5830096 113.900391,65.234375 C113.818359,65.647463 113.702637,66.0576152 113.553223,66.4648438 L112.845703,68.3544922 Z M118.138613,71 L118.138613,64.5576172 L118.929629,64.5576172 L118.929629,71 L118.138613,71 Z M120.698125,71 L120.698125,64.5576172 L121.48914,64.5576172 L121.48914,71 L120.698125,71 Z" id="All" fill="#000000"></path>
        <path d="M110.986816,98 L113.460938,91.5576172 L114.379395,91.5576172 L117.016113,98 L116.044922,98 L115.293457,96.0488281 L112.599609,96.0488281 L111.89209,98 L110.986816,98 Z M112.845703,95.3544922 L115.029785,95.3544922 L114.357422,93.5703125 C114.152343,93.0283176 114,92.5830096 113.900391,92.234375 C113.818359,92.647463 113.702637,93.0576152 113.553223,93.4648438 L112.845703,95.3544922 Z M118.138613,98 L118.138613,91.5576172 L118.929629,91.5576172 L118.929629,98 L118.138613,98 Z M120.698125,98 L120.698125,91.5576172 L121.48914,91.5576172 L121.48914,98 L120.698125,98 Z" id="All" fill="#000000"></path>
        <path d="M10.4350586,67.8623047 C10.4350586,66.7929634 10.7221651,65.9558136 11.2963867,65.3508301 C11.8706083,64.7458466 12.6118119,64.4433594 13.5200195,64.4433594 C14.1147491,64.4433594 14.6508765,64.5854478 15.128418,64.8696289 C15.6059594,65.15381 15.9699695,65.5500463 16.220459,66.0583496 C16.4709485,66.5666529 16.5961914,67.1430632 16.5961914,67.7875977 C16.5961914,68.4409212 16.4643568,69.025388 16.2006836,69.5410156 C15.9370104,70.0566432 15.563479,70.4470202 15.0800781,70.7121582 C14.5966773,70.9772962 14.0751981,71.1098633 13.515625,71.1098633 C12.9091767,71.1098633 12.3671899,70.9633804 11.8896484,70.6704102 C11.412107,70.3774399 11.0502942,69.9775416 10.8041992,69.4707031 C10.5581042,68.9638647 10.4350586,68.4277372 10.4350586,67.8623047 Z M11.3139648,67.8754883 C11.3139648,68.6518594 11.522703,69.2634255 11.9401855,69.7102051 C12.3576681,70.1569847 12.8813445,70.3803711 13.5112305,70.3803711 C14.1528352,70.3803711 14.6809061,70.1547874 15.095459,69.7036133 C15.5100118,69.2524392 15.7172852,68.6123088 15.7172852,67.7832031 C15.7172852,67.2587864 15.628663,66.8010273 15.451416,66.4099121 C15.274169,66.0187969 15.0148943,65.7155772 14.673584,65.5002441 C14.3322737,65.284911 13.9492209,65.1772461 13.5244141,65.1772461 C12.9208954,65.1772461 12.4016135,65.3845194 11.9665527,65.7990723 C11.531492,66.2136251 11.3139648,66.9057569 11.3139648,67.8754883 Z M18.3427147,71 L18.3427147,66.9482422 L17.6439843,66.9482422 L17.6439843,66.3330078 L18.3427147,66.3330078 L18.3427147,65.8364258 C18.3427147,65.5229477 18.3705465,65.2900398 18.4262108,65.1376953 C18.5023831,64.9326162 18.636415,64.7663581 18.8283104,64.638916 C19.0202059,64.511474 19.2890021,64.4477539 19.6347069,64.4477539 C19.8573643,64.4477539 20.1034556,64.4741208 20.3729882,64.5268555 L20.2543358,65.2167969 C20.0902725,65.1874999 19.9350006,65.1728516 19.7885155,65.1728516 C19.5482799,65.1728516 19.3783598,65.2241206 19.2787499,65.3266602 C19.17914,65.4291997 19.1293358,65.6210923 19.1293358,65.9023438 L19.1293358,66.3330078 L20.0390038,66.3330078 L20.0390038,66.9482422 L19.1293358,66.9482422 L19.1293358,71 L18.3427147,71 Z M21.2406053,71 L21.2406053,66.9482422 L20.5418748,66.9482422 L20.5418748,66.3330078 L21.2406053,66.3330078 L21.2406053,65.8364258 C21.2406053,65.5229477 21.268437,65.2900398 21.3241014,65.1376953 C21.4002736,64.9326162 21.5343055,64.7663581 21.726201,64.638916 C21.9180965,64.511474 22.1868926,64.4477539 22.5325975,64.4477539 C22.7552548,64.4477539 23.0013461,64.4741208 23.2708787,64.5268555 L23.1522264,65.2167969 C22.988163,65.1874999 22.8328912,65.1728516 22.6864061,65.1728516 C22.4461705,65.1728516 22.2762503,65.2241206 22.1766404,65.3266602 C22.0770306,65.4291997 22.0272264,65.6210923 22.0272264,65.9023438 L22.0272264,66.3330078 L22.9368943,66.3330078 L22.9368943,66.9482422 L22.0272264,66.9482422 L22.0272264,71 L21.2406053,71 Z" id="Off" fill="#000000"></path>
        <path d="M10.4350586,94.8623047 C10.4350586,93.7929634 10.7221651,92.9558136 11.2963867,92.3508301 C11.8706083,91.7458466 12.6118119,91.4433594 13.5200195,91.4433594 C14.1147491,91.4433594 14.6508765,91.5854478 15.128418,91.8696289 C15.6059594,92.15381 15.9699695,92.5500463 16.220459,93.0583496 C16.4709485,93.5666529 16.5961914,94.1430632 16.5961914,94.7875977 C16.5961914,95.4409212 16.4643568,96.025388 16.2006836,96.5410156 C15.9370104,97.0566432 15.563479,97.4470202 15.0800781,97.7121582 C14.5966773,97.9772962 14.0751981,98.1098633 13.515625,98.1098633 C12.9091767,98.1098633 12.3671899,97.9633804 11.8896484,97.6704102 C11.412107,97.3774399 11.0502942,96.9775416 10.8041992,96.4707031 C10.5581042,95.9638647 10.4350586,95.4277372 10.4350586,94.8623047 Z M11.3139648,94.8754883 C11.3139648,95.6518594 11.522703,96.2634255 11.9401855,96.7102051 C12.3576681,97.1569847 12.8813445,97.3803711 13.5112305,97.3803711 C14.1528352,97.3803711 14.6809061,97.1547874 15.095459,96.7036133 C15.5100118,96.2524392 15.7172852,95.6123088 15.7172852,94.7832031 C15.7172852,94.2587864 15.628663,93.8010273 15.451416,93.4099121 C15.274169,93.0187969 15.0148943,92.7155772 14.673584,92.5002441 C14.3322737,92.284911 13.9492209,92.1772461 13.5244141,92.1772461 C12.9208954,92.1772461 12.4016135,92.3845194 11.9665527,92.7990723 C11.531492,93.2136251 11.3139648,93.9057569 11.3139648,94.8754883 Z M18.3427147,98 L18.3427147,93.9482422 L17.6439843,93.9482422 L17.6439843,93.3330078 L18.3427147,93.3330078 L18.3427147,92.8364258 C18.3427147,92.5229477 18.3705465,92.2900398 18.4262108,92.1376953 C18.5023831,91.9326162 18.636415,91.7663581 18.8283104,91.638916 C19.0202059,91.511474 19.2890021,91.4477539 19.6347069,91.4477539 C19.8573643,91.4477539 20.1034556,91.4741208 20.3729882,91.5268555 L20.2543358,92.2167969 C20.0902725,92.1874999 19.9350006,92.1728516 19.7885155,92.1728516 C19.5482799,92.1728516 19.3783598,92.2241206 19.2787499,92.3266602 C19.17914,92.4291997 19.1293358,92.6210923 19.1293358,92.9023438 L19.1293358,93.3330078 L20.0390038,93.3330078 L20.0390038,93.9482422 L19.1293358,93.9482422 L19.1293358,98 L18.3427147,98 Z M21.2406053,98 L21.2406053,93.9482422 L20.5418748,93.9482422 L20.5418748,93.3330078 L21.2406053,93.3330078 L21.2406053,92.8364258 C21.2406053,92.5229477 21.268437,92.2900398 21.3241014,92.1376953 C21.4002736,91.9326162 21.5343055,91.7663581 21.726201,91.638916 C21.9180965,91.511474 22.1868926,91.4477539 22.5325975,91.4477539 C22.7552548,91.4477539 23.0013461,91.4741208 23.2708787,91.5268555 L23.1522264,92.2167969 C22.988163,92.1874999 22.8328912,92.1728516 22.6864061,92.1728516 C22.4461705,92.1728516 22.2762503,92.2241206 22.1766404,92.3266602 C22.0770306,92.4291997 22.0272264,92.6210923 22.0272264,92.9023438 L22.0272264,93.3330078 L22.9368943,93.3330078 L22.9368943,93.9482422 L22.0272264,93.9482422 L22.0272264,98 L21.2406053,98 Z" id="Off" fill="#000000"></path>
    </g>
</svg>