<?xml version="1.0" encoding="UTF-8"?>
<svg width="43px" height="14px" viewBox="0 0 43 14" version="1.1" xmlns="http://www.w3.org/2000/svg" xmlns:xlink="http://www.w3.org/1999/xlink">
    <!-- Generator: Sketch 63.1 (92452) - https://sketch.com -->
    <title>bmp00126</title>
    <desc>Created with Sketch.</desc>
    <g id="bmp00126" stroke="none" stroke-width="1" fill="none" fill-rule="evenodd">
        <g id="Group-4" transform="translate(1.000000, 1.000000)"></g>
        <g id="Group-4" transform="translate(0.000000, 7.000000)" fill="#FFA01C">
            <rect id="Rectangle" x="0" y="0" width="43" height="7"></rect>
        </g>
        <g id="Group-7-Copy" transform="translate(1.000000, 0.000000)" fill-rule="nonzero">
            <path d="M1.29541016,6 L1.29541016,3.84667969 L2.84375,3.84667969 C3.12174479,3.84667969 3.32568359,3.87744141 3.45556641,3.93896484 C3.68343099,4.05061849 3.80533854,4.27050781 3.82128906,4.59863281 L3.82128906,4.59863281 L3.86230469,5.43603516 C3.87141927,5.6319987 3.8828125,5.76416016 3.89648438,5.83251953 C3.91015625,5.90087891 3.92838542,5.95670573 3.95117188,6 L3.95117188,6 L4.78515625,6 L4.78515625,5.88720703 C4.68033854,5.84163411 4.60742188,5.73909505 4.56640625,5.57958984 C4.54134115,5.48616536 4.52539062,5.34375 4.51855469,5.15234375 L4.51855469,5.15234375 L4.49462891,4.47900391 C4.48323568,4.18733724 4.42797852,3.9765625 4.32885742,3.84667969 C4.22973633,3.71679688 4.08219401,3.61197917 3.88623047,3.53222656 C4.10953776,3.41601562 4.28328451,3.26220703 4.4074707,3.07080078 C4.5316569,2.87939453 4.59375,2.63330078 4.59375,2.33251953 C4.59375,1.75602214 4.35791016,1.36067708 3.88623047,1.14648438 C3.63785807,1.03483073 3.32226562,0.979003906 2.93945312,0.979003906 L2.93945312,0.979003906 L0.615234375,0.979003906 L0.615234375,6 L1.29541016,6 Z M2.86767578,3.27929688 L1.29541016,3.27929688 L1.29541016,1.56347656 L2.95654297,1.56347656 C3.18896484,1.56347656 3.37467448,1.59765625 3.51367188,1.66601562 C3.7734375,1.79589844 3.90332031,2.03971354 3.90332031,2.39746094 C3.90332031,2.73014323 3.81046549,2.96028646 3.62475586,3.08789062 C3.43904622,3.21549479 3.1866862,3.27929688 2.86767578,3.27929688 L2.86767578,3.27929688 Z M9.26523438,6 L9.26523438,5.40185547 L6.21640625,5.40185547 L6.21640625,3.69970703 L8.98837891,3.69970703 L8.98837891,3.11865234 L6.21640625,3.11865234 L6.21640625,1.59423828 L9.21396484,1.59423828 L9.21396484,0.979003906 L5.55332031,0.979003906 L5.55332031,6 L9.26523438,6 Z M12.0192383,6 L12.0192383,1.57714844 L13.7111328,1.57714844 L13.7111328,0.979003906 L9.63691406,0.979003906 L9.63691406,1.57714844 L11.3288086,1.57714844 L11.3288086,6 L12.0192383,6 Z M14.9954102,6 L14.9954102,3.84667969 L16.54375,3.84667969 C16.8217448,3.84667969 17.0256836,3.87744141 17.1555664,3.93896484 C17.383431,4.05061849 17.5053385,4.27050781 17.5212891,4.59863281 L17.5212891,4.59863281 L17.5623047,5.43603516 C17.5714193,5.6319987 17.5828125,5.76416016 17.5964844,5.83251953 C17.6101563,5.90087891 17.6283854,5.95670573 17.6511719,6 L17.6511719,6 L18.4851563,6 L18.4851563,5.88720703 C18.3803385,5.84163411 18.3074219,5.73909505 18.2664063,5.57958984 C18.2413411,5.48616536 18.2253906,5.34375 18.2185547,5.15234375 L18.2185547,5.15234375 L18.1946289,4.47900391 C18.1832357,4.18733724 18.1279785,3.9765625 18.0288574,3.84667969 C17.9297363,3.71679688 17.782194,3.61197917 17.5862305,3.53222656 C17.8095378,3.41601562 17.9832845,3.26220703 18.1074707,3.07080078 C18.2316569,2.87939453 18.29375,2.63330078 18.29375,2.33251953 C18.29375,1.75602214 18.0579102,1.36067708 17.5862305,1.14648438 C17.3378581,1.03483073 17.0222656,0.979003906 16.6394531,0.979003906 L16.6394531,0.979003906 L14.3152344,0.979003906 L14.3152344,6 L14.9954102,6 Z M16.5676758,3.27929688 L14.9954102,3.27929688 L14.9954102,1.56347656 L16.656543,1.56347656 C16.8889648,1.56347656 17.0746745,1.59765625 17.2136719,1.66601562 C17.4734375,1.79589844 17.6033203,2.03971354 17.6033203,2.39746094 C17.6033203,2.73014323 17.5104655,2.96028646 17.3247559,3.08789062 C17.1390462,3.21549479 16.8866862,3.27929688 16.5676758,3.27929688 L16.5676758,3.27929688 Z M20.0291992,6 L20.0291992,0.979003906 L19.3421875,0.979003906 L19.3421875,6 L20.0291992,6 Z M23.0737305,6.13330078 C23.5340169,6.13330078 23.9134115,6.04899089 24.2119141,5.88037109 C24.3896484,5.78238932 24.5935872,5.60693359 24.8237305,5.35400391 L24.8237305,5.35400391 L24.987793,6 L25.425293,6 L25.425293,3.31347656 L23.2207031,3.31347656 L23.2207031,3.87744141 L24.7929688,3.87744141 C24.7861328,4.46533203 24.6340332,4.89086914 24.3366699,5.15405273 C24.0393066,5.41723633 23.6638997,5.54882812 23.2104492,5.54882812 C22.6180013,5.54882812 22.1907552,5.36140951 21.9287109,4.98657227 C21.6666667,4.61173503 21.5356445,4.1258138 21.5356445,3.52880859 C21.5356445,2.83837891 21.6945801,2.31884766 22.0124512,1.97021484 C22.3303223,1.62158203 22.7216797,1.44726562 23.1865234,1.44726562 C23.5784505,1.44726562 23.9031576,1.53100586 24.1606445,1.69848633 C24.4181315,1.8659668 24.5878906,2.13313802 24.6699219,2.5 L24.6699219,2.5 L25.3432617,2.5 C25.2316081,1.84375 24.9262695,1.38460286 24.4272461,1.12255859 C24.0831706,0.940266927 23.675293,0.849121094 23.2036133,0.849121094 C22.5154622,0.849121094 21.9549154,1.08610026 21.5219727,1.56005859 C21.0662435,2.05680339 20.8383789,2.72558594 20.8383789,3.56640625 C20.8383789,4.40950521 21.0719401,5.07259115 21.5390625,5.55566406 C21.9674479,5.94075521 22.4790039,6.13330078 23.0737305,6.13330078 Z M28.4185547,6.13330078 C28.8788411,6.13330078 29.2582357,6.04899089 29.5567383,5.88037109 C29.7344727,5.78238932 29.9384115,5.60693359 30.1685547,5.35400391 L30.1685547,5.35400391 L30.3326172,6 L30.7701172,6 L30.7701172,3.31347656 L28.5655273,3.31347656 L28.5655273,3.87744141 L30.137793,3.87744141 C30.130957,4.46533203 29.9788574,4.89086914 29.6814941,5.15405273 C29.3841309,5.41723633 29.008724,5.54882812 28.5552734,5.54882812 C27.9628255,5.54882812 27.5355794,5.36140951 27.2735352,4.98657227 C27.0114909,4.61173503 26.8804687,4.1258138 26.8804687,3.52880859 C26.8804687,2.83837891 27.0394043,2.31884766 27.3572754,1.97021484 C27.6751465,1.62158203 28.0665039,1.44726562 28.5313477,1.44726562 C28.9232747,1.44726562 29.2479818,1.53100586 29.5054687,1.69848633 C29.7629557,1.8659668 29.9327148,2.13313802 30.0147461,2.5 L30.0147461,2.5 L30.6880859,2.5 C30.5764323,1.84375 30.2710937,1.38460286 29.7720703,1.12255859 C29.4279948,0.940266927 29.0201172,0.849121094 28.5484375,0.849121094 C27.8602865,0.849121094 27.2997396,1.08610026 26.8667969,1.56005859 C26.4110677,2.05680339 26.1832031,2.72558594 26.1832031,3.56640625 C26.1832031,4.40950521 26.4167643,5.07259115 26.8838867,5.55566406 C27.3122721,5.94075521 27.8238281,6.13330078 28.4185547,6.13330078 Z M35.499707,6 L35.499707,5.40185547 L32.4508789,5.40185547 L32.4508789,3.69970703 L35.2228516,3.69970703 L35.2228516,3.11865234 L32.4508789,3.11865234 L32.4508789,1.59423828 L35.4484375,1.59423828 L35.4484375,0.979003906 L31.787793,0.979003906 L31.787793,6 L35.499707,6 Z M37.0540039,6 L37.0540039,3.84667969 L38.6023437,3.84667969 C38.8803385,3.84667969 39.0842773,3.87744141 39.2141602,3.93896484 C39.4420247,4.05061849 39.5639323,4.27050781 39.5798828,4.59863281 L39.5798828,4.59863281 L39.6208984,5.43603516 C39.630013,5.6319987 39.6414062,5.76416016 39.6550781,5.83251953 C39.66875,5.90087891 39.6869792,5.95670573 39.7097656,6 L39.7097656,6 L40.54375,6 L40.54375,5.88720703 C40.4389323,5.84163411 40.3660156,5.73909505 40.325,5.57958984 C40.2999349,5.48616536 40.2839844,5.34375 40.2771484,5.15234375 L40.2771484,5.15234375 L40.2532227,4.47900391 C40.2418294,4.18733724 40.1865723,3.9765625 40.0874512,3.84667969 C39.9883301,3.71679688 39.8407878,3.61197917 39.6448242,3.53222656 C39.8681315,3.41601562 40.0418783,3.26220703 40.1660645,3.07080078 C40.2902507,2.87939453 40.3523437,2.63330078 40.3523437,2.33251953 C40.3523437,1.75602214 40.1165039,1.36067708 39.6448242,1.14648438 C39.3964518,1.03483073 39.0808594,0.979003906 38.6980469,0.979003906 L38.6980469,0.979003906 L36.3738281,0.979003906 L36.3738281,6 L37.0540039,6 Z M38.6262695,3.27929688 L37.0540039,3.27929688 L37.0540039,1.56347656 L38.7151367,1.56347656 C38.9475586,1.56347656 39.1332682,1.59765625 39.2722656,1.66601562 C39.5320312,1.79589844 39.6619141,2.03971354 39.6619141,2.39746094 C39.6619141,2.73014323 39.5690592,2.96028646 39.3833496,3.08789062 C39.19764,3.21549479 38.9452799,3.27929688 38.6262695,3.27929688 L38.6262695,3.27929688 Z" id="RETRIGGER" fill="#FFA01C"></path>
            <path d="M1.29541016,13 L1.29541016,10.8466797 L2.84375,10.8466797 C3.12174479,10.8466797 3.32568359,10.8774414 3.45556641,10.9389648 C3.68343099,11.0506185 3.80533854,11.2705078 3.82128906,11.5986328 L3.82128906,11.5986328 L3.86230469,12.4360352 C3.87141927,12.6319987 3.8828125,12.7641602 3.89648438,12.8325195 C3.91015625,12.9008789 3.92838542,12.9567057 3.95117188,13 L3.95117188,13 L4.78515625,13 L4.78515625,12.887207 C4.68033854,12.8416341 4.60742188,12.7390951 4.56640625,12.5795898 C4.54134115,12.4861654 4.52539062,12.34375 4.51855469,12.1523438 L4.51855469,12.1523438 L4.49462891,11.4790039 C4.48323568,11.1873372 4.42797852,10.9765625 4.32885742,10.8466797 C4.22973633,10.7167969 4.08219401,10.6119792 3.88623047,10.5322266 C4.10953776,10.4160156 4.28328451,10.262207 4.4074707,10.0708008 C4.5316569,9.87939453 4.59375,9.63330078 4.59375,9.33251953 C4.59375,8.75602214 4.35791016,8.36067708 3.88623047,8.14648438 C3.63785807,8.03483073 3.32226562,7.97900391 2.93945312,7.97900391 L2.93945312,7.97900391 L0.615234375,7.97900391 L0.615234375,13 L1.29541016,13 Z M2.86767578,10.2792969 L1.29541016,10.2792969 L1.29541016,8.56347656 L2.95654297,8.56347656 C3.18896484,8.56347656 3.37467448,8.59765625 3.51367188,8.66601562 C3.7734375,8.79589844 3.90332031,9.03971354 3.90332031,9.39746094 C3.90332031,9.73014323 3.81046549,9.96028646 3.62475586,10.0878906 C3.43904622,10.2154948 3.1866862,10.2792969 2.86767578,10.2792969 L2.86767578,10.2792969 Z M9.26523438,13 L9.26523438,12.4018555 L6.21640625,12.4018555 L6.21640625,10.699707 L8.98837891,10.699707 L8.98837891,10.1186523 L6.21640625,10.1186523 L6.21640625,8.59423828 L9.21396484,8.59423828 L9.21396484,7.97900391 L5.55332031,7.97900391 L5.55332031,13 L9.26523438,13 Z M12.0192383,13 L12.0192383,8.57714844 L13.7111328,8.57714844 L13.7111328,7.97900391 L9.63691406,7.97900391 L9.63691406,8.57714844 L11.3288086,8.57714844 L11.3288086,13 L12.0192383,13 Z M14.9954102,13 L14.9954102,10.8466797 L16.54375,10.8466797 C16.8217448,10.8466797 17.0256836,10.8774414 17.1555664,10.9389648 C17.383431,11.0506185 17.5053385,11.2705078 17.5212891,11.5986328 L17.5212891,11.5986328 L17.5623047,12.4360352 C17.5714193,12.6319987 17.5828125,12.7641602 17.5964844,12.8325195 C17.6101563,12.9008789 17.6283854,12.9567057 17.6511719,13 L17.6511719,13 L18.4851563,13 L18.4851563,12.887207 C18.3803385,12.8416341 18.3074219,12.7390951 18.2664063,12.5795898 C18.2413411,12.4861654 18.2253906,12.34375 18.2185547,12.1523438 L18.2185547,12.1523438 L18.1946289,11.4790039 C18.1832357,11.1873372 18.1279785,10.9765625 18.0288574,10.8466797 C17.9297363,10.7167969 17.782194,10.6119792 17.5862305,10.5322266 C17.8095378,10.4160156 17.9832845,10.262207 18.1074707,10.0708008 C18.2316569,9.87939453 18.29375,9.63330078 18.29375,9.33251953 C18.29375,8.75602214 18.0579102,8.36067708 17.5862305,8.14648438 C17.3378581,8.03483073 17.0222656,7.97900391 16.6394531,7.97900391 L16.6394531,7.97900391 L14.3152344,7.97900391 L14.3152344,13 L14.9954102,13 Z M16.5676758,10.2792969 L14.9954102,10.2792969 L14.9954102,8.56347656 L16.656543,8.56347656 C16.8889648,8.56347656 17.0746745,8.59765625 17.2136719,8.66601562 C17.4734375,8.79589844 17.6033203,9.03971354 17.6033203,9.39746094 C17.6033203,9.73014323 17.5104655,9.96028646 17.3247559,10.0878906 C17.1390462,10.2154948 16.8866862,10.2792969 16.5676758,10.2792969 L16.5676758,10.2792969 Z M20.0291992,13 L20.0291992,7.97900391 L19.3421875,7.97900391 L19.3421875,13 L20.0291992,13 Z M23.0737305,13.1333008 C23.5340169,13.1333008 23.9134115,13.0489909 24.2119141,12.8803711 C24.3896484,12.7823893 24.5935872,12.6069336 24.8237305,12.3540039 L24.8237305,12.3540039 L24.987793,13 L25.425293,13 L25.425293,10.3134766 L23.2207031,10.3134766 L23.2207031,10.8774414 L24.7929688,10.8774414 C24.7861328,11.465332 24.6340332,11.8908691 24.3366699,12.1540527 C24.0393066,12.4172363 23.6638997,12.5488281 23.2104492,12.5488281 C22.6180013,12.5488281 22.1907552,12.3614095 21.9287109,11.9865723 C21.6666667,11.611735 21.5356445,11.1258138 21.5356445,10.5288086 C21.5356445,9.83837891 21.6945801,9.31884766 22.0124512,8.97021484 C22.3303223,8.62158203 22.7216797,8.44726562 23.1865234,8.44726562 C23.5784505,8.44726562 23.9031576,8.53100586 24.1606445,8.69848633 C24.4181315,8.8659668 24.5878906,9.13313802 24.6699219,9.5 L24.6699219,9.5 L25.3432617,9.5 C25.2316081,8.84375 24.9262695,8.38460286 24.4272461,8.12255859 C24.0831706,7.94026693 23.675293,7.84912109 23.2036133,7.84912109 C22.5154622,7.84912109 21.9549154,8.08610026 21.5219727,8.56005859 C21.0662435,9.05680339 20.8383789,9.72558594 20.8383789,10.5664062 C20.8383789,11.4095052 21.0719401,12.0725911 21.5390625,12.5556641 C21.9674479,12.9407552 22.4790039,13.1333008 23.0737305,13.1333008 Z M28.4185547,13.1333008 C28.8788411,13.1333008 29.2582357,13.0489909 29.5567383,12.8803711 C29.7344727,12.7823893 29.9384115,12.6069336 30.1685547,12.3540039 L30.1685547,12.3540039 L30.3326172,13 L30.7701172,13 L30.7701172,10.3134766 L28.5655273,10.3134766 L28.5655273,10.8774414 L30.137793,10.8774414 C30.130957,11.465332 29.9788574,11.8908691 29.6814941,12.1540527 C29.3841309,12.4172363 29.008724,12.5488281 28.5552734,12.5488281 C27.9628255,12.5488281 27.5355794,12.3614095 27.2735352,11.9865723 C27.0114909,11.611735 26.8804687,11.1258138 26.8804687,10.5288086 C26.8804687,9.83837891 27.0394043,9.31884766 27.3572754,8.97021484 C27.6751465,8.62158203 28.0665039,8.44726562 28.5313477,8.44726562 C28.9232747,8.44726562 29.2479818,8.53100586 29.5054687,8.69848633 C29.7629557,8.8659668 29.9327148,9.13313802 30.0147461,9.5 L30.0147461,9.5 L30.6880859,9.5 C30.5764323,8.84375 30.2710937,8.38460286 29.7720703,8.12255859 C29.4279948,7.94026693 29.0201172,7.84912109 28.5484375,7.84912109 C27.8602865,7.84912109 27.2997396,8.08610026 26.8667969,8.56005859 C26.4110677,9.05680339 26.1832031,9.72558594 26.1832031,10.5664062 C26.1832031,11.4095052 26.4167643,12.0725911 26.8838867,12.5556641 C27.3122721,12.9407552 27.8238281,13.1333008 28.4185547,13.1333008 Z M35.499707,13 L35.499707,12.4018555 L32.4508789,12.4018555 L32.4508789,10.699707 L35.2228516,10.699707 L35.2228516,10.1186523 L32.4508789,10.1186523 L32.4508789,8.59423828 L35.4484375,8.59423828 L35.4484375,7.97900391 L31.787793,7.97900391 L31.787793,13 L35.499707,13 Z M37.0540039,13 L37.0540039,10.8466797 L38.6023437,10.8466797 C38.8803385,10.8466797 39.0842773,10.8774414 39.2141602,10.9389648 C39.4420247,11.0506185 39.5639323,11.2705078 39.5798828,11.5986328 L39.5798828,11.5986328 L39.6208984,12.4360352 C39.630013,12.6319987 39.6414062,12.7641602 39.6550781,12.8325195 C39.66875,12.9008789 39.6869792,12.9567057 39.7097656,13 L39.7097656,13 L40.54375,13 L40.54375,12.887207 C40.4389323,12.8416341 40.3660156,12.7390951 40.325,12.5795898 C40.2999349,12.4861654 40.2839844,12.34375 40.2771484,12.1523438 L40.2771484,12.1523438 L40.2532227,11.4790039 C40.2418294,11.1873372 40.1865723,10.9765625 40.0874512,10.8466797 C39.9883301,10.7167969 39.8407878,10.6119792 39.6448242,10.5322266 C39.8681315,10.4160156 40.0418783,10.262207 40.1660645,10.0708008 C40.2902507,9.87939453 40.3523437,9.63330078 40.3523437,9.33251953 C40.3523437,8.75602214 40.1165039,8.36067708 39.6448242,8.14648438 C39.3964518,8.03483073 39.0808594,7.97900391 38.6980469,7.97900391 L38.6980469,7.97900391 L36.3738281,7.97900391 L36.3738281,13 L37.0540039,13 Z M38.6262695,10.2792969 L37.0540039,10.2792969 L37.0540039,8.56347656 L38.7151367,8.56347656 C38.9475586,8.56347656 39.1332682,8.59765625 39.2722656,8.66601562 C39.5320312,8.79589844 39.6619141,9.03971354 39.6619141,9.39746094 C39.6619141,9.73014323 39.5690592,9.96028646 39.3833496,10.0878906 C39.19764,10.2154948 38.9452799,10.2792969 38.6262695,10.2792969 L38.6262695,10.2792969 Z" id="RETRIGGER" fill="#252525"></path>
        </g>
    </g>
</svg>