<?xml version="1.0" encoding="UTF-8"?>
<svg width="48px" height="56px" viewBox="0 0 48 56" version="1.1" xmlns="http://www.w3.org/2000/svg" xmlns:xlink="http://www.w3.org/1999/xlink">
    <defs>
        <linearGradient x1="100%" y1="50%" x2="0.551625845%" y2="50%" id="linearGradient-1">
            <stop stop-color="#656565" offset="0%"></stop>
            <stop stop-color="#A2A2A2" offset="15.3900812%"></stop>
            <stop stop-color="#AEAEAE" offset="84.0974507%"></stop>
            <stop stop-color="#D9D9D9" offset="100%"></stop>
        </linearGradient>
        <linearGradient x1="99.2688978%" y1="50%" x2="0%" y2="50%" id="linearGradient-2">
            <stop stop-color="#606C8E" offset="0%"></stop>
            <stop stop-color="#8E9FCE" offset="15.7277961%"></stop>
            <stop stop-color="#8E9FCE" offset="84.2310855%"></stop>
            <stop stop-color="#BFCAE8" offset="100%"></stop>
        </linearGradient>
        <linearGradient x1="100%" y1="50%" x2="0%" y2="50%" id="linearGradient-3">
            <stop stop-color="#606C8E" offset="0.731102196%"></stop>
            <stop stop-color="#8E9FCE" offset="15.7277961%"></stop>
            <stop stop-color="#8E9FCE" offset="84.2310855%"></stop>
            <stop stop-color="#BFCAE8" offset="100%"></stop>
        </linearGradient>
    </defs>
    <g id="bmp00157" stroke="none" stroke-width="1" fill="none" fill-rule="evenodd">
        <rect id="Rectangle" fill-opacity="0.1" fill="#000000" transform="translate(33.500000, 12.000000) rotate(-270.000000) translate(-33.500000, -12.000000) " x="23.5" y="4.5" width="20" height="15" rx="5"></rect>
        <rect id="Rectangle" fill-opacity="0.1" fill="#000000" transform="translate(9.500000, 12.000000) rotate(-270.000000) translate(-9.500000, -12.000000) " x="-0.5" y="4.5" width="20" height="15" rx="5"></rect>
        <rect id="Rectangle" fill-opacity="0.1" fill="#000000" transform="translate(33.500000, 40.000000) rotate(-270.000000) translate(-33.500000, -40.000000) " x="23.5" y="32.5" width="20" height="15" rx="5"></rect>
        <rect id="Rectangle" fill-opacity="0.1" fill="#000000" transform="translate(9.500000, 40.000000) rotate(-270.000000) translate(-9.500000, -40.000000) " x="-0.5" y="32.5" width="20" height="15" rx="5"></rect>
        <rect id="Rectangle" stroke="#262626" fill="url(#linearGradient-1)" transform="translate(9.000000, 11.500000) rotate(-270.000000) translate(-9.000000, -11.500000) " x="-1.77635684e-15" y="5" width="18" height="13" rx="5"></rect>
        <rect id="Rectangle" stroke="#262626" fill="url(#linearGradient-1)" transform="translate(9.000000, 39.500000) rotate(-270.000000) translate(-9.000000, -39.500000) " x="-1.77635684e-15" y="33" width="18" height="13" rx="5"></rect>
        <rect id="Rectangle" stroke="#141D39" fill="url(#linearGradient-2)" transform="translate(33.000000, 11.500000) rotate(-270.000000) translate(-33.000000, -11.500000) " x="24" y="5" width="18" height="13" rx="5"></rect>
        <rect id="Rectangle" stroke="#141D39" fill="url(#linearGradient-3)" transform="translate(33.000000, 39.500000) rotate(-270.000000) translate(-33.000000, -39.500000) " x="24" y="33" width="18" height="13" rx="5"></rect>
        <path d="M16,8 C10.6666667,8 7.33333333,8 6,8 C4,8 3,10 3,11 C3,11.6666667 3,13.6666667 3,17" id="Path-12" stroke-opacity="0.05" stroke="#000000" stroke-width="2" transform="translate(9.500000, 12.500000) scale(-1, 1) rotate(-90.000000) translate(-9.500000, -12.500000) "></path>
        <path d="M14.5,6.5 C9.16666667,6.5 5.83333333,6.5 4.5,6.5 C2.5,6.5 1.5,8.5 1.5,9.5 C1.5,10.1666667 1.5,11.8333333 1.5,14.5" id="Path-12" stroke-opacity="0.15" stroke="#FFFFFF" stroke-width="2" transform="translate(8.000000, 10.500000) scale(-1, 1) rotate(-270.000000) translate(-8.000000, -10.500000) "></path>
        <path d="M16,36 C10.6666667,36 7.33333333,36 6,36 C4,36 3,38 3,39 C3,39.6666667 3,41.6666667 3,45" id="Path-12" stroke-opacity="0.05" stroke="#000000" stroke-width="2" transform="translate(9.500000, 40.500000) scale(-1, 1) rotate(-90.000000) translate(-9.500000, -40.500000) "></path>
        <path d="M14.5,34.5 C9.16666667,34.5 5.83333333,34.5 4.5,34.5 C2.5,34.5 1.5,36.5 1.5,37.5 C1.5,38.1666667 1.5,39.8333333 1.5,42.5" id="Path-12" stroke-opacity="0.15" stroke="#FFFFFF" stroke-width="2" transform="translate(8.000000, 38.500000) scale(-1, 1) rotate(-270.000000) translate(-8.000000, -38.500000) "></path>
        <path d="M40,36 C34.6666667,36 31.3333333,36 30,36 C28,36 27,38 27,39 C27,39.6666667 27,41.6666667 27,45" id="Path-12" stroke-opacity="0.05" stroke="#000000" stroke-width="2" transform="translate(33.500000, 40.500000) scale(-1, 1) rotate(-90.000000) translate(-33.500000, -40.500000) "></path>
        <path d="M38.5,34.5 C33.1666667,34.5 29.8333333,34.5 28.5,34.5 C26.5,34.5 25.5,36.5 25.5,37.5 C25.5,38.1666667 25.5,39.8333333 25.5,42.5" id="Path-12" stroke-opacity="0.15" stroke="#FFFFFF" stroke-width="2" transform="translate(32.000000, 38.500000) scale(-1, 1) rotate(-270.000000) translate(-32.000000, -38.500000) "></path>
        <path d="M40,8 C34.6666667,8 31.3333333,8 30,8 C28,8 27,10 27,11 C27,11.6666667 27,13.6666667 27,17" id="Path-12" stroke-opacity="0.05" stroke="#000000" stroke-width="2" transform="translate(33.500000, 12.500000) scale(-1, 1) rotate(-90.000000) translate(-33.500000, -12.500000) "></path>
        <path d="M38.5,6.5 C33.1666667,6.5 29.8333333,6.5 28.5,6.5 C26.5,6.5 25.5,8.5 25.5,9.5 C25.5,10.1666667 25.5,11.8333333 25.5,14.5" id="Path-12" stroke-opacity="0.15" stroke="#FFFFFF" stroke-width="2" transform="translate(32.000000, 10.500000) scale(-1, 1) rotate(-270.000000) translate(-32.000000, -10.500000) "></path>
        <rect id="Rectangle" fill-opacity="0.1" fill="#FFFFFF" transform="translate(9.000000, 12.500000) scale(-1, 1) rotate(-270.000000) translate(-9.000000, -12.500000) " x="8.5" y="8.5" width="1" height="8"></rect>
        <rect id="Rectangle" fill-opacity="0.1" fill="#FFFFFF" transform="translate(33.000000, 12.500000) scale(-1, 1) rotate(-270.000000) translate(-33.000000, -12.500000) " x="32.5" y="8.5" width="1" height="8"></rect>
        <rect id="Rectangle" fill-opacity="0.1" fill="#FFFFFF" transform="translate(9.000000, 40.500000) scale(-1, 1) rotate(-270.000000) translate(-9.000000, -40.500000) " x="8.5" y="36.5" width="1" height="8"></rect>
        <rect id="Rectangle" fill-opacity="0.1" fill="#FFFFFF" transform="translate(33.000000, 40.500000) scale(-1, 1) rotate(-270.000000) translate(-33.000000, -40.500000) " x="32.5" y="36.5" width="1" height="8"></rect>
        <rect id="Rectangle" fill="#5D6266" transform="translate(9.000000, 11.500000) rotate(-270.000000) translate(-9.000000, -11.500000) " x="8.5" y="6.5" width="1" height="10"></rect>
        <rect id="Rectangle" fill="#5D6266" transform="translate(9.000000, 39.500000) rotate(-270.000000) translate(-9.000000, -39.500000) " x="8.5" y="34.5" width="1" height="10"></rect>
        <rect id="Rectangle" fill="#394F8A" transform="translate(33.000000, 11.500000) rotate(-270.000000) translate(-33.000000, -11.500000) " x="32.5" y="6.5" width="1" height="10"></rect>
        <rect id="Rectangle" fill="#394F8A" transform="translate(33.000000, 39.500000) rotate(-270.000000) translate(-33.000000, -39.500000) " x="32.5" y="34.5" width="1" height="10"></rect>
    </g>
</svg>