<?xml version="1.0" encoding="UTF-8"?>
<svg width="43px" height="14px" viewBox="0 0 43 14" version="1.1" xmlns="http://www.w3.org/2000/svg" xmlns:xlink="http://www.w3.org/1999/xlink">
    <!-- Generator: Sketch 63.1 (92452) - https://sketch.com -->
    <title>bmp00125</title>
    <desc>Created with Sketch.</desc>
    <g id="bmp00125" stroke="none" stroke-width="1" fill="none" fill-rule="evenodd">
        <g id="Group" transform="translate(0.000000, 7.000000)" fill="#FFA01C">
            <rect id="Rectangle" x="0" y="0" width="43" height="7"></rect>
        </g>
        <g id="Group-4" transform="translate(1.000000, 1.000000)"></g>
        <g id="Group-4" transform="translate(1.000000, 8.000000)"></g>
        <g id="Group-5-Copy" transform="translate(3.000000, 0.000000)" fill-rule="nonzero">
            <path d="M1.19628906,6 L1.19628906,4.25 L1.99951172,3.48095703 L3.75634766,6 L4.64160156,6 L2.49511719,3.00244141 L4.58349609,0.979003906 L3.64355469,0.979003906 L1.19628906,3.42626953 L1.19628906,0.979003906 L0.533203125,0.979003906 L0.533203125,6 L1.19628906,6 Z M8.87900391,6 L8.87900391,5.40185547 L5.83017578,5.40185547 L5.83017578,3.69970703 L8.60214844,3.69970703 L8.60214844,3.11865234 L5.83017578,3.11865234 L5.83017578,1.59423828 L8.82773438,1.59423828 L8.82773438,0.979003906 L5.16708984,0.979003906 L5.16708984,6 L8.87900391,6 Z M11.8585938,6 L11.8585938,3.9765625 L13.7555664,0.979003906 L12.9591797,0.979003906 L11.5167969,3.39208984 L10.0744141,0.979003906 L9.28144531,0.979003906 L11.178418,3.9765625 L11.178418,6 L11.8585938,6 Z M16.2019531,6 L16.2019531,1.57714844 L17.8938477,1.57714844 L17.8938477,0.979003906 L13.8196289,0.979003906 L13.8196289,1.57714844 L15.5115234,1.57714844 L15.5115234,6 L16.2019531,6 Z M19.178125,6 L19.178125,3.84667969 L20.7264648,3.84667969 C21.0044596,3.84667969 21.2083984,3.87744141 21.3382813,3.93896484 C21.5661458,4.05061849 21.6880534,4.27050781 21.7040039,4.59863281 L21.7040039,4.59863281 L21.7450195,5.43603516 C21.7541341,5.6319987 21.7655273,5.76416016 21.7791992,5.83251953 C21.7928711,5.90087891 21.8111003,5.95670573 21.8338867,6 L21.8338867,6 L22.6678711,6 L22.6678711,5.88720703 C22.5630534,5.84163411 22.4901367,5.73909505 22.4491211,5.57958984 C22.424056,5.48616536 22.4081055,5.34375 22.4012695,5.15234375 L22.4012695,5.15234375 L22.3773438,4.47900391 C22.3659505,4.18733724 22.3106934,3.9765625 22.2115723,3.84667969 C22.1124512,3.71679688 21.9649089,3.61197917 21.7689453,3.53222656 C21.9922526,3.41601562 22.1659993,3.26220703 22.2901855,3.07080078 C22.4143717,2.87939453 22.4764648,2.63330078 22.4764648,2.33251953 C22.4764648,1.75602214 22.240625,1.36067708 21.7689453,1.14648438 C21.5205729,1.03483073 21.2049805,0.979003906 20.822168,0.979003906 L20.822168,0.979003906 L18.4979492,0.979003906 L18.4979492,6 L19.178125,6 Z M20.7503906,3.27929688 L19.178125,3.27929688 L19.178125,1.56347656 L20.8392578,1.56347656 C21.0716797,1.56347656 21.2573893,1.59765625 21.3963867,1.66601562 C21.6561523,1.79589844 21.7860352,2.03971354 21.7860352,2.39746094 C21.7860352,2.73014323 21.6931803,2.96028646 21.5074707,3.08789062 C21.3217611,3.21549479 21.069401,3.27929688 20.7503906,3.27929688 L20.7503906,3.27929688 Z M23.6376953,6 L24.1811523,4.49609375 L26.1669922,4.49609375 L26.6762695,6 L27.4213867,6 L25.5996094,0.979003906 L24.8305664,0.979003906 L22.9404297,6 L23.6376953,6 Z M25.9482422,3.94238281 L24.3759766,3.94238281 L25.1860352,1.72412109 L25.9482422,3.94238281 Z M29.9668945,6.12988281 C30.6436523,6.12988281 31.1814128,5.91455078 31.5801758,5.48388672 C31.9128581,5.12613932 32.1088216,4.68294271 32.1680664,4.15429688 L32.1680664,4.15429688 L31.5049805,4.15429688 C31.4366211,4.48470052 31.3329427,4.75130208 31.1939453,4.95410156 C30.931901,5.33919271 30.5502279,5.53173828 30.0489258,5.53173828 C29.5043294,5.53173828 29.0947428,5.34887695 28.820166,4.9831543 C28.5455892,4.61743164 28.4083008,4.140625 28.4083008,3.55273437 C28.4083008,2.83496094 28.5604004,2.30232747 28.8645996,1.95483398 C29.1687988,1.60734049 29.5681315,1.43359375 30.0625977,1.43359375 C30.4681966,1.43359375 30.7832194,1.52815755 31.007666,1.71728516 C31.2321126,1.90641276 31.3819336,2.16276042 31.4571289,2.48632812 L31.4571289,2.48632812 L32.1202148,2.48632812 C32.0814779,2.06022135 31.8866536,1.6796875 31.5357422,1.34472656 C31.1848307,1.00976562 30.6915039,0.842285156 30.0557617,0.842285156 C29.3106445,0.842285156 28.7261719,1.09977214 28.3023437,1.61474609 C27.9104167,2.08870443 27.7144531,2.69596354 27.7144531,3.43652344 C27.7144531,4.41178385 27.9753581,5.13297526 28.497168,5.60009766 C28.8936523,5.95328776 29.3835612,6.12988281 29.9668945,6.12988281 Z M33.5583008,6 L33.5583008,4.25 L34.3615234,3.48095703 L36.1183594,6 L37.0036133,6 L34.8571289,3.00244141 L36.9455078,0.979003906 L36.0055664,0.979003906 L33.5583008,3.42626953 L33.5583008,0.979003906 L32.8952148,0.979003906 L32.8952148,6 L33.5583008,6 Z" id="KEYTRACK" fill="#FFA01C"></path>
            <path d="M1.19628906,13 L1.19628906,11.25 L1.99951172,10.480957 L3.75634766,13 L4.64160156,13 L2.49511719,10.0024414 L4.58349609,7.97900391 L3.64355469,7.97900391 L1.19628906,10.4262695 L1.19628906,7.97900391 L0.533203125,7.97900391 L0.533203125,13 L1.19628906,13 Z M8.87900391,13 L8.87900391,12.4018555 L5.83017578,12.4018555 L5.83017578,10.699707 L8.60214844,10.699707 L8.60214844,10.1186523 L5.83017578,10.1186523 L5.83017578,8.59423828 L8.82773438,8.59423828 L8.82773438,7.97900391 L5.16708984,7.97900391 L5.16708984,13 L8.87900391,13 Z M11.8585938,13 L11.8585938,10.9765625 L13.7555664,7.97900391 L12.9591797,7.97900391 L11.5167969,10.3920898 L10.0744141,7.97900391 L9.28144531,7.97900391 L11.178418,10.9765625 L11.178418,13 L11.8585938,13 Z M16.2019531,13 L16.2019531,8.57714844 L17.8938477,8.57714844 L17.8938477,7.97900391 L13.8196289,7.97900391 L13.8196289,8.57714844 L15.5115234,8.57714844 L15.5115234,13 L16.2019531,13 Z M19.178125,13 L19.178125,10.8466797 L20.7264648,10.8466797 C21.0044596,10.8466797 21.2083984,10.8774414 21.3382813,10.9389648 C21.5661458,11.0506185 21.6880534,11.2705078 21.7040039,11.5986328 L21.7040039,11.5986328 L21.7450195,12.4360352 C21.7541341,12.6319987 21.7655273,12.7641602 21.7791992,12.8325195 C21.7928711,12.9008789 21.8111003,12.9567057 21.8338867,13 L21.8338867,13 L22.6678711,13 L22.6678711,12.887207 C22.5630534,12.8416341 22.4901367,12.7390951 22.4491211,12.5795898 C22.424056,12.4861654 22.4081055,12.34375 22.4012695,12.1523438 L22.4012695,12.1523438 L22.3773438,11.4790039 C22.3659505,11.1873372 22.3106934,10.9765625 22.2115723,10.8466797 C22.1124512,10.7167969 21.9649089,10.6119792 21.7689453,10.5322266 C21.9922526,10.4160156 22.1659993,10.262207 22.2901855,10.0708008 C22.4143717,9.87939453 22.4764648,9.63330078 22.4764648,9.33251953 C22.4764648,8.75602214 22.240625,8.36067708 21.7689453,8.14648438 C21.5205729,8.03483073 21.2049805,7.97900391 20.822168,7.97900391 L20.822168,7.97900391 L18.4979492,7.97900391 L18.4979492,13 L19.178125,13 Z M20.7503906,10.2792969 L19.178125,10.2792969 L19.178125,8.56347656 L20.8392578,8.56347656 C21.0716797,8.56347656 21.2573893,8.59765625 21.3963867,8.66601562 C21.6561523,8.79589844 21.7860352,9.03971354 21.7860352,9.39746094 C21.7860352,9.73014323 21.6931803,9.96028646 21.5074707,10.0878906 C21.3217611,10.2154948 21.069401,10.2792969 20.7503906,10.2792969 L20.7503906,10.2792969 Z M23.6376953,13 L24.1811523,11.4960938 L26.1669922,11.4960938 L26.6762695,13 L27.4213867,13 L25.5996094,7.97900391 L24.8305664,7.97900391 L22.9404297,13 L23.6376953,13 Z M25.9482422,10.9423828 L24.3759766,10.9423828 L25.1860352,8.72412109 L25.9482422,10.9423828 Z M29.9668945,13.1298828 C30.6436523,13.1298828 31.1814128,12.9145508 31.5801758,12.4838867 C31.9128581,12.1261393 32.1088216,11.6829427 32.1680664,11.1542969 L32.1680664,11.1542969 L31.5049805,11.1542969 C31.4366211,11.4847005 31.3329427,11.7513021 31.1939453,11.9541016 C30.931901,12.3391927 30.5502279,12.5317383 30.0489258,12.5317383 C29.5043294,12.5317383 29.0947428,12.348877 28.820166,11.9831543 C28.5455892,11.6174316 28.4083008,11.140625 28.4083008,10.5527344 C28.4083008,9.83496094 28.5604004,9.30232747 28.8645996,8.95483398 C29.1687988,8.60734049 29.5681315,8.43359375 30.0625977,8.43359375 C30.4681966,8.43359375 30.7832194,8.52815755 31.007666,8.71728516 C31.2321126,8.90641276 31.3819336,9.16276042 31.4571289,9.48632812 L31.4571289,9.48632812 L32.1202148,9.48632812 C32.0814779,9.06022135 31.8866536,8.6796875 31.5357422,8.34472656 C31.1848307,8.00976562 30.6915039,7.84228516 30.0557617,7.84228516 C29.3106445,7.84228516 28.7261719,8.09977214 28.3023437,8.61474609 C27.9104167,9.08870443 27.7144531,9.69596354 27.7144531,10.4365234 C27.7144531,11.4117839 27.9753581,12.1329753 28.497168,12.6000977 C28.8936523,12.9532878 29.3835612,13.1298828 29.9668945,13.1298828 Z M33.5583008,13 L33.5583008,11.25 L34.3615234,10.480957 L36.1183594,13 L37.0036133,13 L34.8571289,10.0024414 L36.9455078,7.97900391 L36.0055664,7.97900391 L33.5583008,10.4262695 L33.5583008,7.97900391 L32.8952148,7.97900391 L32.8952148,13 L33.5583008,13 Z" id="KEYTRACK" fill="#252525"></path>
        </g>
    </g>
</svg>