<?xml version="1.0" encoding="UTF-8"?>
<svg width="37px" height="24px" viewBox="0 0 37 24" version="1.1" xmlns="http://www.w3.org/2000/svg" xmlns:xlink="http://www.w3.org/1999/xlink">
    <!-- Generator: Sketch 63.1 (92452) - https://sketch.com -->
    <title>bmp00149</title>
    <desc>Created with Sketch.</desc>
    <defs>
        <rect id="path-1" x="0" y="0" width="37" height="12" rx="2"></rect>
        <filter x="-0.7%" y="-2.1%" width="101.4%" height="108.3%" filterUnits="objectBoundingBox" id="filter-2">
            <feOffset dx="0" dy="0.5" in="SourceAlpha" result="shadowOffsetOuter1"></feOffset>
            <feComposite in="shadowOffsetOuter1" in2="SourceAlpha" operator="out" result="shadowOffsetOuter1"></feComposite>
            <feColorMatrix values="0 0 0 0 1   0 0 0 0 1   0 0 0 0 1  0 0 0 0.05 0" type="matrix" in="shadowOffsetOuter1"></feColorMatrix>
        </filter>
        <rect id="path-3" x="0" y="0" width="37" height="12" rx="2"></rect>
        <filter x="-0.7%" y="-2.1%" width="101.4%" height="108.3%" filterUnits="objectBoundingBox" id="filter-4">
            <feOffset dx="0" dy="0.5" in="SourceAlpha" result="shadowOffsetOuter1"></feOffset>
            <feComposite in="shadowOffsetOuter1" in2="SourceAlpha" operator="out" result="shadowOffsetOuter1"></feComposite>
            <feColorMatrix values="0 0 0 0 1   0 0 0 0 1   0 0 0 0 1  0 0 0 0.05 0" type="matrix" in="shadowOffsetOuter1"></feColorMatrix>
        </filter>
    </defs>
    <g id="bmp00149" stroke="none" stroke-width="1" fill="none" fill-rule="evenodd">
        <g id="Group-2">
            <g id="button/smallButton">
                <g id="Rectangle">
                    <use fill="black" fill-opacity="1" filter="url(#filter-2)" xlink:href="#path-1"></use>
                    <rect stroke="#0F0F0F" stroke-width="1" stroke-linejoin="square" fill="#242424" fill-rule="evenodd" x="0.5" y="0.5" width="36" height="11" rx="2"></rect>
                </g>
            </g>
            <g id="Group" transform="translate(7.000000, 3.000000)">
                <rect id="Rectangle" fill="#7F7F7F" x="0" y="2" width="6" height="2"></rect>
                <rect id="Rectangle" fill="#0F0F0F" x="11" y="0" width="1" height="6"></rect>
                <path d="M21,0 L21,2 L23,2 L23,4 L21,4 L21,6 L19,6 L19,4 L17,4 L17,2 L19,2 L19,0 L21,0 Z" id="Combined-Shape" fill="#7F7F7F"></path>
            </g>
        </g>
        <g id="Group-2" transform="translate(0.000000, 12.000000)">
            <g id="button/smallButton">
                <g id="Rectangle">
                    <use fill="black" fill-opacity="1" filter="url(#filter-4)" xlink:href="#path-3"></use>
                    <rect stroke="#0F0F0F" stroke-width="1" stroke-linejoin="square" fill="#242424" fill-rule="evenodd" x="0.5" y="0.5" width="36" height="11" rx="2"></rect>
                </g>
            </g>
            <g id="Group" transform="translate(7.000000, 3.000000)">
                <rect id="Rectangle" fill="#7F7F7F" x="0" y="2" width="6" height="2"></rect>
                <rect id="Rectangle" fill="#0F0F0F" x="11" y="0" width="1" height="6"></rect>
                <path d="M21,0 L21,2 L23,2 L23,4 L21,4 L21,6 L19,6 L19,4 L17,4 L17,2 L19,2 L19,0 L21,0 Z" id="Combined-Shape" fill="#7F7F7F"></path>
            </g>
        </g>
    </g>
</svg>