<?xml version="1.0" encoding="UTF-8"?>
<svg width="41px" height="144px" viewBox="0 0 41 144" version="1.1" xmlns="http://www.w3.org/2000/svg" xmlns:xlink="http://www.w3.org/1999/xlink">
    <!-- Generator: Sketch 63.1 (92452) - https://sketch.com -->
    <title>bmp00119</title>
    <desc>Created with Sketch.</desc>
    <g id="bmp00119" stroke="none" stroke-width="1" fill="none" fill-rule="evenodd">
        <g id="Stacked-Group" transform="translate(1.000000, 1.000000)" fill="#000000">
            <rect id="Rectangle" x="0" y="18" width="39" height="13"></rect>
            <rect id="Rectangle" x="0" y="0" width="39" height="13"></rect>
            <rect id="Rectangle" x="0" y="126" width="39" height="13"></rect>
            <rect id="Rectangle" x="0" y="108" width="39" height="13"></rect>
            <rect id="Rectangle" x="0" y="90" width="39" height="13"></rect>
            <rect id="Rectangle" x="0" y="72" width="39" height="13"></rect>
            <rect id="Rectangle" x="0" y="54" width="39" height="13"></rect>
            <rect id="Rectangle" x="0" y="36" width="39" height="13"></rect>
        </g>
        <g id="Group-11" transform="translate(2.000000, 5.000000)">
            <g id="Group-10" transform="translate(32.000000, 1.000000)" fill="#FF9000">
                <polygon id="Triangle" transform="translate(2.500000, 1.500000) rotate(-180.000000) translate(-2.500000, -1.500000) " points="2.5 0 5 3 0 3"></polygon>
                <polygon id="Triangle" transform="translate(2.500000, 19.500000) rotate(-180.000000) translate(-2.500000, -19.500000) " points="2.5 18 5 21 0 21"></polygon>
                <polygon id="Triangle" transform="translate(2.500000, 37.500000) rotate(-180.000000) translate(-2.500000, -37.500000) " points="2.5 36 5 39 0 39"></polygon>
                <polygon id="Triangle" transform="translate(2.500000, 55.500000) rotate(-180.000000) translate(-2.500000, -55.500000) " points="2.5 54 5 57 0 57"></polygon>
                <polygon id="Triangle" transform="translate(2.500000, 73.500000) rotate(-180.000000) translate(-2.500000, -73.500000) " points="2.5 72 5 75 0 75"></polygon>
                <polygon id="Triangle" transform="translate(2.500000, 91.500000) rotate(-180.000000) translate(-2.500000, -91.500000) " points="2.5 90 5 93 0 93"></polygon>
                <polygon id="Triangle" transform="translate(2.500000, 109.500000) rotate(-180.000000) translate(-2.500000, -109.500000) " points="2.5 108 5 111 0 111"></polygon>
                <polygon id="Triangle" transform="translate(2.500000, 127.500000) rotate(-180.000000) translate(-2.500000, -127.500000) " points="2.5 126 5 129 0 129"></polygon>
            </g>
            <g id="Group-10" transform="translate(32.000000, 19.000000)"></g>
            <g id="Group-10" transform="translate(32.000000, 37.000000)"></g>
            <g id="Group-10" transform="translate(32.000000, 55.000000)"></g>
            <g id="Group-10" transform="translate(32.000000, 73.000000)"></g>
            <g id="Group-10" transform="translate(32.000000, 91.000000)"></g>
            <g id="Group-10" transform="translate(32.000000, 109.000000)"></g>
            <g id="Group-10" transform="translate(32.000000, 127.000000)"></g>
            <g id="Group-4" transform="translate(0.000000, 36.000000)"></g>
            <g id="Group-6" transform="translate(0.000000, 54.000000)"></g>
        </g>
        <g id="Group-22-Copy" transform="translate(2.000000, 3.000000)" fill="#FF9000" fill-rule="nonzero">
            <path d="M3.709,7.056 C4.129,7.056 4.48891667,6.98833333 4.78875,6.853 C5.08858333,6.71766667 5.34116667,6.52283333 5.5465,6.2685 L5.5465,6.2685 L5.1755,5.866 C5.13583333,5.82633333 5.09033333,5.8065 5.039,5.8065 C5.011,5.8065 4.98416667,5.81291667 4.9585,5.82575 C4.93283333,5.83858333 4.90833333,5.8555 4.885,5.8765 C4.808,5.9465 4.73041667,6.00541667 4.65225,6.05325 C4.57408333,6.10108333 4.49125,6.14016667 4.40375,6.1705 C4.31625,6.20083333 4.22058333,6.223 4.11675,6.237 C4.01291667,6.251 3.89683333,6.258 3.7685,6.258 C3.55383333,6.258 3.35316667,6.21775 3.1665,6.13725 C2.97983333,6.05675 2.81766667,5.94066667 2.68,5.789 C2.54233333,5.63733333 2.43325,5.45066667 2.35275,5.229 C2.27225,5.00733333 2.232,4.75416667 2.232,4.4695 C2.232,4.18716667 2.26933333,3.93575 2.344,3.71525 C2.41866667,3.49475 2.52366667,3.30808333 2.659,3.15525 C2.79433333,3.00241667 2.95591667,2.88575 3.14375,2.80525 C3.33158333,2.72475 3.53866667,2.6845 3.765,2.6845 C3.898,2.6845 4.01525,2.69441667 4.11675,2.71425 C4.21825,2.73408333 4.3075,2.75858333 4.3845,2.78775 C4.4615,2.81691667 4.52916667,2.849 4.5875,2.884 C4.64583333,2.919 4.69716667,2.95108333 4.7415,2.98025 C4.78583333,3.00941667 4.82666667,3.03391667 4.864,3.05375 C4.90133333,3.07358333 4.9375,3.0835 4.9725,3.0835 C5.02383333,3.0835 5.06408333,3.073 5.09325,3.052 C5.12241667,3.031 5.14633333,3.0065 5.165,2.9785 L5.165,2.9785 L5.48,2.541 C5.27933333,2.345 5.03608333,2.18633333 4.75025,2.065 C4.46441667,1.94366667 4.13716667,1.883 3.7685,1.883 C3.3975,1.883 3.05916667,1.94658333 2.7535,2.07375 C2.44783333,2.20091667 2.18475,2.37883333 1.96425,2.6075 C1.74375,2.83616667 1.57283333,3.10858333 1.4515,3.42475 C1.33016667,3.74091667 1.2695,4.08916667 1.2695,4.4695 C1.2695,4.84516667 1.32608333,5.19166667 1.43925,5.509 C1.55241667,5.82633333 1.71516667,6.09933333 1.9275,6.328 C2.13983333,6.55666667 2.39591667,6.73516667 2.69575,6.8635 C2.99558333,6.99183333 3.33333333,7.056 3.709,7.056 Z M9.47849999,7 L9.47849999,6.223 L7.45549999,6.223 L7.45549999,1.939 L6.51399999,1.939 L6.51399999,7 L9.47849999,7 Z M10.6035,7 C10.6828333,7 10.7493333,6.97783333 10.803,6.9335 C10.8566667,6.88916667 10.8928333,6.84016667 10.9115,6.7865 L10.9115,6.7865 L11.2895,5.754 L13.386,5.754 L13.764,6.7865 C13.7896667,6.84716667 13.8281667,6.89791667 13.8795,6.93875 C13.9308333,6.97958333 13.9973333,7 14.079,7 L14.079,7 L14.807,7 L12.819,1.939 L11.86,1.939 L9.86849999,7 L10.6035,7 Z M13.1445,5.089 L11.5345,5.089 L12.147,3.4125 C12.1773333,3.3355 12.2088333,3.24508333 12.2415,3.14125 C12.2741667,3.03741667 12.3056667,2.926 12.336,2.807 C12.3686667,2.926 12.4013333,3.03683333 12.434,3.1395 C12.4666667,3.24216667 12.4981667,3.33083333 12.5285,3.4055 L12.5285,3.4055 L13.1445,5.089 Z M16.9155,7.056 C17.1955,7.056 17.444,7.01341667 17.661,6.92825 C17.878,6.84308333 18.06175,6.72641667 18.21225,6.57825 C18.36275,6.43008333 18.4770833,6.25625 18.55525,6.05675 C18.6334166,5.85725 18.6725,5.64316667 18.6725,5.4145 C18.6725,5.2045 18.63925,5.026 18.57275,4.879 C18.50625,4.732 18.4181666,4.60775 18.3085,4.50625 C18.1988333,4.40475 18.074,4.32075 17.934,4.25425 C17.794,4.18775 17.6505,4.12941667 17.5035,4.07925 C17.3565,4.02908333 17.213,3.98183333 17.073,3.9375 C16.933,3.89316667 16.8081666,3.843 16.6985,3.787 C16.5888333,3.731 16.50075,3.66333333 16.43425,3.584 C16.36775,3.50466667 16.3345,3.4055 16.3345,3.2865 C16.3345,3.19316667 16.3508333,3.10741667 16.3835,3.02925 C16.4161666,2.95108333 16.46575,2.884 16.53225,2.828 C16.59875,2.772 16.681,2.72825 16.779,2.69675 C16.877,2.66525 16.9913333,2.6495 17.122,2.6495 C17.2666666,2.6495 17.3920833,2.66758333 17.49825,2.70375 C17.6044166,2.73991667 17.6971666,2.78016667 17.7765,2.8245 C17.8558333,2.86883333 17.9240833,2.90908333 17.98125,2.94525 C18.0384166,2.98141667 18.0915,2.9995 18.1405,2.9995 C18.1871666,2.9995 18.22625,2.98841667 18.25775,2.96625 C18.28925,2.94408333 18.319,2.9085 18.347,2.8595 L18.347,2.8595 L18.5815,2.415 C18.4041666,2.247 18.1895,2.11633333 17.9375,2.023 C17.6855,1.92966667 17.4101666,1.883 17.1115,1.883 C16.8455,1.883 16.6098333,1.92383333 16.4045,2.0055 C16.1991666,2.08716667 16.0265,2.19566667 15.8865,2.331 C15.7465,2.46633333 15.63975,2.6215 15.56625,2.7965 C15.49275,2.9715 15.456,3.15116667 15.456,3.3355 C15.456,3.5665 15.48925,3.76075 15.55575,3.91825 C15.62225,4.07575 15.7103333,4.207 15.82,4.312 C15.9296666,4.417 16.0545,4.50216667 16.1945,4.5675 C16.3345,4.63283333 16.4768333,4.68883333 16.6215,4.7355 C16.7661666,4.78216667 16.9085,4.82533333 17.0485,4.865 C17.1885,4.90466667 17.3133333,4.95308333 17.423,5.01025 C17.5326666,5.06741667 17.62075,5.138 17.68725,5.222 C17.75375,5.306 17.787,5.4145 17.787,5.5475 C17.787,5.7855 17.7135,5.96808333 17.5665,6.09525 C17.4195,6.22241667 17.2118333,6.286 16.9435,6.286 C16.7685,6.286 16.6185833,6.26208333 16.49375,6.21425 C16.3689166,6.16641667 16.2598333,6.11333333 16.1665,6.055 C16.0731666,5.99666667 15.9926666,5.94358333 15.925,5.89575 C15.8573333,5.84791667 15.7943333,5.824 15.736,5.824 C15.694,5.824 15.6543333,5.83508333 15.617,5.85725 C15.5796666,5.87941667 15.5493333,5.90683333 15.526,5.9395 L15.526,5.9395 L15.2495,6.391 C15.3475,6.49133333 15.4595,6.58233333 15.5855,6.664 C15.7115,6.74566667 15.84625,6.81566667 15.98975,6.874 C16.13325,6.93233333 16.2831666,6.97725 16.4395,7.00875 C16.5958333,7.04025 16.7545,7.056 16.9155,7.056 Z M21.075,7.056 C21.355,7.056 21.6035,7.01341667 21.8205,6.92825 C22.0375,6.84308333 22.22125,6.72641667 22.37175,6.57825 C22.52225,6.43008333 22.6365833,6.25625 22.71475,6.05675 C22.7929166,5.85725 22.832,5.64316667 22.832,5.4145 C22.832,5.2045 22.79875,5.026 22.73225,4.879 C22.66575,4.732 22.5776666,4.60775 22.468,4.50625 C22.3583333,4.40475 22.2335,4.32075 22.0935,4.25425 C21.9535,4.18775 21.81,4.12941667 21.663,4.07925 C21.516,4.02908333 21.3725,3.98183333 21.2325,3.9375 C21.0925,3.89316667 20.9676666,3.843 20.858,3.787 C20.7483333,3.731 20.66025,3.66333333 20.59375,3.584 C20.52725,3.50466667 20.494,3.4055 20.494,3.2865 C20.494,3.19316667 20.5103333,3.10741667 20.543,3.02925 C20.5756666,2.95108333 20.62525,2.884 20.69175,2.828 C20.75825,2.772 20.8405,2.72825 20.9385,2.69675 C21.0365,2.66525 21.1508333,2.6495 21.2815,2.6495 C21.4261666,2.6495 21.5515833,2.66758333 21.65775,2.70375 C21.7639166,2.73991667 21.8566666,2.78016667 21.936,2.8245 C22.0153333,2.86883333 22.0835833,2.90908333 22.14075,2.94525 C22.1979166,2.98141667 22.251,2.9995 22.3,2.9995 C22.3466666,2.9995 22.38575,2.98841667 22.41725,2.96625 C22.44875,2.94408333 22.4785,2.9085 22.5065,2.8595 L22.5065,2.8595 L22.741,2.415 C22.5636666,2.247 22.349,2.11633333 22.097,2.023 C21.845,1.92966667 21.5696666,1.883 21.271,1.883 C21.005,1.883 20.7693333,1.92383333 20.564,2.0055 C20.3586666,2.08716667 20.186,2.19566667 20.046,2.331 C19.906,2.46633333 19.79925,2.6215 19.72575,2.7965 C19.65225,2.9715 19.6155,3.15116667 19.6155,3.3355 C19.6155,3.5665 19.64875,3.76075 19.71525,3.91825 C19.78175,4.07575 19.8698333,4.207 19.9795,4.312 C20.0891666,4.417 20.214,4.50216667 20.354,4.5675 C20.494,4.63283333 20.6363333,4.68883333 20.781,4.7355 C20.9256666,4.78216667 21.068,4.82533333 21.208,4.865 C21.348,4.90466667 21.4728333,4.95308333 21.5825,5.01025 C21.6921666,5.06741667 21.78025,5.138 21.84675,5.222 C21.91325,5.306 21.9465,5.4145 21.9465,5.5475 C21.9465,5.7855 21.873,5.96808333 21.726,6.09525 C21.579,6.22241667 21.3713333,6.286 21.103,6.286 C20.928,6.286 20.7780833,6.26208333 20.65325,6.21425 C20.5284166,6.16641667 20.4193333,6.11333333 20.326,6.055 C20.2326666,5.99666667 20.1521666,5.94358333 20.0845,5.89575 C20.0168333,5.84791667 19.9538333,5.824 19.8955,5.824 C19.8535,5.824 19.8138333,5.83508333 19.7765,5.85725 C19.7391666,5.87941667 19.7088333,5.90683333 19.6855,5.9395 L19.6855,5.9395 L19.409,6.391 C19.507,6.49133333 19.619,6.58233333 19.745,6.664 C19.871,6.74566667 20.00575,6.81566667 20.14925,6.874 C20.29275,6.93233333 20.4426666,6.97725 20.599,7.00875 C20.7553333,7.04025 20.914,7.056 21.075,7.056 Z M24.916,7 L24.916,1.939 L23.971,1.939 L23.971,7 L24.916,7 Z M28.512,7.056 C28.932,7.056 29.2919166,6.98833333 29.59175,6.853 C29.8915833,6.71766667 30.1441666,6.52283333 30.3495,6.2685 L30.3495,6.2685 L29.9785,5.866 C29.9388333,5.82633333 29.8933333,5.8065 29.842,5.8065 C29.814,5.8065 29.7871666,5.81291667 29.7615,5.82575 C29.7358333,5.83858333 29.7113333,5.8555 29.688,5.8765 C29.611,5.9465 29.5334166,6.00541667 29.45525,6.05325 C29.3770833,6.10108333 29.29425,6.14016667 29.20675,6.1705 C29.11925,6.20083333 29.0235833,6.223 28.91975,6.237 C28.8159166,6.251 28.6998333,6.258 28.5715,6.258 C28.3568333,6.258 28.1561666,6.21775 27.9695,6.13725 C27.7828333,6.05675 27.6206666,5.94066667 27.483,5.789 C27.3453333,5.63733333 27.23625,5.45066667 27.15575,5.229 C27.07525,5.00733333 27.035,4.75416667 27.035,4.4695 C27.035,4.18716667 27.0723333,3.93575 27.147,3.71525 C27.2216666,3.49475 27.3266666,3.30808333 27.462,3.15525 C27.5973333,3.00241667 27.7589166,2.88575 27.94675,2.80525 C28.1345833,2.72475 28.3416666,2.6845 28.568,2.6845 C28.701,2.6845 28.81825,2.69441667 28.91975,2.71425 C29.02125,2.73408333 29.1105,2.75858333 29.1875,2.78775 C29.2645,2.81691667 29.3321666,2.849 29.3905,2.884 C29.4488333,2.919 29.5001666,2.95108333 29.5445,2.98025 C29.5888333,3.00941667 29.6296666,3.03391667 29.667,3.05375 C29.7043333,3.07358333 29.7405,3.0835 29.7755,3.0835 C29.8268333,3.0835 29.8670833,3.073 29.89625,3.052 C29.9254166,3.031 29.9493333,3.0065 29.968,2.9785 L29.968,2.9785 L30.283,2.541 C30.0823333,2.345 29.8390833,2.18633333 29.55325,2.065 C29.2674166,1.94366667 28.9401666,1.883 28.5715,1.883 C28.2005,1.883 27.8621666,1.94658333 27.5565,2.07375 C27.2508333,2.20091667 26.98775,2.37883333 26.76725,2.6075 C26.54675,2.83616667 26.3758333,3.10858333 26.2545,3.42475 C26.1331666,3.74091667 26.0725,4.08916667 26.0725,4.4695 C26.0725,4.84516667 26.1290833,5.19166667 26.24225,5.509 C26.3554166,5.82633333 26.5181666,6.09933333 26.7305,6.328 C26.9428333,6.55666667 27.1989166,6.73516667 27.49875,6.8635 C27.7985833,6.99183333 28.1363333,7.056 28.512,7.056 Z" id="CLASSIC"></path>
            <path d="M9.827,25.056 C10.107,25.056 10.3555,25.0134167 10.5725,24.92825 C10.7895,24.8430833 10.97325,24.7264167 11.12375,24.57825 C11.27425,24.4300833 11.3885833,24.25625 11.46675,24.05675 C11.5449167,23.85725 11.584,23.6431667 11.584,23.4145 C11.584,23.2045 11.55075,23.026 11.48425,22.879 C11.41775,22.732 11.3296667,22.60775 11.22,22.50625 C11.1103333,22.40475 10.9855,22.32075 10.8455,22.25425 C10.7055,22.18775 10.562,22.1294167 10.415,22.07925 C10.268,22.0290833 10.1245,21.9818333 9.9845,21.9375 C9.8445,21.8931667 9.71966667,21.843 9.61,21.787 C9.50033333,21.731 9.41225,21.6633333 9.34575,21.584 C9.27925,21.5046667 9.246,21.4055 9.246,21.2865 C9.246,21.1931667 9.26233333,21.1074167 9.295,21.02925 C9.32766667,20.9510833 9.37725,20.884 9.44375,20.828 C9.51025,20.772 9.5925,20.72825 9.6905,20.69675 C9.7885,20.66525 9.90283333,20.6495 10.0335,20.6495 C10.1781667,20.6495 10.3035833,20.6675833 10.40975,20.70375 C10.5159167,20.7399167 10.6086667,20.7801667 10.688,20.8245 C10.7673333,20.8688333 10.8355833,20.9090833 10.89275,20.94525 C10.9499167,20.9814167 11.003,20.9995 11.052,20.9995 C11.0986667,20.9995 11.13775,20.9884167 11.16925,20.96625 C11.20075,20.9440833 11.2305,20.9085 11.2585,20.8595 L11.2585,20.8595 L11.493,20.415 C11.3156667,20.247 11.101,20.1163333 10.849,20.023 C10.597,19.9296667 10.3216667,19.883 10.023,19.883 C9.757,19.883 9.52133333,19.9238333 9.316,20.0055 C9.11066667,20.0871667 8.938,20.1956667 8.798,20.331 C8.658,20.4663333 8.55125,20.6215 8.47775,20.7965 C8.40425,20.9715 8.3675,21.1511667 8.3675,21.3355 C8.3675,21.5665 8.40075,21.76075 8.46725,21.91825 C8.53375,22.07575 8.62183333,22.207 8.7315,22.312 C8.84116667,22.417 8.966,22.5021667 9.106,22.5675 C9.246,22.6328333 9.38833333,22.6888333 9.533,22.7355 C9.67766667,22.7821667 9.82,22.8253333 9.96,22.865 C10.1,22.9046667 10.2248333,22.9530833 10.3345,23.01025 C10.4441667,23.0674167 10.53225,23.138 10.59875,23.222 C10.66525,23.306 10.6985,23.4145 10.6985,23.5475 C10.6985,23.7855 10.625,23.9680833 10.478,24.09525 C10.331,24.2224167 10.1233333,24.286 9.855,24.286 C9.68,24.286 9.53008333,24.2620833 9.40525,24.21425 C9.28041667,24.1664167 9.17133333,24.1133333 9.078,24.055 C8.98466667,23.9966667 8.90416667,23.9435833 8.8365,23.89575 C8.76883333,23.8479167 8.70583333,23.824 8.6475,23.824 C8.6055,23.824 8.56583333,23.8350833 8.5285,23.85725 C8.49116667,23.8794167 8.46083333,23.9068333 8.4375,23.9395 L8.4375,23.9395 L8.161,24.391 C8.259,24.4913333 8.371,24.5823333 8.497,24.664 C8.623,24.7456667 8.75775,24.8156667 8.90125,24.874 C9.04475,24.9323333 9.19466667,24.97725 9.351,25.00875 C9.50733333,25.04025 9.666,25.056 9.827,25.056 Z M13.668,25 L13.668,19.939 L12.723,19.939 L12.723,25 L13.668,25 Z M15.948,25 L15.948,21.892 C15.948,21.7613333 15.941,21.619 15.927,21.465 L15.927,21.465 L18.5695,24.839 C18.6161667,24.8973333 18.6645833,24.93875 18.71475,24.96325 C18.7649167,24.98775 18.8273333,25 18.902,25 L18.902,25 L19.385,25 L19.385,19.939 L18.5555,19.939 L18.5555,23.0155 C18.5555,23.0831667 18.5578333,23.1566667 18.5625,23.236 C18.5671667,23.3153333 18.573,23.3958333 18.58,23.4775 L18.58,23.4775 L15.927,20.0895 C15.9013333,20.0568333 15.878,20.0305833 15.857,20.01075 C15.836,19.9909167 15.8144167,19.97575 15.79225,19.96525 C15.7700833,19.95475 15.7444167,19.94775 15.71525,19.94425 C15.6860833,19.94075 15.6516667,19.939 15.612,19.939 L15.612,19.939 L15.1185,19.939 L15.1185,25 L15.948,25 Z M24.024,25 L24.024,24.2475 L21.777,24.2475 L21.777,22.816 L23.548,22.816 L23.548,22.0915 L21.777,22.0915 L21.777,20.688 L24.024,20.688 L24.024,19.939 L20.832,19.939 L20.832,25 L24.024,25 Z" id="SINE"></path>
            <path d="M2.4815,43 L3.598,39.542 C3.61433333,39.4976667 3.6295,39.4498333 3.6435,39.3985 C3.6575,39.3471667 3.6715,39.2923333 3.6855,39.234 C3.71116667,39.3553333 3.73916667,39.458 3.7695,39.542 L3.7695,39.542 L4.8755,43 L5.726,43 L7.2975,37.939 L6.559,37.939 C6.47966667,37.939 6.41141667,37.96 6.35425,38.002 C6.29708333,38.044 6.2615,38.0941667 6.2475,38.1525 L6.2475,38.1525 L5.3865,41.18 C5.34916667,41.3293333 5.31533333,41.4961667 5.285,41.6805 C5.24533333,41.4915 5.201,41.3246667 5.152,41.18 L5.152,41.18 L4.1615,38.1525 C4.13583333,38.0895 4.09733333,38.0381667 4.046,37.9985 C3.99466667,37.9588333 3.92816667,37.939 3.8465,37.939 L3.8465,37.939 L3.57,37.939 C3.49066667,37.939 3.42358333,37.9611667 3.36875,38.0055 C3.31391667,38.0498333 3.27716667,38.0988333 3.2585,38.1525 L3.2585,38.1525 L2.2645,41.18 C2.23883333,41.2546667 2.21491667,41.3351667 2.19275,41.4215 C2.17058333,41.5078333 2.15016667,41.6 2.1315,41.698 C2.11283333,41.6023333 2.09475,41.51075 2.07725,41.42325 C2.05975,41.33575 2.04166667,41.2546667 2.023,41.18 L2.023,41.18 L1.162,38.1525 C1.14333333,38.0871667 1.10658333,38.03525 1.05175,37.99675 C0.996916667,37.95825 0.928666667,37.939 0.847,37.939 L0.847,37.939 L0.0595,37.939 L1.6275,43 L2.4815,43 Z M9.6595,41.2465 L9.6595,40.5255 L7.8465,40.5255 L7.8465,41.2465 L9.6595,41.2465 Z M12.424,43 L12.424,38.7125 L13.95,38.7125 L13.95,37.939 L9.9565,37.939 L9.9565,38.7125 L11.4825,38.7125 L11.4825,43 L12.424,43 Z M14.4745,43 C14.5538333,43 14.6203333,42.9778333 14.674,42.9335 C14.7276667,42.8891667 14.7638333,42.8401667 14.7825,42.7865 L14.7825,42.7865 L15.1605,41.754 L17.257,41.754 L17.635,42.7865 C17.6606667,42.8471667 17.6991667,42.8979167 17.7505,42.93875 C17.8018333,42.9795833 17.8683333,43 17.95,43 L17.95,43 L18.678,43 L16.69,37.939 L15.731,37.939 L13.7395,43 L14.4745,43 Z M17.0155,41.089 L15.4055,41.089 L16.018,39.4125 C16.0483333,39.3355 16.0798333,39.2450833 16.1125,39.14125 C16.1451667,39.0374167 16.1766667,38.926 16.207,38.807 C16.2396667,38.926 16.2723333,39.0368333 16.305,39.1395 C16.3376667,39.2421667 16.3691667,39.3308333 16.3995,39.4055 L16.3995,39.4055 L17.0155,41.089 Z M21.334,43 C21.628,43 21.8893333,42.9626667 22.118,42.888 C22.3466667,42.8133333 22.5391667,42.7100833 22.6955,42.57825 C22.8518333,42.4464167 22.9708333,42.2895 23.0525,42.1075 C23.1341667,41.9255 23.175,41.7271667 23.175,41.5125 C23.175,40.9175 22.8273333,40.5418333 22.132,40.3855 C22.2883333,40.3318333 22.4230833,40.2665 22.53625,40.1895 C22.6494167,40.1125 22.74275,40.02675 22.81625,39.93225 C22.88975,39.83775 22.944,39.73625 22.979,39.62775 C23.014,39.51925 23.0315,39.4055 23.0315,39.2865 C23.0315,39.0788333 22.9965,38.8921667 22.9265,38.7265 C22.8565,38.5608333 22.74625,38.4196667 22.59575,38.303 C22.44525,38.1863333 22.2521667,38.0965 22.0165,38.0335 C21.7808333,37.9705 21.4973333,37.939 21.166,37.939 L21.166,37.939 L19.423,37.939 L19.423,43 L21.334,43 Z M21.1135,40.13 L20.3645,40.13 L20.3645,38.667 L21.166,38.667 C21.4833333,38.667 21.7166667,38.723 21.866,38.835 C22.0153333,38.947 22.09,39.1348333 22.09,39.3985 C22.09,39.6528333 22.00775,39.8383333 21.84325,39.955 C21.67875,40.0716667 21.4355,40.13 21.1135,40.13 L21.1135,40.13 Z M21.3165,42.265 L20.3645,42.265 L20.3645,40.781 L21.313,40.781 C21.4786667,40.781 21.6204167,40.7973333 21.73825,40.83 C21.8560833,40.8626667 21.9523333,40.9099167 22.027,40.97175 C22.1016667,41.0335833 22.1565,41.10825 22.1915,41.19575 C22.2265,41.28325 22.244,41.3818333 22.244,41.4915 C22.244,41.5965 22.22825,41.6956667 22.19675,41.789 C22.16525,41.8823333 22.1139167,41.964 22.04275,42.034 C21.9715833,42.104 21.8765,42.16 21.7575,42.202 C21.6385,42.244 21.4915,42.265 21.3165,42.265 L21.3165,42.265 Z M27.217,43 L27.217,42.223 L25.194,42.223 L25.194,37.939 L24.2525,37.939 L24.2525,43 L27.217,43 Z M31.301,43 L31.301,42.2475 L29.054,42.2475 L29.054,40.816 L30.825,40.816 L30.825,40.0915 L29.054,40.0915 L29.054,38.688 L31.301,38.688 L31.301,37.939 L28.109,37.939 L28.109,43 L31.301,43 Z" id="W-TABLE"></path>
            <path d="M1.827,61.056 C2.107,61.056 2.3555,61.0134167 2.5725,60.92825 C2.7895,60.8430833 2.97325,60.7264167 3.12375,60.57825 C3.27425,60.4300833 3.38858333,60.25625 3.46675,60.05675 C3.54491667,59.85725 3.584,59.6431667 3.584,59.4145 C3.584,59.2045 3.55075,59.026 3.48425,58.879 C3.41775,58.732 3.32966667,58.60775 3.22,58.50625 C3.11033333,58.40475 2.9855,58.32075 2.8455,58.25425 C2.7055,58.18775 2.562,58.1294167 2.415,58.07925 C2.268,58.0290833 2.1245,57.9818333 1.9845,57.9375 C1.8445,57.8931667 1.71966667,57.843 1.61,57.787 C1.50033333,57.731 1.41225,57.6633333 1.34575,57.584 C1.27925,57.5046667 1.246,57.4055 1.246,57.2865 C1.246,57.1931667 1.26233333,57.1074167 1.295,57.02925 C1.32766667,56.9510833 1.37725,56.884 1.44375,56.828 C1.51025,56.772 1.5925,56.72825 1.6905,56.69675 C1.7885,56.66525 1.90283333,56.6495 2.0335,56.6495 C2.17816667,56.6495 2.30358333,56.6675833 2.40975,56.70375 C2.51591667,56.7399167 2.60866667,56.7801667 2.688,56.8245 C2.76733333,56.8688333 2.83558333,56.9090833 2.89275,56.94525 C2.94991667,56.9814167 3.003,56.9995 3.052,56.9995 C3.09866667,56.9995 3.13775,56.9884167 3.16925,56.96625 C3.20075,56.9440833 3.2305,56.9085 3.2585,56.8595 L3.2585,56.8595 L3.493,56.415 C3.31566667,56.247 3.101,56.1163333 2.849,56.023 C2.597,55.9296667 2.32166667,55.883 2.023,55.883 C1.757,55.883 1.52133333,55.9238333 1.316,56.0055 C1.11066667,56.0871667 0.938,56.1956667 0.798,56.331 C0.658,56.4663333 0.55125,56.6215 0.47775,56.7965 C0.40425,56.9715 0.3675,57.1511667 0.3675,57.3355 C0.3675,57.5665 0.40075,57.76075 0.46725,57.91825 C0.53375,58.07575 0.621833333,58.207 0.7315,58.312 C0.841166667,58.417 0.966,58.5021667 1.106,58.5675 C1.246,58.6328333 1.38833333,58.6888333 1.533,58.7355 C1.67766667,58.7821667 1.82,58.8253333 1.96,58.865 C2.1,58.9046667 2.22483333,58.9530833 2.3345,59.01025 C2.44416667,59.0674167 2.53225,59.138 2.59875,59.222 C2.66525,59.306 2.6985,59.4145 2.6985,59.5475 C2.6985,59.7855 2.625,59.9680833 2.478,60.09525 C2.331,60.2224167 2.12333333,60.286 1.855,60.286 C1.68,60.286 1.53008333,60.2620833 1.40525,60.21425 C1.28041667,60.1664167 1.17133333,60.1133333 1.078,60.055 C0.984666667,59.9966667 0.904166667,59.9435833 0.8365,59.89575 C0.768833333,59.8479167 0.705833333,59.824 0.6475,59.824 C0.6055,59.824 0.565833333,59.8350833 0.5285,59.85725 C0.491166667,59.8794167 0.460833333,59.9068333 0.4375,59.9395 L0.4375,59.9395 L0.161,60.391 C0.259,60.4913333 0.371,60.5823333 0.497,60.664 C0.623,60.7456667 0.75775,60.8156667 0.90125,60.874 C1.04475,60.9323333 1.19466667,60.97725 1.351,61.00875 C1.50733333,61.04025 1.666,61.056 1.827,61.056 Z M5.16799999,61 L5.16799999,58.788 L7.54449999,58.788 L7.54449999,61 L8.48949999,61 L8.48949999,55.939 L7.54449999,55.939 L7.54449999,58.116 L5.16799999,58.116 L5.16799999,55.939 L4.22299999,55.939 L4.22299999,61 L5.16799999,61 Z M11.085,59.2465 L11.085,58.5255 L9.27199999,58.5255 L9.27199999,59.2465 L11.085,59.2465 Z M12.697,61 L12.697,57.892 C12.697,57.7613333 12.69,57.619 12.676,57.465 L12.676,57.465 L15.3185,60.839 C15.3651666,60.8973333 15.4135833,60.93875 15.46375,60.96325 C15.5139166,60.98775 15.5763333,61 15.651,61 L15.651,61 L16.134,61 L16.134,55.939 L15.3045,55.939 L15.3045,59.0155 C15.3045,59.0831667 15.3068333,59.1566667 15.3115,59.236 C15.3161666,59.3153333 15.322,59.3958333 15.329,59.4775 L15.329,59.4775 L12.676,56.0895 C12.6503333,56.0568333 12.627,56.0305833 12.606,56.01075 C12.585,55.9909167 12.5634166,55.97575 12.54125,55.96525 C12.5190833,55.95475 12.4934166,55.94775 12.46425,55.94425 C12.4350833,55.94075 12.4006666,55.939 12.361,55.939 L12.361,55.939 L11.8675,55.939 L11.8675,61 L12.697,61 Z M19.3455,61.056 C19.7305,61.056 20.0805,60.99125 20.3955,60.86175 C20.7105,60.73225 20.98,60.552 21.204,60.321 C21.428,60.09 21.60125,59.8164167 21.72375,59.50025 C21.84625,59.1840833 21.9075,58.8405 21.9075,58.4695 C21.9075,58.2221667 21.8800833,57.9865 21.82525,57.7625 C21.7704166,57.5385 21.6905,57.3308333 21.5855,57.1395 C21.4805,56.9481667 21.35275,56.7749167 21.20225,56.61975 C21.05175,56.4645833 20.882,56.33275 20.693,56.22425 C20.504,56.11575 20.2963333,56.03175 20.07,55.97225 C19.8436666,55.91275 19.6021666,55.883 19.3455,55.883 C18.9628333,55.883 18.614,55.94775 18.299,56.07725 C17.984,56.20675 17.7139166,56.387 17.48875,56.618 C17.2635833,56.849 17.0891666,57.1225833 16.9655,57.43875 C16.8418333,57.7549167 16.78,58.0985 16.78,58.4695 C16.78,58.8405 16.8418333,59.1840833 16.9655,59.50025 C17.0891666,59.8164167 17.2635833,60.09 17.48875,60.321 C17.7139166,60.552 17.984,60.73225 18.299,60.86175 C18.614,60.99125 18.9628333,61.056 19.3455,61.056 Z M19.3455,60.251 C19.0981666,60.251 18.8759166,60.2101667 18.67875,60.1285 C18.4815833,60.0468333 18.3135833,59.9295833 18.17475,59.77675 C18.0359166,59.6239167 17.9291666,59.43725 17.8545,59.21675 C17.7798333,58.99625 17.7425,58.7471667 17.7425,58.4695 C17.7425,58.1918333 17.7798333,57.94275 17.8545,57.72225 C17.9291666,57.50175 18.0359166,57.3145 18.17475,57.1605 C18.3135833,57.0065 18.4815833,56.8886667 18.67875,56.807 C18.8759166,56.7253333 19.0981666,56.6845 19.3455,56.6845 C19.5928333,56.6845 19.8150833,56.7253333 20.01225,56.807 C20.2094166,56.8886667 20.3768333,57.0065 20.5145,57.1605 C20.6521666,57.3145 20.7583333,57.50175 20.833,57.72225 C20.9076666,57.94275 20.945,58.1918333 20.945,58.4695 C20.945,58.7471667 20.9076666,58.99625 20.833,59.21675 C20.7583333,59.43725 20.6521666,59.6239167 20.5145,59.77675 C20.3768333,59.9295833 20.2094166,60.0468333 20.01225,60.1285 C19.8150833,60.2101667 19.5928333,60.251 19.3455,60.251 Z M23.502,61 L23.502,55.939 L22.557,55.939 L22.557,61 L23.502,61 Z M25.716,61.056 C25.996,61.056 26.2445,61.0134167 26.4615,60.92825 C26.6785,60.8430833 26.86225,60.7264167 27.01275,60.57825 C27.16325,60.4300833 27.2775833,60.25625 27.35575,60.05675 C27.4339166,59.85725 27.473,59.6431667 27.473,59.4145 C27.473,59.2045 27.43975,59.026 27.37325,58.879 C27.30675,58.732 27.2186666,58.60775 27.109,58.50625 C26.9993333,58.40475 26.8745,58.32075 26.7345,58.25425 C26.5945,58.18775 26.451,58.1294167 26.304,58.07925 C26.157,58.0290833 26.0135,57.9818333 25.8735,57.9375 C25.7335,57.8931667 25.6086666,57.843 25.499,57.787 C25.3893333,57.731 25.30125,57.6633333 25.23475,57.584 C25.16825,57.5046667 25.135,57.4055 25.135,57.2865 C25.135,57.1931667 25.1513333,57.1074167 25.184,57.02925 C25.2166666,56.9510833 25.26625,56.884 25.33275,56.828 C25.39925,56.772 25.4815,56.72825 25.5795,56.69675 C25.6775,56.66525 25.7918333,56.6495 25.9225,56.6495 C26.0671666,56.6495 26.1925833,56.6675833 26.29875,56.70375 C26.4049166,56.7399167 26.4976666,56.7801667 26.577,56.8245 C26.6563333,56.8688333 26.7245833,56.9090833 26.78175,56.94525 C26.8389166,56.9814167 26.892,56.9995 26.941,56.9995 C26.9876666,56.9995 27.02675,56.9884167 27.05825,56.96625 C27.08975,56.9440833 27.1195,56.9085 27.1475,56.8595 L27.1475,56.8595 L27.382,56.415 C27.2046666,56.247 26.99,56.1163333 26.738,56.023 C26.486,55.9296667 26.2106666,55.883 25.912,55.883 C25.646,55.883 25.4103333,55.9238333 25.205,56.0055 C24.9996666,56.0871667 24.827,56.1956667 24.687,56.331 C24.547,56.4663333 24.44025,56.6215 24.36675,56.7965 C24.29325,56.9715 24.2565,57.1511667 24.2565,57.3355 C24.2565,57.5665 24.28975,57.76075 24.35625,57.91825 C24.42275,58.07575 24.5108333,58.207 24.6205,58.312 C24.7301666,58.417 24.855,58.5021667 24.995,58.5675 C25.135,58.6328333 25.2773333,58.6888333 25.422,58.7355 C25.5666666,58.7821667 25.709,58.8253333 25.849,58.865 C25.989,58.9046667 26.1138333,58.9530833 26.2235,59.01025 C26.3331666,59.0674167 26.42125,59.138 26.48775,59.222 C26.55425,59.306 26.5875,59.4145 26.5875,59.5475 C26.5875,59.7855 26.514,59.9680833 26.367,60.09525 C26.22,60.2224167 26.0123333,60.286 25.744,60.286 C25.569,60.286 25.4190833,60.2620833 25.29425,60.21425 C25.1694166,60.1664167 25.0603333,60.1133333 24.967,60.055 C24.8736666,59.9966667 24.7931666,59.9435833 24.7255,59.89575 C24.6578333,59.8479167 24.5948333,59.824 24.5365,59.824 C24.4945,59.824 24.4548333,59.8350833 24.4175,59.85725 C24.3801666,59.8794167 24.3498333,59.9068333 24.3265,59.9395 L24.3265,59.9395 L24.05,60.391 C24.148,60.4913333 24.26,60.5823333 24.386,60.664 C24.512,60.7456667 24.64675,60.8156667 24.79025,60.874 C24.93375,60.9323333 25.0836666,60.97725 25.24,61.00875 C25.3963333,61.04025 25.555,61.056 25.716,61.056 Z M31.3039999,61 L31.3039999,60.2475 L29.0569999,60.2475 L29.0569999,58.816 L30.8279999,58.816 L30.8279999,58.0915 L29.0569999,58.0915 L29.0569999,56.688 L31.3039999,56.688 L31.3039999,55.939 L28.1119999,55.939 L28.1119999,61 L31.3039999,61 Z" id="SH-NOISE"></path>
            <path d="M9.5085,97 L9.5085,94.9385 L11.4055,94.9385 L11.4055,94.186 L9.5085,94.186 L9.5085,92.688 L11.7555,92.688 L11.7555,91.939 L8.5635,91.939 L8.5635,97 L9.5085,97 Z M14.075,97 L14.075,93.731 C14.075,93.668 14.0726667,93.5991667 14.068,93.5245 C14.0633334,93.4498333 14.0575,93.374 14.0505,93.297 L14.0505,93.297 L15.5975,96.181 C15.6698334,96.3186667 15.7806667,96.3875 15.93,96.3875 L15.93,96.3875 L16.063,96.3875 C16.2123334,96.3875 16.3231667,96.3186667 16.3955,96.181 L16.3955,96.181 L17.925,93.3075 C17.911,93.4591667 17.904,93.6003333 17.904,93.731 L17.904,93.731 L17.904,97 L18.7335,97 L18.7335,91.939 L18.023,91.939 C17.981,91.939 17.9448334,91.9401667 17.9145,91.9425 C17.8841667,91.9448333 17.85675,91.9506667 17.83225,91.96 C17.80775,91.9693333 17.785,91.9845 17.764,92.0055 C17.743,92.0265 17.7231667,92.0545 17.7045,92.0895 L17.7045,92.0895 L16.21,94.893 C16.1703334,94.9676667 16.133,95.04525 16.098,95.12575 C16.063,95.20625 16.0291667,95.2896667 15.9965,95.376 C15.9638334,95.292 15.9305834,95.2103333 15.89675,95.131 C15.8629167,95.0516667 15.8261667,94.9746667 15.7865,94.9 L15.7865,94.9 L14.271,92.0895 C14.2523334,92.0545 14.2330834,92.0265 14.21325,92.0055 C14.1934167,91.9845 14.17125,91.9693333 14.14675,91.96 C14.12225,91.9506667 14.0948334,91.9448333 14.0645,91.9425 C14.0341667,91.9401667 13.998,91.939 13.956,91.939 L13.956,91.939 L13.2455,91.939 L13.2455,97 L14.075,97 Z M22.0155001,97.056 C22.2488334,97.056 22.4699167,97.0221667 22.6787501,96.9545 C22.8875834,96.8868333 23.0713334,96.7870833 23.2300001,96.65525 C23.3886667,96.5234167 23.5146667,96.3606667 23.6080001,96.167 C23.7013334,95.9733333 23.7480001,95.7505 23.7480001,95.4985 C23.7480001,95.2021667 23.6733334,94.956 23.5240001,94.76 C23.3746667,94.564 23.1483334,94.4181667 22.8450001,94.3225 C22.9710001,94.2805 23.0841667,94.228 23.1845001,94.165 C23.2848334,94.102 23.3688334,94.025 23.4365001,93.934 C23.5041667,93.843 23.5560834,93.73625 23.5922501,93.61375 C23.6284167,93.49125 23.6465001,93.3495 23.6465001,93.1885 C23.6465001,93.0041667 23.6109167,92.8326667 23.5397501,92.674 C23.4685834,92.5153333 23.3665001,92.3770833 23.2335001,92.25925 C23.1005001,92.1414167 22.9400834,92.04925 22.7522501,91.98275 C22.5644167,91.91625 22.3538334,91.883 22.1205001,91.883 C21.8965001,91.883 21.6870834,91.9139167 21.4922501,91.97575 C21.2974167,92.0375833 21.1247501,92.12975 20.9742501,92.25225 C20.8237501,92.37475 20.6983334,92.5275833 20.5980001,92.71075 C20.4976667,92.8939167 20.4300001,93.1068333 20.3950001,93.3495 L20.3950001,93.3495 L20.8500001,93.43 C20.9666667,93.4486667 21.0570834,93.4405 21.1212501,93.4055 C21.1854167,93.3705 21.2373334,93.2993333 21.2770001,93.192 C21.3003334,93.108 21.3353334,93.031 21.3820001,92.961 C21.4286667,92.891 21.4864167,92.82975 21.5552501,92.77725 C21.6240834,92.72475 21.7016667,92.6839167 21.7880001,92.65475 C21.8743334,92.6255833 21.9688334,92.611 22.0715001,92.611 C22.2931667,92.611 22.4705001,92.6728333 22.6035001,92.7965 C22.7365001,92.9201667 22.8030001,93.101 22.8030001,93.339 C22.8030001,93.451 22.7866667,93.5536667 22.7540001,93.647 C22.7213334,93.7403333 22.6635834,93.82025 22.5807501,93.88675 C22.4979167,93.95325 22.3865001,94.0051667 22.2465001,94.0425 C22.1065001,94.0798333 21.9303334,94.0996667 21.7180001,94.102 L21.7180001,94.102 L21.7180001,94.718 C21.9746667,94.718 22.1794167,94.7378333 22.3322501,94.7775 C22.4850834,94.8171667 22.6023334,94.872 22.6840001,94.942 C22.7656667,95.012 22.8193334,95.0965833 22.8450001,95.19575 C22.8706667,95.2949167 22.8835001,95.4051667 22.8835001,95.5265 C22.8835001,95.6221667 22.8654167,95.71725 22.8292501,95.81175 C22.7930834,95.90625 22.7382501,95.992 22.6647501,96.069 C22.5912501,96.146 22.4996667,96.2084167 22.3900001,96.25625 C22.2803334,96.3040833 22.1520001,96.328 22.0050001,96.328 C21.8743334,96.328 21.7617501,96.30875 21.6672501,96.27025 C21.5727501,96.23175 21.4905001,96.1815833 21.4205001,96.11975 C21.3505001,96.0579167 21.2904167,95.9873333 21.2402501,95.908 C21.1900834,95.8286667 21.1440001,95.7481667 21.1020001,95.6665 C21.0623334,95.5918333 20.9987501,95.5445833 20.9112501,95.52475 C20.8237501,95.5049167 20.7298334,95.516 20.6295001,95.558 L20.6295001,95.558 L20.2480001,95.7155 C20.3180001,95.9325 20.4020001,96.1238333 20.5000001,96.2895 C20.5980001,96.4551667 20.7170001,96.5951667 20.8570001,96.7095 C20.9970001,96.8238333 21.1615001,96.9101667 21.3505001,96.9685 C21.5395001,97.0268333 21.7611667,97.056 22.0155001,97.056 Z" id="FM3"></path>
            <path d="M9.5085,115 L9.5085,112.9385 L11.4055,112.9385 L11.4055,112.186 L9.5085,112.186 L9.5085,110.688 L11.7555,110.688 L11.7555,109.939 L8.5635,109.939 L8.5635,115 L9.5085,115 Z M14.075,115 L14.075,111.731 C14.075,111.668 14.0726667,111.599167 14.068,111.5245 C14.0633334,111.449833 14.0575,111.374 14.0505,111.297 L14.0505,111.297 L15.5975,114.181 C15.6698334,114.318667 15.7806667,114.3875 15.93,114.3875 L15.93,114.3875 L16.063,114.3875 C16.2123334,114.3875 16.3231667,114.318667 16.3955,114.181 L16.3955,114.181 L17.925,111.3075 C17.911,111.459167 17.904,111.600333 17.904,111.731 L17.904,111.731 L17.904,115 L18.7335,115 L18.7335,109.939 L18.023,109.939 C17.981,109.939 17.9448334,109.940167 17.9145,109.9425 C17.8841667,109.944833 17.85675,109.950667 17.83225,109.96 C17.80775,109.969333 17.785,109.9845 17.764,110.0055 C17.743,110.0265 17.7231667,110.0545 17.7045,110.0895 L17.7045,110.0895 L16.21,112.893 C16.1703334,112.967667 16.133,113.04525 16.098,113.12575 C16.063,113.20625 16.0291667,113.289667 15.9965,113.376 C15.9638334,113.292 15.9305834,113.210333 15.89675,113.131 C15.8629167,113.051667 15.8261667,112.974667 15.7865,112.9 L15.7865,112.9 L14.271,110.0895 C14.2523334,110.0545 14.2330834,110.0265 14.21325,110.0055 C14.1934167,109.9845 14.17125,109.969333 14.14675,109.96 C14.12225,109.950667 14.0948334,109.944833 14.0645,109.9425 C14.0341667,109.940167 13.998,109.939 13.956,109.939 L13.956,109.939 L13.2455,109.939 L13.2455,115 L14.075,115 Z M23.7550001,115 L23.7550001,114.482 C23.7550001,114.395667 23.7275834,114.32625 23.6727501,114.27375 C23.6179167,114.22125 23.5438334,114.195 23.4505001,114.195 L23.4505001,114.195 L22.1520001,114.195 C22.0540001,114.195 21.9507501,114.20375 21.8422501,114.22125 C21.7337501,114.23875 21.6246667,114.263833 21.5150001,114.2965 L21.5150001,114.2965 L22.6560001,113.131 C22.7913334,112.991 22.9208334,112.853333 23.0445001,112.718 C23.1681667,112.582667 23.2760834,112.442667 23.3682501,112.298 C23.4604167,112.153333 23.5339167,112.001667 23.5887501,111.843 C23.6435834,111.684333 23.6710001,111.511667 23.6710001,111.325 C23.6710001,111.108 23.6325001,110.910833 23.5555001,110.7335 C23.4785001,110.556167 23.3711667,110.4045 23.2335001,110.2785 C23.0958334,110.1525 22.9301667,110.055083 22.7365001,109.98625 C22.5428334,109.917417 22.3293334,109.883 22.0960001,109.883 C21.8720001,109.883 21.6625834,109.913917 21.4677501,109.97575 C21.2729167,110.037583 21.1002501,110.12975 20.9497501,110.25225 C20.7992501,110.37475 20.6738334,110.527583 20.5735001,110.71075 C20.4731667,110.893917 20.4055001,111.106833 20.3705001,111.3495 L20.3705001,111.3495 L20.8255001,111.43 C20.9445001,111.448667 21.0355001,111.4405 21.0985001,111.4055 C21.1615001,111.3705 21.2128334,111.299333 21.2525001,111.192 C21.2758334,111.108 21.3108334,111.031 21.3575001,110.961 C21.4041667,110.891 21.4613334,110.82975 21.5290001,110.77725 C21.5966667,110.72475 21.6742501,110.683917 21.7617501,110.65475 C21.8492501,110.625583 21.9443334,110.611 22.0470001,110.611 C22.1590001,110.611 22.2599167,110.62675 22.3497501,110.65825 C22.4395834,110.68975 22.5165834,110.737 22.5807501,110.8 C22.6449167,110.863 22.6945001,110.940583 22.7295001,111.03275 C22.7645001,111.124917 22.7820001,111.231667 22.7820001,111.353 C22.7820001,111.486 22.7639167,111.612583 22.7277501,111.73275 C22.6915834,111.852917 22.6396667,111.971333 22.5720001,112.088 C22.5043334,112.204667 22.4197501,112.3225 22.3182501,112.4415 C22.2167501,112.5605 22.1018334,112.685333 21.9735001,112.816 L21.9735001,112.816 L20.4370001,114.356 C20.3833334,114.407333 20.3442501,114.465083 20.3197501,114.52925 C20.2952501,114.593417 20.2830001,114.654667 20.2830001,114.713 L20.2830001,114.713 L20.2830001,115 L23.7550001,115 Z" id="FM2"></path>
            <path d="M2.4815,133 L3.598,129.542 C3.61433333,129.497667 3.6295,129.449833 3.6435,129.3985 C3.6575,129.347167 3.6715,129.292333 3.6855,129.234 C3.71116667,129.355333 3.73916667,129.458 3.7695,129.542 L3.7695,129.542 L4.8755,133 L5.726,133 L7.2975,127.939 L6.559,127.939 C6.47966667,127.939 6.41141667,127.96 6.35425,128.002 C6.29708333,128.044 6.2615,128.094167 6.2475,128.1525 L6.2475,128.1525 L5.3865,131.18 C5.34916667,131.329333 5.31533333,131.496167 5.285,131.6805 C5.24533333,131.4915 5.201,131.324667 5.152,131.18 L5.152,131.18 L4.1615,128.1525 C4.13583333,128.0895 4.09733333,128.038167 4.046,127.9985 C3.99466667,127.958833 3.92816667,127.939 3.8465,127.939 L3.8465,127.939 L3.57,127.939 C3.49066667,127.939 3.42358333,127.961167 3.36875,128.0055 C3.31391667,128.049833 3.27716667,128.098833 3.2585,128.1525 L3.2585,128.1525 L2.2645,131.18 C2.23883333,131.254667 2.21491667,131.335167 2.19275,131.4215 C2.17058333,131.507833 2.15016667,131.6 2.1315,131.698 C2.11283333,131.602333 2.09475,131.51075 2.07725,131.42325 C2.05975,131.33575 2.04166667,131.254667 2.023,131.18 L2.023,131.18 L1.162,128.1525 C1.14333333,128.087167 1.10658333,128.03525 1.05175,127.99675 C0.996916667,127.95825 0.928666667,127.939 0.847,127.939 L0.847,127.939 L0.0595,127.939 L1.6275,133 L2.4815,133 Z M8.4855,133 L8.4855,127.939 L7.5405,127.939 L7.5405,133 L8.4855,133 Z M10.0655,133 L10.0655,129.892 C10.0655,129.761333 10.0585,129.619 10.0445,129.465 L10.0445,129.465 L12.687,132.839 C12.7336667,132.897333 12.7820833,132.93875 12.83225,132.96325 C12.8824167,132.98775 12.9448333,133 13.0195,133 L13.0195,133 L13.5025,133 L13.5025,127.939 L12.673,127.939 L12.673,131.0155 C12.673,131.083167 12.6753333,131.156667 12.68,131.236 C12.6846667,131.315333 12.6905,131.395833 12.6975,131.4775 L12.6975,131.4775 L10.0445,128.0895 C10.0188333,128.056833 9.99550001,128.030583 9.97450001,128.01075 C9.95350001,127.990917 9.93191668,127.97575 9.90975001,127.96525 C9.88758334,127.95475 9.86191668,127.94775 9.83275001,127.94425 C9.80358334,127.94075 9.76916668,127.939 9.72950001,127.939 L9.72950001,127.939 L9.23600001,127.939 L9.23600001,133 L10.0655,133 Z M16.178,133 C16.563,133 16.913,132.938167 17.228,132.8145 C17.543,132.690833 17.8125,132.517 18.0365,132.293 C18.2605,132.069 18.4343333,131.801833 18.558,131.4915 C18.6816667,131.181167 18.7435,130.8405 18.7435,130.4695 C18.7435,130.0985 18.6816667,129.757833 18.558,129.4475 C18.4343333,129.137167 18.2605,128.870583 18.0365,128.64775 C17.8125,128.424917 17.543,128.251083 17.228,128.12625 C16.913,128.001417 16.563,127.939 16.178,127.939 L16.178,127.939 L14.2495,127.939 L14.2495,133 L16.178,133 Z M16.178,132.251 L15.1945,132.251 L15.1945,128.688 L16.178,128.688 C16.4253333,128.688 16.6475833,128.728833 16.84475,128.8105 C17.0419167,128.892167 17.2099167,129.009417 17.34875,129.16225 C17.4875833,129.315083 17.59375,129.50175 17.66725,129.72225 C17.74075,129.94275 17.7775,130.191833 17.7775,130.4695 C17.7775,130.747167 17.74075,130.99625 17.66725,131.21675 C17.59375,131.43725 17.4875833,131.623917 17.34875,131.77675 C17.2099167,131.929583 17.0419167,132.046833 16.84475,132.1285 C16.6475833,132.210167 16.4253333,132.251 16.178,132.251 L16.178,132.251 Z M21.4575,133.056 C21.8425,133.056 22.1925,132.99125 22.5075,132.86175 C22.8225,132.73225 23.092,132.552 23.316,132.321 C23.54,132.09 23.71325,131.816417 23.83575,131.50025 C23.95825,131.184083 24.0195,130.8405 24.0195,130.4695 C24.0195,130.222167 23.9920834,129.9865 23.93725,129.7625 C23.8824167,129.5385 23.8025,129.330833 23.6975,129.1395 C23.5925,128.948167 23.46475,128.774917 23.31425,128.61975 C23.16375,128.464583 22.994,128.33275 22.805,128.22425 C22.616,128.11575 22.4083334,128.03175 22.182,127.97225 C21.9556667,127.91275 21.7141667,127.883 21.4575,127.883 C21.0748334,127.883 20.726,127.94775 20.411,128.07725 C20.096,128.20675 19.8259167,128.387 19.60075,128.618 C19.3755834,128.849 19.2011667,129.122583 19.0775,129.43875 C18.9538334,129.754917 18.892,130.0985 18.892,130.4695 C18.892,130.8405 18.9538334,131.184083 19.0775,131.50025 C19.2011667,131.816417 19.3755834,132.09 19.60075,132.321 C19.8259167,132.552 20.096,132.73225 20.411,132.86175 C20.726,132.99125 21.0748334,133.056 21.4575,133.056 Z M21.4575,132.251 C21.2101667,132.251 20.9879167,132.210167 20.79075,132.1285 C20.5935834,132.046833 20.4255834,131.929583 20.28675,131.77675 C20.1479167,131.623917 20.0411667,131.43725 19.9665,131.21675 C19.8918334,130.99625 19.8545,130.747167 19.8545,130.4695 C19.8545,130.191833 19.8918334,129.94275 19.9665,129.72225 C20.0411667,129.50175 20.1479167,129.3145 20.28675,129.1605 C20.4255834,129.0065 20.5935834,128.888667 20.79075,128.807 C20.9879167,128.725333 21.2101667,128.6845 21.4575,128.6845 C21.7048334,128.6845 21.9270834,128.725333 22.12425,128.807 C22.3214167,128.888667 22.4888334,129.0065 22.6265,129.1605 C22.7641667,129.3145 22.8703334,129.50175 22.945,129.72225 C23.0196667,129.94275 23.057,130.191833 23.057,130.4695 C23.057,130.747167 23.0196667,130.99625 22.945,131.21675 C22.8703334,131.43725 22.7641667,131.623917 22.6265,131.77675 C22.4888334,131.929583 22.3214167,132.046833 22.12425,132.1285 C21.9270834,132.210167 21.7048334,132.251 21.4575,132.251 Z M26.387,133 L27.5035,129.542 C27.5198334,129.497667 27.535,129.449833 27.549,129.3985 C27.563,129.347167 27.577,129.292333 27.591,129.234 C27.6166667,129.355333 27.6446667,129.458 27.675,129.542 L27.675,129.542 L28.781,133 L29.6315,133 L31.203,127.939 L30.4645,127.939 C30.3851667,127.939 30.3169167,127.96 30.25975,128.002 C30.2025834,128.044 30.167,128.094167 30.153,128.1525 L30.153,128.1525 L29.292,131.18 C29.2546667,131.329333 29.2208334,131.496167 29.1905,131.6805 C29.1508334,131.4915 29.1065,131.324667 29.0575,131.18 L29.0575,131.18 L28.067,128.1525 C28.0413334,128.0895 28.0028334,128.038167 27.9515,127.9985 C27.9001667,127.958833 27.8336667,127.939 27.752,127.939 L27.752,127.939 L27.4755,127.939 C27.3961667,127.939 27.3290834,127.961167 27.27425,128.0055 C27.2194167,128.049833 27.1826667,128.098833 27.164,128.1525 L27.164,128.1525 L26.17,131.18 C26.1443334,131.254667 26.1204167,131.335167 26.09825,131.4215 C26.0760834,131.507833 26.0556667,131.6 26.037,131.698 C26.0183334,131.602333 26.00025,131.51075 25.98275,131.42325 C25.96525,131.33575 25.9471667,131.254667 25.9285,131.18 L25.9285,131.18 L25.0675,128.1525 C25.0488334,128.087167 25.0120834,128.03525 24.95725,127.99675 C24.9024167,127.95825 24.8341667,127.939 24.7525,127.939 L24.7525,127.939 L23.965,127.939 L25.533,133 L26.387,133 Z" id="WINDOW"></path>
            <path d="M0.6965,79 C0.775833333,79 0.842333333,78.9778333 0.896,78.9335 C0.949666667,78.8891667 0.985833333,78.8401667 1.0045,78.7865 L1.0045,78.7865 L1.3825,77.754 L3.479,77.754 L3.857,78.7865 C3.88266667,78.8471667 3.92116667,78.8979167 3.9725,78.93875 C4.02383333,78.9795833 4.09033333,79 4.172,79 L4.172,79 L4.9,79 L2.912,73.939 L1.953,73.939 L-0.0385,79 L0.6965,79 Z M3.2375,77.089 L1.6275,77.089 L2.24,75.4125 C2.27033333,75.3355 2.30183333,75.2450833 2.3345,75.14125 C2.36716667,75.0374167 2.39866667,74.926 2.429,74.807 C2.46166667,74.926 2.49433333,75.0368333 2.527,75.1395 C2.55966667,75.2421667 2.59116667,75.3308333 2.6215,75.4055 L2.6215,75.4055 L3.2375,77.089 Z M7.256,79.056 C7.58033334,79.056 7.872,79.0040833 8.131,78.90025 C8.39,78.7964167 8.60991667,78.65175 8.79075,78.46625 C8.97158334,78.28075 9.11041667,78.06025 9.20725,77.80475 C9.30408334,77.54925 9.3525,77.271 9.3525,76.97 L9.3525,76.97 L9.3525,73.939 L8.411,73.939 L8.411,76.97 C8.411,77.1636667 8.38475,77.3386667 8.33225,77.495 C8.27975,77.6513333 8.2045,77.7843333 8.1065,77.894 C8.0085,78.0036667 7.88775,78.0888333 7.74425,78.1495 C7.60075,78.2101667 7.438,78.2405 7.256,78.2405 C7.074,78.2405 6.91125,78.2101667 6.76775,78.1495 C6.62425,78.0888333 6.50291667,78.0030833 6.40375,77.89225 C6.30458334,77.7814167 6.22875,77.6478333 6.17625,77.4915 C6.12375,77.3351667 6.0975,77.1601667 6.0975,76.9665 L6.0975,76.9665 L6.0975,73.939 L5.156,73.939 L5.156,76.97 C5.156,77.271 5.20441667,77.54925 5.30125,77.80475 C5.39808334,78.06025 5.53691667,78.28075 5.71775,78.46625 C5.89858334,78.65175 6.1185,78.7964167 6.3775,78.90025 C6.6365,79.0040833 6.92933334,79.056 7.256,79.056 Z M12.265,79 C12.65,79 13,78.9381667 13.315,78.8145 C13.63,78.6908333 13.8995,78.517 14.1235,78.293 C14.3475,78.069 14.5213333,77.8018333 14.645,77.4915 C14.7686667,77.1811667 14.8305,76.8405 14.8305,76.4695 C14.8305,76.0985 14.7686667,75.7578333 14.645,75.4475 C14.5213333,75.1371667 14.3475,74.8705833 14.1235,74.64775 C13.8995,74.4249167 13.63,74.2510833 13.315,74.12625 C13,74.0014167 12.65,73.939 12.265,73.939 L12.265,73.939 L10.3365,73.939 L10.3365,79 L12.265,79 Z M12.265,78.251 L11.2815,78.251 L11.2815,74.688 L12.265,74.688 C12.5123333,74.688 12.7345833,74.7288333 12.93175,74.8105 C13.1289167,74.8921667 13.2969167,75.0094167 13.43575,75.16225 C13.5745833,75.3150833 13.68075,75.50175 13.75425,75.72225 C13.82775,75.94275 13.8645,76.1918333 13.8645,76.4695 C13.8645,76.7471667 13.82775,76.99625 13.75425,77.21675 C13.68075,77.43725 13.5745833,77.6239167 13.43575,77.77675 C13.2969167,77.9295833 13.1289167,78.0468333 12.93175,78.1285 C12.7345833,78.2101667 12.5123333,78.251 12.265,78.251 L12.265,78.251 Z M16.525,79 L16.525,73.939 L15.58,73.939 L15.58,79 L16.525,79 Z M19.84,79.056 C20.225,79.056 20.575,78.99125 20.89,78.86175 C21.205,78.73225 21.4745,78.552 21.6985,78.321 C21.9225,78.09 22.09575,77.8164167 22.21825,77.50025 C22.34075,77.1840833 22.402,76.8405 22.402,76.4695 C22.402,76.2221667 22.3745833,75.9865 22.31975,75.7625 C22.2649167,75.5385 22.185,75.3308333 22.08,75.1395 C21.975,74.9481667 21.84725,74.7749167 21.69675,74.61975 C21.54625,74.4645833 21.3765,74.33275 21.1875,74.22425 C20.9985,74.11575 20.7908333,74.03175 20.5645,73.97225 C20.3381667,73.91275 20.0966667,73.883 19.84,73.883 C19.4573333,73.883 19.1085,73.94775 18.7935,74.07725 C18.4785,74.20675 18.2084167,74.387 17.98325,74.618 C17.7580833,74.849 17.5836667,75.1225833 17.46,75.43875 C17.3363333,75.7549167 17.2745,76.0985 17.2745,76.4695 C17.2745,76.8405 17.3363333,77.1840833 17.46,77.50025 C17.5836667,77.8164167 17.7580833,78.09 17.98325,78.321 C18.2084167,78.552 18.4785,78.73225 18.7935,78.86175 C19.1085,78.99125 19.4573333,79.056 19.84,79.056 Z M19.84,78.251 C19.5926667,78.251 19.3704167,78.2101667 19.17325,78.1285 C18.9760833,78.0468333 18.8080833,77.9295833 18.66925,77.77675 C18.5304167,77.6239167 18.4236667,77.43725 18.349,77.21675 C18.2743333,76.99625 18.237,76.7471667 18.237,76.4695 C18.237,76.1918333 18.2743333,75.94275 18.349,75.72225 C18.4236667,75.50175 18.5304167,75.3145 18.66925,75.1605 C18.8080833,75.0065 18.9760833,74.8886667 19.17325,74.807 C19.3704167,74.7253333 19.5926667,74.6845 19.84,74.6845 C20.0873333,74.6845 20.3095833,74.7253333 20.50675,74.807 C20.7039167,74.8886667 20.8713333,75.0065 21.009,75.1605 C21.1466667,75.3145 21.2528333,75.50175 21.3275,75.72225 C21.4021667,75.94275 21.4395,76.1918333 21.4395,76.4695 C21.4395,76.7471667 21.4021667,76.99625 21.3275,77.21675 C21.2528333,77.43725 21.1466667,77.6239167 21.009,77.77675 C20.8713333,77.9295833 20.7039167,78.0468333 20.50675,78.1285 C20.3095833,78.2101667 20.0873333,78.251 19.84,78.251 Z M25.7175,79 L25.7175,73.939 L24.7725,73.939 L24.7725,79 L25.7175,79 Z M27.5975,79 L27.5975,75.892 C27.5975,75.7613333 27.5905,75.619 27.5765,75.465 L27.5765,75.465 L30.219,78.839 C30.2656667,78.8973333 30.3140833,78.93875 30.36425,78.96325 C30.4144167,78.98775 30.4768333,79 30.5515,79 L30.5515,79 L31.0345,79 L31.0345,73.939 L30.205,73.939 L30.205,77.0155 C30.205,77.0831667 30.2073333,77.1566667 30.212,77.236 C30.2166667,77.3153333 30.2225,77.3958333 30.2295,77.4775 L30.2295,77.4775 L27.5765,74.0895 C27.5508333,74.0568333 27.5275,74.0305833 27.5065,74.01075 C27.4855,73.9909167 27.4639167,73.97575 27.44175,73.96525 C27.4195833,73.95475 27.3939167,73.94775 27.36475,73.94425 C27.3355833,73.94075 27.3011667,73.939 27.2615,73.939 L27.2615,73.939 L26.768,73.939 L26.768,79 L27.5975,79 Z" id="AUDIOIN"></path>
        </g>
    </g>
</svg>