<?xml version="1.0" encoding="UTF-8"?>
<svg width="12px" height="36px" viewBox="0 0 12 36" version="1.1" xmlns="http://www.w3.org/2000/svg" xmlns:xlink="http://www.w3.org/1999/xlink">
    <!-- Generator: Sketch 53 (72520) - https://sketchapp.com -->
    <title>bmp00121</title>
    <desc>Created with Sketch.</desc>
    <defs>
        <linearGradient x1="59.3589647%" y1="72.3970853%" x2="67.2606238%" y2="83.8462169%" id="linearGradient-1">
            <stop stop-color="#E3E3E3" offset="0%"></stop>
            <stop stop-color="#898989" stop-opacity="0.720899915" offset="94.4138367%"></stop>
            <stop stop-color="#000000" stop-opacity="0" offset="100%"></stop>
        </linearGradient>
        <rect id="path-2" x="0" y="0" width="10" height="13" rx="5"></rect>
        <linearGradient x1="42.4316406%" y1="31.1523438%" x2="33.3646897%" y2="16.9377254%" id="linearGradient-3">
            <stop stop-color="#000000" stop-opacity="0" offset="0%"></stop>
            <stop stop-color="#000000" offset="62.8186279%"></stop>
            <stop stop-color="#000000" offset="100%"></stop>
        </linearGradient>
        <linearGradient x1="50%" y1="27.7099609%" x2="74.9153453%" y2="100%" id="linearGradient-4">
            <stop stop-color="#FFFFFF" stop-opacity="0" offset="0%"></stop>
            <stop stop-color="#FFFFFF" stop-opacity="0.14209692" offset="54.2590286%"></stop>
            <stop stop-color="#FFA74C" offset="100%"></stop>
        </linearGradient>
        <rect id="path-5" x="0" y="0" width="10" height="13" rx="5"></rect>
    </defs>
    <g id="bmp00121" stroke="none" stroke-width="1" fill="none" fill-rule="evenodd">
        <g id="R-Thumb" transform="translate(0.000000, 1.000000)">
            <g id="Rectangle">
                <use fill="#E3E3E3" xlink:href="#path-2"></use>
                <rect stroke="#919191" stroke-width="1" stroke-linejoin="square" fill-opacity="0.09" fill="url(#linearGradient-1)" x="0.5" y="0.5" width="9" height="12" rx="4.5"></rect>
            </g>
        </g>
        <g id="R-Thumb----Orange" transform="translate(0.000000, 19.000000)">
            <g id="Rectangle">
                <use fill="#FF9C38" xlink:href="#path-5"></use>
                <use fill-opacity="0.03" fill="url(#linearGradient-3)" xlink:href="#path-5"></use>
                <rect stroke="#BD6404" stroke-width="1" stroke-linejoin="square" fill="url(#linearGradient-4)" x="0.5" y="0.5" width="9" height="12" rx="4.5"></rect>
            </g>
        </g>
        <g id="Font-Layer" transform="translate(2.000000, 3.000000)" fill="#252525" fill-rule="nonzero">
            <path d="M2.53,4.4135 C2.72600098,4.4135 2.89924925,4.38958357 3.04975,4.34175 C3.20025075,4.29391643 3.32624949,4.22625044 3.42775,4.13875 C3.52925051,4.05124956 3.60566641,3.94683394 3.657,3.8255 C3.70833359,3.70416606 3.734,3.57000073 3.734,3.423 C3.734,3.12433184 3.63600098,2.89916742 3.44,2.7475 C3.24399902,2.59583257 2.95000196,2.52 2.558,2.52 L1.816,2.52 L1.816,4.4135 L2.53,4.4135 Z M4.847,7 L4.245,7 C4.12133272,7 4.03033362,6.95216714 3.972,6.8565 L2.67,5.0645 C2.63033314,5.00849972 2.58775023,4.96825012 2.54225,4.94375 C2.49674977,4.91924988 2.42616714,4.907 2.3305,4.907 L1.816,4.907 L1.816,7 L1.1405,7 L1.1405,1.9845 L2.558,1.9845 C2.87533492,1.9845 3.14949885,2.01658301 3.3805,2.08075 C3.61150116,2.14491699 3.80224925,2.23766606 3.95275,2.359 C4.10325075,2.48033394 4.21466631,2.62674914 4.287,2.79825 C4.3593337,2.96975086 4.3955,3.16166561 4.3955,3.374 C4.3955,3.55133422 4.36750028,3.71699923 4.3115,3.871 C4.25549972,4.02500077 4.1744172,4.16324939 4.06825,4.28575 C3.9620828,4.40825061 3.8325841,4.51266624 3.67975,4.599 C3.5269159,4.68533377 3.35366764,4.75066645 3.16,4.795 C3.24633377,4.84400025 3.32099969,4.9151662 3.384,5.0085 L4.847,7 Z" id="R"></path>
            <path d="M2.53,22.4135 C2.72600098,22.4135 2.89924925,22.3895836 3.04975,22.34175 C3.20025075,22.2939164 3.32624949,22.2262504 3.42775,22.13875 C3.52925051,22.0512496 3.60566641,21.9468339 3.657,21.8255 C3.70833359,21.7041661 3.734,21.5700007 3.734,21.423 C3.734,21.1243318 3.63600098,20.8991674 3.44,20.7475 C3.24399902,20.5958326 2.95000196,20.52 2.558,20.52 L1.816,20.52 L1.816,22.4135 L2.53,22.4135 Z M4.847,25 L4.245,25 C4.12133272,25 4.03033362,24.9521671 3.972,24.8565 L2.67,23.0645 C2.63033314,23.0084997 2.58775023,22.9682501 2.54225,22.94375 C2.49674977,22.9192499 2.42616714,22.907 2.3305,22.907 L1.816,22.907 L1.816,25 L1.1405,25 L1.1405,19.9845 L2.558,19.9845 C2.87533492,19.9845 3.14949885,20.016583 3.3805,20.08075 C3.61150116,20.144917 3.80224925,20.2376661 3.95275,20.359 C4.10325075,20.4803339 4.21466631,20.6267491 4.287,20.79825 C4.3593337,20.9697509 4.3955,21.1616656 4.3955,21.374 C4.3955,21.5513342 4.36750028,21.7169992 4.3115,21.871 C4.25549972,22.0250008 4.1744172,22.1632494 4.06825,22.28575 C3.9620828,22.4082506 3.8325841,22.5126662 3.67975,22.599 C3.5269159,22.6853338 3.35366764,22.7506664 3.16,22.795 C3.24633377,22.8440002 3.32099969,22.9151662 3.384,23.0085 L4.847,25 Z" id="R"></path>
        </g>
    </g>
</svg>