<?xml version="1.0" encoding="UTF-8"?>
<svg width="48px" height="56px" viewBox="0 0 48 56" version="1.1" xmlns="http://www.w3.org/2000/svg" xmlns:xlink="http://www.w3.org/1999/xlink">
    <defs>
        <linearGradient x1="100%" y1="50%" x2="0%" y2="50%" id="linearGradient-1">
            <stop stop-color="#919090" offset="0%"></stop>
            <stop stop-color="#A2A2A2" offset="15.3900812%"></stop>
            <stop stop-color="#AEAEAE" offset="84.0974507%"></stop>
            <stop stop-color="#D2D2D2" offset="100%"></stop>
        </linearGradient>
        <linearGradient x1="100%" y1="50%" x2="0%" y2="50%" id="linearGradient-2">
            <stop stop-color="#8090BC" offset="0%"></stop>
            <stop stop-color="#8E9FCE" offset="15.7277961%"></stop>
            <stop stop-color="#8E9FCE" offset="84.2310855%"></stop>
            <stop stop-color="#AFB8D3" offset="100%"></stop>
        </linearGradient>
    </defs>
    <g id="bmp00157" stroke="none" stroke-width="1" fill="none" fill-rule="evenodd">
        <rect id="Rectangle" stroke="#262626" fill="url(#linearGradient-1)" transform="translate(9.000000, 11.500000) rotate(-270.000000) translate(-9.000000, -11.500000) " x="-1.77635684e-15" y="5" width="18" height="13" rx="5"></rect>
        <rect id="Rectangle" fill="#5D6266" transform="translate(9.000000, 11.500000) rotate(-270.000000) translate(-9.000000, -11.500000) " x="8.5" y="6.5" width="1" height="10"></rect>
        <rect id="Rectangle" stroke="#262626" fill="url(#linearGradient-1)" transform="translate(9.000000, 39.500000) rotate(-270.000000) translate(-9.000000, -39.500000) " x="-1.77635684e-15" y="33" width="18" height="13" rx="5"></rect>
        <rect id="Rectangle" fill="#5D6266" transform="translate(9.000000, 39.500000) rotate(-270.000000) translate(-9.000000, -39.500000) " x="8.5" y="34.5" width="1" height="10"></rect>
        <rect id="Rectangle" stroke="#141D39" fill="url(#linearGradient-2)" transform="translate(33.000000, 11.500000) rotate(-270.000000) translate(-33.000000, -11.500000) " x="24" y="5" width="18" height="13" rx="5"></rect>
        <rect id="Rectangle" fill="#394F8A" transform="translate(33.000000, 11.500000) rotate(-270.000000) translate(-33.000000, -11.500000) " x="32.5" y="6.5" width="1" height="10"></rect>
        <rect id="Rectangle" stroke="#141D39" fill="url(#linearGradient-2)" transform="translate(33.000000, 39.500000) rotate(-270.000000) translate(-33.000000, -39.500000) " x="24" y="33" width="18" height="13" rx="5"></rect>
        <rect id="Rectangle" fill="#394F8A" transform="translate(33.000000, 39.500000) rotate(-270.000000) translate(-33.000000, -39.500000) " x="32.5" y="34.5" width="1" height="10"></rect>
    </g>
</svg>