<?xml version="1.0" encoding="UTF-8"?>
<svg width="48px" height="56px" viewBox="0 0 48 56" version="1.1" xmlns="http://www.w3.org/2000/svg" xmlns:xlink="http://www.w3.org/1999/xlink">
    <g id="bmp00157" stroke="none" stroke-width="1" fill="none" fill-rule="evenodd">
        <rect id="Rectangle" stroke="#262626" fill="#AEAEAE" transform="translate(9.000000, 11.500000) rotate(-270.000000) translate(-9.000000, -11.500000) " x="-1.77635684e-15" y="5" width="18" height="13" rx="5"></rect>
        <rect id="Rectangle" fill="#5D6266" transform="translate(9.000000, 11.500000) rotate(-270.000000) translate(-9.000000, -11.500000) " x="8.5" y="6.5" width="1" height="10"></rect>
        <rect id="Rectangle" stroke="#262626" fill="#AEAEAE" transform="translate(9.000000, 39.500000) rotate(-270.000000) translate(-9.000000, -39.500000) " x="-1.77635684e-15" y="33" width="18" height="13" rx="5"></rect>
        <rect id="Rectangle" fill="#5D6266" transform="translate(9.000000, 39.500000) rotate(-270.000000) translate(-9.000000, -39.500000) " x="8.5" y="34.5" width="1" height="10"></rect>
        <rect id="Rectangle" stroke="#141D39" fill="#8E9FCE" transform="translate(33.000000, 11.500000) rotate(-270.000000) translate(-33.000000, -11.500000) " x="24" y="5" width="18" height="13" rx="5"></rect>
        <rect id="Rectangle" fill="#394F8A" transform="translate(33.000000, 11.500000) rotate(-270.000000) translate(-33.000000, -11.500000) " x="32.5" y="6.5" width="1" height="10"></rect>
        <rect id="Rectangle" stroke="#141D39" fill="#8E9FCE" transform="translate(33.000000, 39.500000) rotate(-270.000000) translate(-33.000000, -39.500000) " x="24" y="33" width="18" height="13" rx="5"></rect>
        <rect id="Rectangle" fill="#394F8A" transform="translate(33.000000, 39.500000) rotate(-270.000000) translate(-33.000000, -39.500000) " x="32.5" y="34.5" width="1" height="10"></rect>
    </g>
</svg>