<?xml version="1.0" encoding="UTF-8"?>
<svg width="36px" height="81px" viewBox="0 0 36 81" version="1.1" xmlns="http://www.w3.org/2000/svg" xmlns:xlink="http://www.w3.org/1999/xlink">
    <!-- Generator: Sketch 63.1 (92452) - https://sketch.com -->
    <title>bmp00114</title>
    <desc>Created with Sketch.</desc>
    <defs>
        <rect id="path-1" x="0" y="0" width="36" height="27" rx="2"></rect>
        <filter x="-0.7%" y="-0.9%" width="101.4%" height="103.7%" filterUnits="objectBoundingBox" id="filter-2">
            <feOffset dx="0" dy="0.5" in="SourceAlpha" result="shadowOffsetOuter1"></feOffset>
            <feComposite in="shadowOffsetOuter1" in2="SourceAlpha" operator="out" result="shadowOffsetOuter1"></feComposite>
            <feColorMatrix values="0 0 0 0 1   0 0 0 0 1   0 0 0 0 1  0 0 0 0.05 0" type="matrix" in="shadowOffsetOuter1"></feColorMatrix>
        </filter>
        <rect id="path-3" x="0" y="0" width="36" height="27" rx="2"></rect>
        <filter x="-0.7%" y="-0.9%" width="101.4%" height="103.7%" filterUnits="objectBoundingBox" id="filter-4">
            <feOffset dx="0" dy="0.5" in="SourceAlpha" result="shadowOffsetOuter1"></feOffset>
            <feComposite in="shadowOffsetOuter1" in2="SourceAlpha" operator="out" result="shadowOffsetOuter1"></feComposite>
            <feColorMatrix values="0 0 0 0 1   0 0 0 0 1   0 0 0 0 1  0 0 0 0.05 0" type="matrix" in="shadowOffsetOuter1"></feColorMatrix>
        </filter>
        <rect id="path-5" x="0" y="0" width="36" height="27" rx="2"></rect>
        <filter x="-0.7%" y="-0.9%" width="101.4%" height="103.7%" filterUnits="objectBoundingBox" id="filter-6">
            <feOffset dx="0" dy="0.5" in="SourceAlpha" result="shadowOffsetOuter1"></feOffset>
            <feComposite in="shadowOffsetOuter1" in2="SourceAlpha" operator="out" result="shadowOffsetOuter1"></feComposite>
            <feColorMatrix values="0 0 0 0 1   0 0 0 0 1   0 0 0 0 1  0 0 0 0.05 0" type="matrix" in="shadowOffsetOuter1"></feColorMatrix>
        </filter>
    </defs>
    <g id="bmp00114" stroke="none" stroke-width="1" fill="none" fill-rule="evenodd">
        <g id="Group-3">
            <g id="button/smallButton">
                <g id="Rectangle">
                    <use fill="black" fill-opacity="1" filter="url(#filter-2)" xlink:href="#path-1"></use>
                    <rect stroke="#0F0F0F" stroke-width="1" stroke-linejoin="square" fill="#242424" fill-rule="evenodd" x="0.5" y="0.5" width="35" height="26" rx="2"></rect>
                </g>
            </g>
            <g id="Group" transform="translate(2.000000, 9.000000)" fill="#0F0F0F">
                <rect id="Rectangle" x="0" y="0" width="32" height="1"></rect>
                <rect id="Rectangle" x="0" y="8" width="32" height="1"></rect>
            </g>
        </g>
        <g id="Group-3" transform="translate(0.000000, 27.000000)">
            <g id="button/smallButton">
                <g id="Rectangle">
                    <use fill="black" fill-opacity="1" filter="url(#filter-4)" xlink:href="#path-3"></use>
                    <rect stroke="#0F0F0F" stroke-width="1" stroke-linejoin="square" fill="#242424" fill-rule="evenodd" x="0.5" y="0.5" width="35" height="26" rx="2"></rect>
                </g>
            </g>
            <g id="Group" transform="translate(2.000000, 9.000000)" fill="#0F0F0F">
                <rect id="Rectangle" x="0" y="0" width="32" height="1"></rect>
                <rect id="Rectangle" x="0" y="8" width="32" height="1"></rect>
            </g>
            <g id="Group-2" transform="translate(5.000000, 3.000000)"></g>
        </g>
        <g id="Group-3" transform="translate(0.000000, 54.000000)">
            <g id="button/smallButton">
                <g id="Rectangle">
                    <use fill="black" fill-opacity="1" filter="url(#filter-6)" xlink:href="#path-5"></use>
                    <rect stroke="#0F0F0F" stroke-width="1" stroke-linejoin="square" fill="#242424" fill-rule="evenodd" x="0.5" y="0.5" width="35" height="26" rx="2"></rect>
                </g>
            </g>
            <g id="Group" transform="translate(2.000000, 9.000000)" fill="#0F0F0F">
                <rect id="Rectangle" x="0" y="0" width="32" height="1"></rect>
                <rect id="Rectangle" x="0" y="8" width="32" height="1"></rect>
            </g>
        </g>
        <path d="M5,2 L31,2 C32.1045695,2 33,2.8954305 33,4 L33,9 L33,9 L3,9 L3,4 C3,2.8954305 3.8954305,2 5,2 Z" id="Rectangle" fill="#FF9A10"></path>
        <rect id="Rectangle" fill="#FF9A10" x="3" y="37" width="30" height="7" rx="2"></rect>
        <path d="M5,72 L31,72 C32.1045695,72 33,72.8954305 33,74 L33,79 L33,79 L3,79 L3,74 C3,72.8954305 3.8954305,72 5,72 Z" id="Rectangle" fill="#FF9A10" transform="translate(18.000000, 75.500000) scale(1, -1) translate(-18.000000, -75.500000) "></path>
        <g id="Group-10" transform="translate(4.000000, 2.000000)" fill-rule="nonzero">
            <path d="M1.848,6.056 C2.13733333,6.056 2.39575,6.01225 2.62325,5.92475 C2.85075,5.83725 3.04208333,5.71708333 3.19725,5.56425 C3.35241667,5.41141667 3.47083333,5.23233333 3.5525,5.027 C3.63416667,4.82166667 3.675,4.60116667 3.675,4.3655 C3.675,4.15316667 3.64233333,3.97175 3.577,3.82125 C3.51166667,3.67075 3.42591667,3.543 3.31975,3.438 C3.21358333,3.333 3.09225,3.24666667 2.95575,3.179 C2.81925,3.11133333 2.67983333,3.05241667 2.5375,3.00225 C2.39516667,2.95208333 2.25575,2.90658333 2.11925,2.86575 C1.98275,2.82491667 1.86141667,2.78 1.75525,2.731 C1.64908333,2.682 1.56333333,2.62366667 1.498,2.556 C1.43266667,2.48833333 1.4,2.40316667 1.4,2.3005 C1.4,2.1395 1.45425,2.01175 1.56275,1.91725 C1.67125,1.82275 1.83633333,1.7755 2.058,1.7755 C2.18633333,1.7755 2.30066667,1.79241667 2.401,1.82625 C2.50133333,1.86008333 2.59058333,1.898 2.66875,1.94 C2.74691667,1.982 2.81691667,2.01991667 2.87875,2.05375 C2.94058333,2.08758333 2.99833333,2.1045 3.052,2.1045 C3.11266667,2.1045 3.16225,2.0905 3.20075,2.0625 C3.23925,2.0345 3.276,1.9925 3.311,1.9365 L3.311,1.9365 L3.605,1.387 C3.514,1.303 3.41075,1.22775 3.29525,1.16125 C3.17975,1.09475 3.0555,1.03758333 2.9225,0.98975 C2.7895,0.941916667 2.64891667,0.90575 2.50075,0.88125 C2.35258333,0.85675 2.20033333,0.8445 2.044,0.8445 C1.764,0.8445 1.5155,0.887083333 1.2985,0.97225 C1.0815,1.05741667 0.898333333,1.17116667 0.749,1.3135 C0.599666667,1.45583333 0.4865,1.618 0.4095,1.8 C0.3325,1.982 0.294,2.16866667 0.294,2.36 C0.294,2.598 0.326666667,2.79808333 0.392,2.96025 C0.457333333,3.12241667 0.543083333,3.25775 0.64925,3.36625 C0.755416667,3.47475 0.876166667,3.56225 1.0115,3.62875 C1.14683333,3.69525 1.28566667,3.75125 1.428,3.79675 C1.57033333,3.84225 1.70916667,3.88366667 1.8445,3.921 C1.97983333,3.95833333 2.10058333,4.0015 2.20675,4.0505 C2.31291667,4.0995 2.39866667,4.16133333 2.464,4.236 C2.52933333,4.31066667 2.562,4.4075 2.562,4.5265 C2.562,4.73183333 2.5025,4.88175 2.3835,4.97625 C2.2645,5.07075 2.09766667,5.118 1.883,5.118 C1.72433333,5.118 1.58666667,5.09583333 1.47,5.0515 C1.35333333,5.00716667 1.25008333,4.95816667 1.16025,4.9045 C1.07041667,4.85083333 0.989916667,4.80183333 0.91875,4.7575 C0.847583333,4.71316667 0.777,4.691 0.707,4.691 C0.653333333,4.691 0.60375,4.70441667 0.55825,4.73125 C0.51275,4.75808333 0.476,4.79133333 0.448,4.831 L0.448,4.831 L0.098,5.384 C0.198333333,5.48433333 0.316166667,5.57533333 0.4515,5.657 C0.586833333,5.73866667 0.7315,5.80925 0.8855,5.86875 C1.0395,5.92825 1.19875,5.97433333 1.36325,6.007 C1.52775,6.03966667 1.68933333,6.056 1.848,6.056 Z M6.1603889,6 L6.1603889,0.9005 L4.9703889,0.9005 L4.9703889,6 L6.1603889,6 Z M8.7892778,6 L8.7892778,3.2665 C8.7892778,3.19183333 8.7875278,3.11191667 8.7840278,3.02675 C8.7805278,2.94158333 8.77411113,2.8535 8.7647778,2.7625 L8.7647778,2.7625 L11.1692778,5.804 C11.2299445,5.87633333 11.2911945,5.92708333 11.3530278,5.95625 C11.4148611,5.98541667 11.4912778,6 11.5822778,6 L11.5822778,6 L12.1982778,6 L12.1982778,0.9005 L11.1552778,0.9005 L11.1552778,3.599 C11.1552778,3.68066667 11.1576111,3.76758333 11.1622778,3.85975 C11.1669445,3.95191667 11.1751111,4.047 11.1867778,4.145 L11.1867778,4.145 L8.7612778,1.0825 C8.72861113,1.04283333 8.69944447,1.01133333 8.6737778,0.988 C8.64811113,0.964666667 8.6212778,0.946583333 8.5932778,0.93375 C8.5652778,0.920916667 8.5337778,0.912166667 8.4987778,0.9075 C8.4637778,0.902833333 8.42061113,0.9005 8.3692778,0.9005 L8.3692778,0.9005 L7.7462778,0.9005 L7.7462778,6 L8.7892778,6 Z M16.2866667,6.056 C16.6086667,6.056 16.91725,6.01283333 17.2124167,5.9265 C17.5075834,5.84016667 17.7858334,5.70133333 18.0471667,5.51 L18.0471667,5.51 L18.0471667,3.3575 L16.2341667,3.3575 L16.2341667,4.0085 C16.2341667,4.06916667 16.2551667,4.11933333 16.2971667,4.159 C16.3391667,4.19866667 16.3975,4.2185 16.4721667,4.2185 L16.4721667,4.2185 L16.9761667,4.2185 L16.9761667,4.992 C16.8665,5.03866667 16.7539167,5.076 16.6384167,5.104 C16.5229167,5.132 16.394,5.146 16.2516667,5.146 C16.0206667,5.146 15.8100834,5.10808333 15.6199167,5.03225 C15.42975,4.95641667 15.2664167,4.84616667 15.1299167,4.7015 C14.9934167,4.55683333 14.8878334,4.3795 14.8131667,4.1695 C14.7385,3.9595 14.7011667,3.71916667 14.7011667,3.4485 C14.7011667,3.2035 14.735,2.98125 14.8026667,2.78175 C14.8703334,2.58225 14.9665834,2.41133333 15.0914167,2.269 C15.21625,2.12666667 15.3673334,2.01641667 15.5446667,1.93825 C15.722,1.86008333 15.9215,1.821 16.1431667,1.821 C16.2621667,1.821 16.3695,1.82683333 16.4651667,1.8385 C16.5608334,1.85016667 16.6518334,1.86883333 16.7381667,1.8945 C16.8245,1.92016667 16.9090834,1.95341667 16.9919167,1.99425 C17.07475,2.03508333 17.1628334,2.0835 17.2561667,2.1395 C17.3541667,2.20016667 17.44575,2.22116667 17.5309167,2.2025 C17.6160834,2.18383333 17.6855,2.13366667 17.7391667,2.052 L17.7391667,2.052 L18.0821667,1.5305 C17.9795,1.4325 17.8628334,1.3415 17.7321667,1.2575 C17.6015,1.1735 17.4574167,1.10116667 17.2999167,1.0405 C17.1424167,0.979833333 16.9703334,0.932 16.7836667,0.897 C16.597,0.862 16.3975,0.8445 16.1851667,0.8445 C15.7745,0.8445 15.4029167,0.908666667 15.0704167,1.037 C14.7379167,1.16533333 14.4544167,1.345 14.2199167,1.576 C13.9854167,1.807 13.8051667,2.08175 13.6791667,2.40025 C13.5531667,2.71875 13.4901667,3.06816667 13.4901667,3.4485 C13.4901667,3.82183333 13.5566667,4.16775 13.6896667,4.48625 C13.8226667,4.80475 14.0116667,5.08008333 14.2566667,5.31225 C14.5016667,5.54441667 14.79625,5.72641667 15.1404167,5.85825 C15.4845834,5.99008333 15.8666667,6.056 16.2866667,6.056 Z M22.5135556,6 L22.5135556,5.055 L20.6235556,5.055 L20.6235556,0.9005 L19.4405556,0.9005 L19.4405556,6 L22.5135556,6 Z M26.9974445,6 L26.9974445,5.09 L24.9044445,5.09 L24.9044445,3.8755 L26.5074445,3.8755 L26.5074445,3.0005 L24.9044445,3.0005 L24.9044445,1.8105 L26.9974445,1.8105 L26.9974445,0.9005 L23.7144445,0.9005 L23.7144445,6 L26.9974445,6 Z" id="SINGLE" fill="#252525"></path>
            <path d="M4.848,14.056 C5.13733333,14.056 5.39575,14.01225 5.62325,13.92475 C5.85075,13.83725 6.04208333,13.7170833 6.19725,13.56425 C6.35241667,13.4114167 6.47083333,13.2323333 6.5525,13.027 C6.63416667,12.8216667 6.675,12.6011667 6.675,12.3655 C6.675,12.1531667 6.64233333,11.97175 6.577,11.82125 C6.51166667,11.67075 6.42591667,11.543 6.31975,11.438 C6.21358333,11.333 6.09225,11.2466667 5.95575,11.179 C5.81925,11.1113333 5.67983333,11.0524167 5.5375,11.00225 C5.39516667,10.9520833 5.25575,10.9065833 5.11925,10.86575 C4.98275,10.8249167 4.86141667,10.78 4.75525,10.731 C4.64908333,10.682 4.56333333,10.6236667 4.498,10.556 C4.43266667,10.4883333 4.4,10.4031667 4.4,10.3005 C4.4,10.1395 4.45425,10.01175 4.56275,9.91725 C4.67125,9.82275 4.83633333,9.7755 5.058,9.7755 C5.18633333,9.7755 5.30066667,9.79241667 5.401,9.82625 C5.50133333,9.86008333 5.59058333,9.898 5.66875,9.94 C5.74691667,9.982 5.81691667,10.0199167 5.87875,10.05375 C5.94058333,10.0875833 5.99833333,10.1045 6.052,10.1045 C6.11266667,10.1045 6.16225,10.0905 6.20075,10.0625 C6.23925,10.0345 6.276,9.9925 6.311,9.9365 L6.311,9.9365 L6.605,9.387 C6.514,9.303 6.41075,9.22775 6.29525,9.16125 C6.17975,9.09475 6.0555,9.03758333 5.9225,8.98975 C5.7895,8.94191667 5.64891667,8.90575 5.50075,8.88125 C5.35258333,8.85675 5.20033333,8.8445 5.044,8.8445 C4.764,8.8445 4.5155,8.88708333 4.2985,8.97225 C4.0815,9.05741667 3.89833333,9.17116667 3.749,9.3135 C3.59966667,9.45583333 3.4865,9.618 3.4095,9.8 C3.3325,9.982 3.294,10.1686667 3.294,10.36 C3.294,10.598 3.32666667,10.7980833 3.392,10.96025 C3.45733333,11.1224167 3.54308333,11.25775 3.64925,11.36625 C3.75541667,11.47475 3.87616667,11.56225 4.0115,11.62875 C4.14683333,11.69525 4.28566667,11.75125 4.428,11.79675 C4.57033333,11.84225 4.70916667,11.8836667 4.8445,11.921 C4.97983333,11.9583333 5.10058333,12.0015 5.20675,12.0505 C5.31291667,12.0995 5.39866667,12.1613333 5.464,12.236 C5.52933333,12.3106667 5.562,12.4075 5.562,12.5265 C5.562,12.7318333 5.5025,12.88175 5.3835,12.97625 C5.2645,13.07075 5.09766667,13.118 4.883,13.118 C4.72433333,13.118 4.58666667,13.0958333 4.47,13.0515 C4.35333333,13.0071667 4.25008333,12.9581667 4.16025,12.9045 C4.07041667,12.8508333 3.98991667,12.8018333 3.91875,12.7575 C3.84758333,12.7131667 3.777,12.691 3.707,12.691 C3.65333333,12.691 3.60375,12.7044167 3.55825,12.73125 C3.51275,12.7580833 3.476,12.7913333 3.448,12.831 L3.448,12.831 L3.098,13.384 C3.19833333,13.4843333 3.31616667,13.5753333 3.4515,13.657 C3.58683333,13.7386667 3.7315,13.80925 3.8855,13.86875 C4.0395,13.92825 4.19875,13.9743333 4.36325,14.007 C4.52775,14.0396667 4.68933333,14.056 4.848,14.056 Z M9.1533889,14 L9.1533889,12.2955 L9.7693889,12.2955 C10.1217222,12.2955 10.4268056,12.2529167 10.6846389,12.16775 C10.9424722,12.0825833 11.1553889,11.9641667 11.3233889,11.8125 C11.4913889,11.6608333 11.6162222,11.4788333 11.6978889,11.2665 C11.7795556,11.0541667 11.8203889,10.8208333 11.8203889,10.5665 C11.8203889,10.3308333 11.7807222,10.1115 11.7013889,9.9085 C11.6220556,9.7055 11.4989722,9.52933333 11.3321389,9.38 C11.1653056,9.23066667 10.9529722,9.11341667 10.6951389,9.02825 C10.4373056,8.94308333 10.1287222,8.9005 9.7693889,8.9005 L9.7693889,8.9005 L7.9703889,8.9005 L7.9703889,14 L9.1533889,14 Z M9.7693889,11.403 L9.1533889,11.403 L9.1533889,9.786 L9.7693889,9.786 C9.91872223,9.786 10.0476389,9.80466667 10.1561389,9.842 C10.2646389,9.87933333 10.3544722,9.93241667 10.4256389,10.00125 C10.4968056,10.0700833 10.5498889,10.1523333 10.5848889,10.248 C10.6198889,10.3436667 10.6373889,10.4498333 10.6373889,10.5665 C10.6373889,10.8301667 10.5697222,11.0355 10.4343889,11.1825 C10.2990556,11.3295 10.0773889,11.403 9.7693889,11.403 L9.7693889,11.403 Z M16.0942778,14 L16.0942778,13.055 L14.2042778,13.055 L14.2042778,8.9005 L13.0212778,8.9005 L13.0212778,14 L16.0942778,14 Z M18.4851667,14 L18.4851667,8.9005 L17.2951667,8.9005 L17.2951667,14 L18.4851667,14 Z M22.3005556,14 L22.3005556,9.8385 L23.7355556,9.8385 L23.7355556,8.9005 L19.6825556,8.9005 L19.6825556,9.8385 L21.1175556,9.8385 L21.1175556,14 L22.3005556,14 Z" id="SPLIT" fill="#7F7F7F"></path>
            <path d="M5.4745,22 C5.87116667,22 6.23225,21.9364167 6.55775,21.80925 C6.88325,21.6820833 7.1615,21.50475 7.3925,21.27725 C7.6235,21.04975 7.80258333,20.78025 7.92975,20.46875 C8.05691667,20.15725 8.1205,19.8171667 8.1205,19.4485 C8.1205,19.0821667 8.05691667,18.74325 7.92975,18.43175 C7.80258333,18.12025 7.6235,17.8513333 7.3925,17.625 C7.1615,17.3986667 6.88325,17.2213333 6.55775,17.093 C6.23225,16.9646667 5.87116667,16.9005 5.4745,16.9005 L5.4745,16.9005 L3.4935,16.9005 L3.4935,22 L5.4745,22 Z M5.4745,21.09 L4.6835,21.09 L4.6835,17.8105 L5.4745,17.8105 C5.70083333,17.8105 5.90266667,17.8484167 6.08,17.92425 C6.25733333,18.0000833 6.40725,18.1085833 6.52975,18.24975 C6.65225,18.3909167 6.74616667,18.563 6.8115,18.766 C6.87683333,18.969 6.9095,19.1965 6.9095,19.4485 C6.9095,19.7028333 6.87683333,19.9315 6.8115,20.1345 C6.74616667,20.3375 6.65225,20.5095833 6.52975,20.65075 C6.40725,20.7919167 6.25733333,20.9004167 6.08,20.97625 C5.90266667,21.0520833 5.70083333,21.09 5.4745,21.09 L5.4745,21.09 Z M11.5473889,22.056 C11.8857222,22.056 12.1902222,22.0035 12.4608889,21.8985 C12.7315556,21.7935 12.9613889,21.6465 13.1503889,21.4575 C13.3393889,21.2685 13.4846389,21.0433333 13.5861389,20.782 C13.6876389,20.5206667 13.7383889,20.2336667 13.7383889,19.921 L13.7383889,19.921 L13.7383889,16.9005 L12.5553889,16.9005 L12.5553889,19.921 C12.5553889,20.1006667 12.5326389,20.2610833 12.4871389,20.40225 C12.4416389,20.5434167 12.3757222,20.663 12.2893889,20.761 C12.2030556,20.859 12.0974722,20.93425 11.9726389,20.98675 C11.8478056,21.03925 11.7060556,21.0655 11.5473889,21.0655 C11.3887222,21.0655 11.2469722,21.03925 11.1221389,20.98675 C10.9973056,20.93425 10.8917222,20.8584167 10.8053889,20.75925 C10.7190556,20.6600833 10.6531389,20.5399167 10.6076389,20.39875 C10.5621389,20.2575833 10.5393889,20.0971667 10.5393889,19.9175 L10.5393889,19.9175 L10.5393889,16.9005 L9.3563889,16.9005 L9.3563889,19.921 C9.3563889,20.2336667 9.40655557,20.5206667 9.5068889,20.782 C9.60722223,21.0433333 9.7518889,21.2685 9.9408889,21.4575 C10.1298889,21.6465 10.3597222,21.7935 10.6303889,21.8985 C10.9010556,22.0035 11.2067222,22.056 11.5473889,22.056 Z M15.4677778,22 C15.5657778,22 15.6480278,21.97375 15.7145278,21.92125 C15.7810278,21.86875 15.8271111,21.8098333 15.8527778,21.7445 L15.8527778,21.7445 L16.1537778,20.8555 L18.0927778,20.8555 L18.3937778,21.7445 C18.4264445,21.8191667 18.4742778,21.8804167 18.5372778,21.92825 C18.6002778,21.9760833 18.6831111,22 18.7857778,22 L18.7857778,22 L19.7027778,22 L17.7287778,16.9005 L16.5177778,16.9005 L14.5437778,22 L15.4677778,22 Z M17.8232778,20.0505 L16.4267778,20.0505 L16.8957778,18.661 C16.9307778,18.5723333 16.9681111,18.4673333 17.0077778,18.346 C17.0474445,18.2246667 17.0847778,18.0928333 17.1197778,17.9505 C17.1594445,18.0905 17.1991111,18.2205833 17.2387778,18.34075 C17.2784445,18.4609167 17.3157778,18.5653333 17.3507778,18.654 L17.3507778,18.654 L17.8232778,20.0505 Z M23.7771667,22 L23.7771667,21.055 L21.8871667,21.055 L21.8871667,16.9005 L20.7041667,16.9005 L20.7041667,22 L23.7771667,22 Z" id="DUAL" fill="#7F7F7F"></path>
        </g>
        <g id="Group-9" transform="translate(4.000000, 29.000000)" fill-rule="nonzero">
            <path d="M1.848,6.056 C2.13733333,6.056 2.39575,6.01225 2.62325,5.92475 C2.85075,5.83725 3.04208333,5.71708333 3.19725,5.56425 C3.35241667,5.41141667 3.47083333,5.23233333 3.5525,5.027 C3.63416667,4.82166667 3.675,4.60116667 3.675,4.3655 C3.675,4.15316667 3.64233333,3.97175 3.577,3.82125 C3.51166667,3.67075 3.42591667,3.543 3.31975,3.438 C3.21358333,3.333 3.09225,3.24666667 2.95575,3.179 C2.81925,3.11133333 2.67983333,3.05241667 2.5375,3.00225 C2.39516667,2.95208333 2.25575,2.90658333 2.11925,2.86575 C1.98275,2.82491667 1.86141667,2.78 1.75525,2.731 C1.64908333,2.682 1.56333333,2.62366667 1.498,2.556 C1.43266667,2.48833333 1.4,2.40316667 1.4,2.3005 C1.4,2.1395 1.45425,2.01175 1.56275,1.91725 C1.67125,1.82275 1.83633333,1.7755 2.058,1.7755 C2.18633333,1.7755 2.30066667,1.79241667 2.401,1.82625 C2.50133333,1.86008333 2.59058333,1.898 2.66875,1.94 C2.74691667,1.982 2.81691667,2.01991667 2.87875,2.05375 C2.94058333,2.08758333 2.99833333,2.1045 3.052,2.1045 C3.11266667,2.1045 3.16225,2.0905 3.20075,2.0625 C3.23925,2.0345 3.276,1.9925 3.311,1.9365 L3.311,1.9365 L3.605,1.387 C3.514,1.303 3.41075,1.22775 3.29525,1.16125 C3.17975,1.09475 3.0555,1.03758333 2.9225,0.98975 C2.7895,0.941916667 2.64891667,0.90575 2.50075,0.88125 C2.35258333,0.85675 2.20033333,0.8445 2.044,0.8445 C1.764,0.8445 1.5155,0.887083333 1.2985,0.97225 C1.0815,1.05741667 0.898333333,1.17116667 0.749,1.3135 C0.599666667,1.45583333 0.4865,1.618 0.4095,1.8 C0.3325,1.982 0.294,2.16866667 0.294,2.36 C0.294,2.598 0.326666667,2.79808333 0.392,2.96025 C0.457333333,3.12241667 0.543083333,3.25775 0.64925,3.36625 C0.755416667,3.47475 0.876166667,3.56225 1.0115,3.62875 C1.14683333,3.69525 1.28566667,3.75125 1.428,3.79675 C1.57033333,3.84225 1.70916667,3.88366667 1.8445,3.921 C1.97983333,3.95833333 2.10058333,4.0015 2.20675,4.0505 C2.31291667,4.0995 2.39866667,4.16133333 2.464,4.236 C2.52933333,4.31066667 2.562,4.4075 2.562,4.5265 C2.562,4.73183333 2.5025,4.88175 2.3835,4.97625 C2.2645,5.07075 2.09766667,5.118 1.883,5.118 C1.72433333,5.118 1.58666667,5.09583333 1.47,5.0515 C1.35333333,5.00716667 1.25008333,4.95816667 1.16025,4.9045 C1.07041667,4.85083333 0.989916667,4.80183333 0.91875,4.7575 C0.847583333,4.71316667 0.777,4.691 0.707,4.691 C0.653333333,4.691 0.60375,4.70441667 0.55825,4.73125 C0.51275,4.75808333 0.476,4.79133333 0.448,4.831 L0.448,4.831 L0.098,5.384 C0.198333333,5.48433333 0.316166667,5.57533333 0.4515,5.657 C0.586833333,5.73866667 0.7315,5.80925 0.8855,5.86875 C1.0395,5.92825 1.19875,5.97433333 1.36325,6.007 C1.52775,6.03966667 1.68933333,6.056 1.848,6.056 Z M6.1603889,6 L6.1603889,0.9005 L4.9703889,0.9005 L4.9703889,6 L6.1603889,6 Z M8.7892778,6 L8.7892778,3.2665 C8.7892778,3.19183333 8.7875278,3.11191667 8.7840278,3.02675 C8.7805278,2.94158333 8.77411113,2.8535 8.7647778,2.7625 L8.7647778,2.7625 L11.1692778,5.804 C11.2299445,5.87633333 11.2911945,5.92708333 11.3530278,5.95625 C11.4148611,5.98541667 11.4912778,6 11.5822778,6 L11.5822778,6 L12.1982778,6 L12.1982778,0.9005 L11.1552778,0.9005 L11.1552778,3.599 C11.1552778,3.68066667 11.1576111,3.76758333 11.1622778,3.85975 C11.1669445,3.95191667 11.1751111,4.047 11.1867778,4.145 L11.1867778,4.145 L8.7612778,1.0825 C8.72861113,1.04283333 8.69944447,1.01133333 8.6737778,0.988 C8.64811113,0.964666667 8.6212778,0.946583333 8.5932778,0.93375 C8.5652778,0.920916667 8.5337778,0.912166667 8.4987778,0.9075 C8.4637778,0.902833333 8.42061113,0.9005 8.3692778,0.9005 L8.3692778,0.9005 L7.7462778,0.9005 L7.7462778,6 L8.7892778,6 Z M16.2866667,6.056 C16.6086667,6.056 16.91725,6.01283333 17.2124167,5.9265 C17.5075834,5.84016667 17.7858334,5.70133333 18.0471667,5.51 L18.0471667,5.51 L18.0471667,3.3575 L16.2341667,3.3575 L16.2341667,4.0085 C16.2341667,4.06916667 16.2551667,4.11933333 16.2971667,4.159 C16.3391667,4.19866667 16.3975,4.2185 16.4721667,4.2185 L16.4721667,4.2185 L16.9761667,4.2185 L16.9761667,4.992 C16.8665,5.03866667 16.7539167,5.076 16.6384167,5.104 C16.5229167,5.132 16.394,5.146 16.2516667,5.146 C16.0206667,5.146 15.8100834,5.10808333 15.6199167,5.03225 C15.42975,4.95641667 15.2664167,4.84616667 15.1299167,4.7015 C14.9934167,4.55683333 14.8878334,4.3795 14.8131667,4.1695 C14.7385,3.9595 14.7011667,3.71916667 14.7011667,3.4485 C14.7011667,3.2035 14.735,2.98125 14.8026667,2.78175 C14.8703334,2.58225 14.9665834,2.41133333 15.0914167,2.269 C15.21625,2.12666667 15.3673334,2.01641667 15.5446667,1.93825 C15.722,1.86008333 15.9215,1.821 16.1431667,1.821 C16.2621667,1.821 16.3695,1.82683333 16.4651667,1.8385 C16.5608334,1.85016667 16.6518334,1.86883333 16.7381667,1.8945 C16.8245,1.92016667 16.9090834,1.95341667 16.9919167,1.99425 C17.07475,2.03508333 17.1628334,2.0835 17.2561667,2.1395 C17.3541667,2.20016667 17.44575,2.22116667 17.5309167,2.2025 C17.6160834,2.18383333 17.6855,2.13366667 17.7391667,2.052 L17.7391667,2.052 L18.0821667,1.5305 C17.9795,1.4325 17.8628334,1.3415 17.7321667,1.2575 C17.6015,1.1735 17.4574167,1.10116667 17.2999167,1.0405 C17.1424167,0.979833333 16.9703334,0.932 16.7836667,0.897 C16.597,0.862 16.3975,0.8445 16.1851667,0.8445 C15.7745,0.8445 15.4029167,0.908666667 15.0704167,1.037 C14.7379167,1.16533333 14.4544167,1.345 14.2199167,1.576 C13.9854167,1.807 13.8051667,2.08175 13.6791667,2.40025 C13.5531667,2.71875 13.4901667,3.06816667 13.4901667,3.4485 C13.4901667,3.82183333 13.5566667,4.16775 13.6896667,4.48625 C13.8226667,4.80475 14.0116667,5.08008333 14.2566667,5.31225 C14.5016667,5.54441667 14.79625,5.72641667 15.1404167,5.85825 C15.4845834,5.99008333 15.8666667,6.056 16.2866667,6.056 Z M22.5135556,6 L22.5135556,5.055 L20.6235556,5.055 L20.6235556,0.9005 L19.4405556,0.9005 L19.4405556,6 L22.5135556,6 Z M26.9974445,6 L26.9974445,5.09 L24.9044445,5.09 L24.9044445,3.8755 L26.5074445,3.8755 L26.5074445,3.0005 L24.9044445,3.0005 L24.9044445,1.8105 L26.9974445,1.8105 L26.9974445,0.9005 L23.7144445,0.9005 L23.7144445,6 L26.9974445,6 Z" id="SINGLE" fill="#7F7F7F"></path>
            <path d="M4.848,14.056 C5.13733333,14.056 5.39575,14.01225 5.62325,13.92475 C5.85075,13.83725 6.04208333,13.7170833 6.19725,13.56425 C6.35241667,13.4114167 6.47083333,13.2323333 6.5525,13.027 C6.63416667,12.8216667 6.675,12.6011667 6.675,12.3655 C6.675,12.1531667 6.64233333,11.97175 6.577,11.82125 C6.51166667,11.67075 6.42591667,11.543 6.31975,11.438 C6.21358333,11.333 6.09225,11.2466667 5.95575,11.179 C5.81925,11.1113333 5.67983333,11.0524167 5.5375,11.00225 C5.39516667,10.9520833 5.25575,10.9065833 5.11925,10.86575 C4.98275,10.8249167 4.86141667,10.78 4.75525,10.731 C4.64908333,10.682 4.56333333,10.6236667 4.498,10.556 C4.43266667,10.4883333 4.4,10.4031667 4.4,10.3005 C4.4,10.1395 4.45425,10.01175 4.56275,9.91725 C4.67125,9.82275 4.83633333,9.7755 5.058,9.7755 C5.18633333,9.7755 5.30066667,9.79241667 5.401,9.82625 C5.50133333,9.86008333 5.59058333,9.898 5.66875,9.94 C5.74691667,9.982 5.81691667,10.0199167 5.87875,10.05375 C5.94058333,10.0875833 5.99833333,10.1045 6.052,10.1045 C6.11266667,10.1045 6.16225,10.0905 6.20075,10.0625 C6.23925,10.0345 6.276,9.9925 6.311,9.9365 L6.311,9.9365 L6.605,9.387 C6.514,9.303 6.41075,9.22775 6.29525,9.16125 C6.17975,9.09475 6.0555,9.03758333 5.9225,8.98975 C5.7895,8.94191667 5.64891667,8.90575 5.50075,8.88125 C5.35258333,8.85675 5.20033333,8.8445 5.044,8.8445 C4.764,8.8445 4.5155,8.88708333 4.2985,8.97225 C4.0815,9.05741667 3.89833333,9.17116667 3.749,9.3135 C3.59966667,9.45583333 3.4865,9.618 3.4095,9.8 C3.3325,9.982 3.294,10.1686667 3.294,10.36 C3.294,10.598 3.32666667,10.7980833 3.392,10.96025 C3.45733333,11.1224167 3.54308333,11.25775 3.64925,11.36625 C3.75541667,11.47475 3.87616667,11.56225 4.0115,11.62875 C4.14683333,11.69525 4.28566667,11.75125 4.428,11.79675 C4.57033333,11.84225 4.70916667,11.8836667 4.8445,11.921 C4.97983333,11.9583333 5.10058333,12.0015 5.20675,12.0505 C5.31291667,12.0995 5.39866667,12.1613333 5.464,12.236 C5.52933333,12.3106667 5.562,12.4075 5.562,12.5265 C5.562,12.7318333 5.5025,12.88175 5.3835,12.97625 C5.2645,13.07075 5.09766667,13.118 4.883,13.118 C4.72433333,13.118 4.58666667,13.0958333 4.47,13.0515 C4.35333333,13.0071667 4.25008333,12.9581667 4.16025,12.9045 C4.07041667,12.8508333 3.98991667,12.8018333 3.91875,12.7575 C3.84758333,12.7131667 3.777,12.691 3.707,12.691 C3.65333333,12.691 3.60375,12.7044167 3.55825,12.73125 C3.51275,12.7580833 3.476,12.7913333 3.448,12.831 L3.448,12.831 L3.098,13.384 C3.19833333,13.4843333 3.31616667,13.5753333 3.4515,13.657 C3.58683333,13.7386667 3.7315,13.80925 3.8855,13.86875 C4.0395,13.92825 4.19875,13.9743333 4.36325,14.007 C4.52775,14.0396667 4.68933333,14.056 4.848,14.056 Z M9.1533889,14 L9.1533889,12.2955 L9.7693889,12.2955 C10.1217222,12.2955 10.4268056,12.2529167 10.6846389,12.16775 C10.9424722,12.0825833 11.1553889,11.9641667 11.3233889,11.8125 C11.4913889,11.6608333 11.6162222,11.4788333 11.6978889,11.2665 C11.7795556,11.0541667 11.8203889,10.8208333 11.8203889,10.5665 C11.8203889,10.3308333 11.7807222,10.1115 11.7013889,9.9085 C11.6220556,9.7055 11.4989722,9.52933333 11.3321389,9.38 C11.1653056,9.23066667 10.9529722,9.11341667 10.6951389,9.02825 C10.4373056,8.94308333 10.1287222,8.9005 9.7693889,8.9005 L9.7693889,8.9005 L7.9703889,8.9005 L7.9703889,14 L9.1533889,14 Z M9.7693889,11.403 L9.1533889,11.403 L9.1533889,9.786 L9.7693889,9.786 C9.91872223,9.786 10.0476389,9.80466667 10.1561389,9.842 C10.2646389,9.87933333 10.3544722,9.93241667 10.4256389,10.00125 C10.4968056,10.0700833 10.5498889,10.1523333 10.5848889,10.248 C10.6198889,10.3436667 10.6373889,10.4498333 10.6373889,10.5665 C10.6373889,10.8301667 10.5697222,11.0355 10.4343889,11.1825 C10.2990556,11.3295 10.0773889,11.403 9.7693889,11.403 L9.7693889,11.403 Z M16.0942778,14 L16.0942778,13.055 L14.2042778,13.055 L14.2042778,8.9005 L13.0212778,8.9005 L13.0212778,14 L16.0942778,14 Z M18.4851667,14 L18.4851667,8.9005 L17.2951667,8.9005 L17.2951667,14 L18.4851667,14 Z M22.3005556,14 L22.3005556,9.8385 L23.7355556,9.8385 L23.7355556,8.9005 L19.6825556,8.9005 L19.6825556,9.8385 L21.1175556,9.8385 L21.1175556,14 L22.3005556,14 Z" id="SPLIT" fill="#252525"></path>
            <path d="M5.4745,22 C5.87116667,22 6.23225,21.9364167 6.55775,21.80925 C6.88325,21.6820833 7.1615,21.50475 7.3925,21.27725 C7.6235,21.04975 7.80258333,20.78025 7.92975,20.46875 C8.05691667,20.15725 8.1205,19.8171667 8.1205,19.4485 C8.1205,19.0821667 8.05691667,18.74325 7.92975,18.43175 C7.80258333,18.12025 7.6235,17.8513333 7.3925,17.625 C7.1615,17.3986667 6.88325,17.2213333 6.55775,17.093 C6.23225,16.9646667 5.87116667,16.9005 5.4745,16.9005 L5.4745,16.9005 L3.4935,16.9005 L3.4935,22 L5.4745,22 Z M5.4745,21.09 L4.6835,21.09 L4.6835,17.8105 L5.4745,17.8105 C5.70083333,17.8105 5.90266667,17.8484167 6.08,17.92425 C6.25733333,18.0000833 6.40725,18.1085833 6.52975,18.24975 C6.65225,18.3909167 6.74616667,18.563 6.8115,18.766 C6.87683333,18.969 6.9095,19.1965 6.9095,19.4485 C6.9095,19.7028333 6.87683333,19.9315 6.8115,20.1345 C6.74616667,20.3375 6.65225,20.5095833 6.52975,20.65075 C6.40725,20.7919167 6.25733333,20.9004167 6.08,20.97625 C5.90266667,21.0520833 5.70083333,21.09 5.4745,21.09 L5.4745,21.09 Z M11.5473889,22.056 C11.8857222,22.056 12.1902222,22.0035 12.4608889,21.8985 C12.7315556,21.7935 12.9613889,21.6465 13.1503889,21.4575 C13.3393889,21.2685 13.4846389,21.0433333 13.5861389,20.782 C13.6876389,20.5206667 13.7383889,20.2336667 13.7383889,19.921 L13.7383889,19.921 L13.7383889,16.9005 L12.5553889,16.9005 L12.5553889,19.921 C12.5553889,20.1006667 12.5326389,20.2610833 12.4871389,20.40225 C12.4416389,20.5434167 12.3757222,20.663 12.2893889,20.761 C12.2030556,20.859 12.0974722,20.93425 11.9726389,20.98675 C11.8478056,21.03925 11.7060556,21.0655 11.5473889,21.0655 C11.3887222,21.0655 11.2469722,21.03925 11.1221389,20.98675 C10.9973056,20.93425 10.8917222,20.8584167 10.8053889,20.75925 C10.7190556,20.6600833 10.6531389,20.5399167 10.6076389,20.39875 C10.5621389,20.2575833 10.5393889,20.0971667 10.5393889,19.9175 L10.5393889,19.9175 L10.5393889,16.9005 L9.3563889,16.9005 L9.3563889,19.921 C9.3563889,20.2336667 9.40655557,20.5206667 9.5068889,20.782 C9.60722223,21.0433333 9.7518889,21.2685 9.9408889,21.4575 C10.1298889,21.6465 10.3597222,21.7935 10.6303889,21.8985 C10.9010556,22.0035 11.2067222,22.056 11.5473889,22.056 Z M15.4677778,22 C15.5657778,22 15.6480278,21.97375 15.7145278,21.92125 C15.7810278,21.86875 15.8271111,21.8098333 15.8527778,21.7445 L15.8527778,21.7445 L16.1537778,20.8555 L18.0927778,20.8555 L18.3937778,21.7445 C18.4264445,21.8191667 18.4742778,21.8804167 18.5372778,21.92825 C18.6002778,21.9760833 18.6831111,22 18.7857778,22 L18.7857778,22 L19.7027778,22 L17.7287778,16.9005 L16.5177778,16.9005 L14.5437778,22 L15.4677778,22 Z M17.8232778,20.0505 L16.4267778,20.0505 L16.8957778,18.661 C16.9307778,18.5723333 16.9681111,18.4673333 17.0077778,18.346 C17.0474445,18.2246667 17.0847778,18.0928333 17.1197778,17.9505 C17.1594445,18.0905 17.1991111,18.2205833 17.2387778,18.34075 C17.2784445,18.4609167 17.3157778,18.5653333 17.3507778,18.654 L17.3507778,18.654 L17.8232778,20.0505 Z M23.7771667,22 L23.7771667,21.055 L21.8871667,21.055 L21.8871667,16.9005 L20.7041667,16.9005 L20.7041667,22 L23.7771667,22 Z" id="DUAL" fill="#7F7F7F"></path>
        </g>
        <g id="Group-8" transform="translate(4.000000, 56.000000)" fill-rule="nonzero">
            <path d="M1.848,6.056 C2.13733333,6.056 2.39575,6.01225 2.62325,5.92475 C2.85075,5.83725 3.04208333,5.71708333 3.19725,5.56425 C3.35241667,5.41141667 3.47083333,5.23233333 3.5525,5.027 C3.63416667,4.82166667 3.675,4.60116667 3.675,4.3655 C3.675,4.15316667 3.64233333,3.97175 3.577,3.82125 C3.51166667,3.67075 3.42591667,3.543 3.31975,3.438 C3.21358333,3.333 3.09225,3.24666667 2.95575,3.179 C2.81925,3.11133333 2.67983333,3.05241667 2.5375,3.00225 C2.39516667,2.95208333 2.25575,2.90658333 2.11925,2.86575 C1.98275,2.82491667 1.86141667,2.78 1.75525,2.731 C1.64908333,2.682 1.56333333,2.62366667 1.498,2.556 C1.43266667,2.48833333 1.4,2.40316667 1.4,2.3005 C1.4,2.1395 1.45425,2.01175 1.56275,1.91725 C1.67125,1.82275 1.83633333,1.7755 2.058,1.7755 C2.18633333,1.7755 2.30066667,1.79241667 2.401,1.82625 C2.50133333,1.86008333 2.59058333,1.898 2.66875,1.94 C2.74691667,1.982 2.81691667,2.01991667 2.87875,2.05375 C2.94058333,2.08758333 2.99833333,2.1045 3.052,2.1045 C3.11266667,2.1045 3.16225,2.0905 3.20075,2.0625 C3.23925,2.0345 3.276,1.9925 3.311,1.9365 L3.311,1.9365 L3.605,1.387 C3.514,1.303 3.41075,1.22775 3.29525,1.16125 C3.17975,1.09475 3.0555,1.03758333 2.9225,0.98975 C2.7895,0.941916667 2.64891667,0.90575 2.50075,0.88125 C2.35258333,0.85675 2.20033333,0.8445 2.044,0.8445 C1.764,0.8445 1.5155,0.887083333 1.2985,0.97225 C1.0815,1.05741667 0.898333333,1.17116667 0.749,1.3135 C0.599666667,1.45583333 0.4865,1.618 0.4095,1.8 C0.3325,1.982 0.294,2.16866667 0.294,2.36 C0.294,2.598 0.326666667,2.79808333 0.392,2.96025 C0.457333333,3.12241667 0.543083333,3.25775 0.64925,3.36625 C0.755416667,3.47475 0.876166667,3.56225 1.0115,3.62875 C1.14683333,3.69525 1.28566667,3.75125 1.428,3.79675 C1.57033333,3.84225 1.70916667,3.88366667 1.8445,3.921 C1.97983333,3.95833333 2.10058333,4.0015 2.20675,4.0505 C2.31291667,4.0995 2.39866667,4.16133333 2.464,4.236 C2.52933333,4.31066667 2.562,4.4075 2.562,4.5265 C2.562,4.73183333 2.5025,4.88175 2.3835,4.97625 C2.2645,5.07075 2.09766667,5.118 1.883,5.118 C1.72433333,5.118 1.58666667,5.09583333 1.47,5.0515 C1.35333333,5.00716667 1.25008333,4.95816667 1.16025,4.9045 C1.07041667,4.85083333 0.989916667,4.80183333 0.91875,4.7575 C0.847583333,4.71316667 0.777,4.691 0.707,4.691 C0.653333333,4.691 0.60375,4.70441667 0.55825,4.73125 C0.51275,4.75808333 0.476,4.79133333 0.448,4.831 L0.448,4.831 L0.098,5.384 C0.198333333,5.48433333 0.316166667,5.57533333 0.4515,5.657 C0.586833333,5.73866667 0.7315,5.80925 0.8855,5.86875 C1.0395,5.92825 1.19875,5.97433333 1.36325,6.007 C1.52775,6.03966667 1.68933333,6.056 1.848,6.056 Z M6.1603889,6 L6.1603889,0.9005 L4.9703889,0.9005 L4.9703889,6 L6.1603889,6 Z M8.7892778,6 L8.7892778,3.2665 C8.7892778,3.19183333 8.7875278,3.11191667 8.7840278,3.02675 C8.7805278,2.94158333 8.77411113,2.8535 8.7647778,2.7625 L8.7647778,2.7625 L11.1692778,5.804 C11.2299445,5.87633333 11.2911945,5.92708333 11.3530278,5.95625 C11.4148611,5.98541667 11.4912778,6 11.5822778,6 L11.5822778,6 L12.1982778,6 L12.1982778,0.9005 L11.1552778,0.9005 L11.1552778,3.599 C11.1552778,3.68066667 11.1576111,3.76758333 11.1622778,3.85975 C11.1669445,3.95191667 11.1751111,4.047 11.1867778,4.145 L11.1867778,4.145 L8.7612778,1.0825 C8.72861113,1.04283333 8.69944447,1.01133333 8.6737778,0.988 C8.64811113,0.964666667 8.6212778,0.946583333 8.5932778,0.93375 C8.5652778,0.920916667 8.5337778,0.912166667 8.4987778,0.9075 C8.4637778,0.902833333 8.42061113,0.9005 8.3692778,0.9005 L8.3692778,0.9005 L7.7462778,0.9005 L7.7462778,6 L8.7892778,6 Z M16.2866667,6.056 C16.6086667,6.056 16.91725,6.01283333 17.2124167,5.9265 C17.5075834,5.84016667 17.7858334,5.70133333 18.0471667,5.51 L18.0471667,5.51 L18.0471667,3.3575 L16.2341667,3.3575 L16.2341667,4.0085 C16.2341667,4.06916667 16.2551667,4.11933333 16.2971667,4.159 C16.3391667,4.19866667 16.3975,4.2185 16.4721667,4.2185 L16.4721667,4.2185 L16.9761667,4.2185 L16.9761667,4.992 C16.8665,5.03866667 16.7539167,5.076 16.6384167,5.104 C16.5229167,5.132 16.394,5.146 16.2516667,5.146 C16.0206667,5.146 15.8100834,5.10808333 15.6199167,5.03225 C15.42975,4.95641667 15.2664167,4.84616667 15.1299167,4.7015 C14.9934167,4.55683333 14.8878334,4.3795 14.8131667,4.1695 C14.7385,3.9595 14.7011667,3.71916667 14.7011667,3.4485 C14.7011667,3.2035 14.735,2.98125 14.8026667,2.78175 C14.8703334,2.58225 14.9665834,2.41133333 15.0914167,2.269 C15.21625,2.12666667 15.3673334,2.01641667 15.5446667,1.93825 C15.722,1.86008333 15.9215,1.821 16.1431667,1.821 C16.2621667,1.821 16.3695,1.82683333 16.4651667,1.8385 C16.5608334,1.85016667 16.6518334,1.86883333 16.7381667,1.8945 C16.8245,1.92016667 16.9090834,1.95341667 16.9919167,1.99425 C17.07475,2.03508333 17.1628334,2.0835 17.2561667,2.1395 C17.3541667,2.20016667 17.44575,2.22116667 17.5309167,2.2025 C17.6160834,2.18383333 17.6855,2.13366667 17.7391667,2.052 L17.7391667,2.052 L18.0821667,1.5305 C17.9795,1.4325 17.8628334,1.3415 17.7321667,1.2575 C17.6015,1.1735 17.4574167,1.10116667 17.2999167,1.0405 C17.1424167,0.979833333 16.9703334,0.932 16.7836667,0.897 C16.597,0.862 16.3975,0.8445 16.1851667,0.8445 C15.7745,0.8445 15.4029167,0.908666667 15.0704167,1.037 C14.7379167,1.16533333 14.4544167,1.345 14.2199167,1.576 C13.9854167,1.807 13.8051667,2.08175 13.6791667,2.40025 C13.5531667,2.71875 13.4901667,3.06816667 13.4901667,3.4485 C13.4901667,3.82183333 13.5566667,4.16775 13.6896667,4.48625 C13.8226667,4.80475 14.0116667,5.08008333 14.2566667,5.31225 C14.5016667,5.54441667 14.79625,5.72641667 15.1404167,5.85825 C15.4845834,5.99008333 15.8666667,6.056 16.2866667,6.056 Z M22.5135556,6 L22.5135556,5.055 L20.6235556,5.055 L20.6235556,0.9005 L19.4405556,0.9005 L19.4405556,6 L22.5135556,6 Z M26.9974445,6 L26.9974445,5.09 L24.9044445,5.09 L24.9044445,3.8755 L26.5074445,3.8755 L26.5074445,3.0005 L24.9044445,3.0005 L24.9044445,1.8105 L26.9974445,1.8105 L26.9974445,0.9005 L23.7144445,0.9005 L23.7144445,6 L26.9974445,6 Z" id="SINGLE" fill="#7F7F7F"></path>
            <path d="M4.848,14.056 C5.13733333,14.056 5.39575,14.01225 5.62325,13.92475 C5.85075,13.83725 6.04208333,13.7170833 6.19725,13.56425 C6.35241667,13.4114167 6.47083333,13.2323333 6.5525,13.027 C6.63416667,12.8216667 6.675,12.6011667 6.675,12.3655 C6.675,12.1531667 6.64233333,11.97175 6.577,11.82125 C6.51166667,11.67075 6.42591667,11.543 6.31975,11.438 C6.21358333,11.333 6.09225,11.2466667 5.95575,11.179 C5.81925,11.1113333 5.67983333,11.0524167 5.5375,11.00225 C5.39516667,10.9520833 5.25575,10.9065833 5.11925,10.86575 C4.98275,10.8249167 4.86141667,10.78 4.75525,10.731 C4.64908333,10.682 4.56333333,10.6236667 4.498,10.556 C4.43266667,10.4883333 4.4,10.4031667 4.4,10.3005 C4.4,10.1395 4.45425,10.01175 4.56275,9.91725 C4.67125,9.82275 4.83633333,9.7755 5.058,9.7755 C5.18633333,9.7755 5.30066667,9.79241667 5.401,9.82625 C5.50133333,9.86008333 5.59058333,9.898 5.66875,9.94 C5.74691667,9.982 5.81691667,10.0199167 5.87875,10.05375 C5.94058333,10.0875833 5.99833333,10.1045 6.052,10.1045 C6.11266667,10.1045 6.16225,10.0905 6.20075,10.0625 C6.23925,10.0345 6.276,9.9925 6.311,9.9365 L6.311,9.9365 L6.605,9.387 C6.514,9.303 6.41075,9.22775 6.29525,9.16125 C6.17975,9.09475 6.0555,9.03758333 5.9225,8.98975 C5.7895,8.94191667 5.64891667,8.90575 5.50075,8.88125 C5.35258333,8.85675 5.20033333,8.8445 5.044,8.8445 C4.764,8.8445 4.5155,8.88708333 4.2985,8.97225 C4.0815,9.05741667 3.89833333,9.17116667 3.749,9.3135 C3.59966667,9.45583333 3.4865,9.618 3.4095,9.8 C3.3325,9.982 3.294,10.1686667 3.294,10.36 C3.294,10.598 3.32666667,10.7980833 3.392,10.96025 C3.45733333,11.1224167 3.54308333,11.25775 3.64925,11.36625 C3.75541667,11.47475 3.87616667,11.56225 4.0115,11.62875 C4.14683333,11.69525 4.28566667,11.75125 4.428,11.79675 C4.57033333,11.84225 4.70916667,11.8836667 4.8445,11.921 C4.97983333,11.9583333 5.10058333,12.0015 5.20675,12.0505 C5.31291667,12.0995 5.39866667,12.1613333 5.464,12.236 C5.52933333,12.3106667 5.562,12.4075 5.562,12.5265 C5.562,12.7318333 5.5025,12.88175 5.3835,12.97625 C5.2645,13.07075 5.09766667,13.118 4.883,13.118 C4.72433333,13.118 4.58666667,13.0958333 4.47,13.0515 C4.35333333,13.0071667 4.25008333,12.9581667 4.16025,12.9045 C4.07041667,12.8508333 3.98991667,12.8018333 3.91875,12.7575 C3.84758333,12.7131667 3.777,12.691 3.707,12.691 C3.65333333,12.691 3.60375,12.7044167 3.55825,12.73125 C3.51275,12.7580833 3.476,12.7913333 3.448,12.831 L3.448,12.831 L3.098,13.384 C3.19833333,13.4843333 3.31616667,13.5753333 3.4515,13.657 C3.58683333,13.7386667 3.7315,13.80925 3.8855,13.86875 C4.0395,13.92825 4.19875,13.9743333 4.36325,14.007 C4.52775,14.0396667 4.68933333,14.056 4.848,14.056 Z M9.1533889,14 L9.1533889,12.2955 L9.7693889,12.2955 C10.1217222,12.2955 10.4268056,12.2529167 10.6846389,12.16775 C10.9424722,12.0825833 11.1553889,11.9641667 11.3233889,11.8125 C11.4913889,11.6608333 11.6162222,11.4788333 11.6978889,11.2665 C11.7795556,11.0541667 11.8203889,10.8208333 11.8203889,10.5665 C11.8203889,10.3308333 11.7807222,10.1115 11.7013889,9.9085 C11.6220556,9.7055 11.4989722,9.52933333 11.3321389,9.38 C11.1653056,9.23066667 10.9529722,9.11341667 10.6951389,9.02825 C10.4373056,8.94308333 10.1287222,8.9005 9.7693889,8.9005 L9.7693889,8.9005 L7.9703889,8.9005 L7.9703889,14 L9.1533889,14 Z M9.7693889,11.403 L9.1533889,11.403 L9.1533889,9.786 L9.7693889,9.786 C9.91872223,9.786 10.0476389,9.80466667 10.1561389,9.842 C10.2646389,9.87933333 10.3544722,9.93241667 10.4256389,10.00125 C10.4968056,10.0700833 10.5498889,10.1523333 10.5848889,10.248 C10.6198889,10.3436667 10.6373889,10.4498333 10.6373889,10.5665 C10.6373889,10.8301667 10.5697222,11.0355 10.4343889,11.1825 C10.2990556,11.3295 10.0773889,11.403 9.7693889,11.403 L9.7693889,11.403 Z M16.0942778,14 L16.0942778,13.055 L14.2042778,13.055 L14.2042778,8.9005 L13.0212778,8.9005 L13.0212778,14 L16.0942778,14 Z M18.4851667,14 L18.4851667,8.9005 L17.2951667,8.9005 L17.2951667,14 L18.4851667,14 Z M22.3005556,14 L22.3005556,9.8385 L23.7355556,9.8385 L23.7355556,8.9005 L19.6825556,8.9005 L19.6825556,9.8385 L21.1175556,9.8385 L21.1175556,14 L22.3005556,14 Z" id="SPLIT" fill="#7F7F7F"></path>
            <path d="M5.4745,22 C5.87116667,22 6.23225,21.9364167 6.55775,21.80925 C6.88325,21.6820833 7.1615,21.50475 7.3925,21.27725 C7.6235,21.04975 7.80258333,20.78025 7.92975,20.46875 C8.05691667,20.15725 8.1205,19.8171667 8.1205,19.4485 C8.1205,19.0821667 8.05691667,18.74325 7.92975,18.43175 C7.80258333,18.12025 7.6235,17.8513333 7.3925,17.625 C7.1615,17.3986667 6.88325,17.2213333 6.55775,17.093 C6.23225,16.9646667 5.87116667,16.9005 5.4745,16.9005 L5.4745,16.9005 L3.4935,16.9005 L3.4935,22 L5.4745,22 Z M5.4745,21.09 L4.6835,21.09 L4.6835,17.8105 L5.4745,17.8105 C5.70083333,17.8105 5.90266667,17.8484167 6.08,17.92425 C6.25733333,18.0000833 6.40725,18.1085833 6.52975,18.24975 C6.65225,18.3909167 6.74616667,18.563 6.8115,18.766 C6.87683333,18.969 6.9095,19.1965 6.9095,19.4485 C6.9095,19.7028333 6.87683333,19.9315 6.8115,20.1345 C6.74616667,20.3375 6.65225,20.5095833 6.52975,20.65075 C6.40725,20.7919167 6.25733333,20.9004167 6.08,20.97625 C5.90266667,21.0520833 5.70083333,21.09 5.4745,21.09 L5.4745,21.09 Z M11.5473889,22.056 C11.8857222,22.056 12.1902222,22.0035 12.4608889,21.8985 C12.7315556,21.7935 12.9613889,21.6465 13.1503889,21.4575 C13.3393889,21.2685 13.4846389,21.0433333 13.5861389,20.782 C13.6876389,20.5206667 13.7383889,20.2336667 13.7383889,19.921 L13.7383889,19.921 L13.7383889,16.9005 L12.5553889,16.9005 L12.5553889,19.921 C12.5553889,20.1006667 12.5326389,20.2610833 12.4871389,20.40225 C12.4416389,20.5434167 12.3757222,20.663 12.2893889,20.761 C12.2030556,20.859 12.0974722,20.93425 11.9726389,20.98675 C11.8478056,21.03925 11.7060556,21.0655 11.5473889,21.0655 C11.3887222,21.0655 11.2469722,21.03925 11.1221389,20.98675 C10.9973056,20.93425 10.8917222,20.8584167 10.8053889,20.75925 C10.7190556,20.6600833 10.6531389,20.5399167 10.6076389,20.39875 C10.5621389,20.2575833 10.5393889,20.0971667 10.5393889,19.9175 L10.5393889,19.9175 L10.5393889,16.9005 L9.3563889,16.9005 L9.3563889,19.921 C9.3563889,20.2336667 9.40655557,20.5206667 9.5068889,20.782 C9.60722223,21.0433333 9.7518889,21.2685 9.9408889,21.4575 C10.1298889,21.6465 10.3597222,21.7935 10.6303889,21.8985 C10.9010556,22.0035 11.2067222,22.056 11.5473889,22.056 Z M15.4677778,22 C15.5657778,22 15.6480278,21.97375 15.7145278,21.92125 C15.7810278,21.86875 15.8271111,21.8098333 15.8527778,21.7445 L15.8527778,21.7445 L16.1537778,20.8555 L18.0927778,20.8555 L18.3937778,21.7445 C18.4264445,21.8191667 18.4742778,21.8804167 18.5372778,21.92825 C18.6002778,21.9760833 18.6831111,22 18.7857778,22 L18.7857778,22 L19.7027778,22 L17.7287778,16.9005 L16.5177778,16.9005 L14.5437778,22 L15.4677778,22 Z M17.8232778,20.0505 L16.4267778,20.0505 L16.8957778,18.661 C16.9307778,18.5723333 16.9681111,18.4673333 17.0077778,18.346 C17.0474445,18.2246667 17.0847778,18.0928333 17.1197778,17.9505 C17.1594445,18.0905 17.1991111,18.2205833 17.2387778,18.34075 C17.2784445,18.4609167 17.3157778,18.5653333 17.3507778,18.654 L17.3507778,18.654 L17.8232778,20.0505 Z M23.7771667,22 L23.7771667,21.055 L21.8871667,21.055 L21.8871667,16.9005 L20.7041667,16.9005 L20.7041667,22 L23.7771667,22 Z" id="DUAL" fill="#252525"></path>
        </g>
    </g>
</svg>